<svg xmlns="http://www.w3.org/2000/svg" xmlns:xlink="http://www.w3.org/1999/xlink" viewBox="0 0 1006.87 1424"><defs><style>.cls-1{fill:none;}.cls-2{isolation:isolate;}.cls-3{mix-blend-mode:multiply;}.cls-4{fill:#caa8a9;}.cls-5{fill:url(#New_Gradient_Swatch_copy_7);}.cls-6{fill:url(#New_Gradient_Swatch_copy_7-2);}.cls-7{fill:url(#New_Gradient_Swatch_copy_7-3);}.cls-8{fill:url(#New_Gradient_Swatch_copy_7-4);}.cls-12,.cls-26,.cls-9{fill:#fff6d5;}.cls-9{fill-rule:evenodd;}.cls-10{fill:url(#New_Gradient_Swatch_copy);}.cls-11{fill:url(#New_Gradient_Swatch_copy_10);}.cls-12,.cls-15{mix-blend-mode:soft-light;}.cls-13{fill:url(#New_Gradient_Swatch_copy_8);}.cls-14{fill:url(#New_Gradient_Swatch_copy_3);}.cls-15{fill:#eaeebc;}.cls-16{fill:#4c2a04;}.cls-17{fill:url(#New_Gradient_Swatch_copy_5);}.cls-18{fill:#e84b0f;}.cls-19{fill:url(#New_Gradient_Swatch_copy_6);}.cls-20{fill:url(#New_Gradient_Swatch_copy_6-2);}.cls-21{fill:url(#New_Gradient_Swatch_copy_2);}.cls-22{fill:url(#New_Gradient_Swatch_copy_9);}.cls-23{fill:url(#New_Gradient_Swatch_copy_2-2);}.cls-24{fill:url(#New_Gradient_Swatch_copy_4);}.cls-25{clip-path:url(#clip-path);}</style><linearGradient id="New_Gradient_Swatch_copy_7" x1="826.31" y1="2928.72" x2="761.43" y2="2851.15" gradientTransform="matrix(-0.31, -0.95, 0.95, -0.31, -2143.85, 2975.96)" gradientUnits="userSpaceOnUse"><stop offset="0.3" stop-color="#fff6d5" stop-opacity="0"/><stop offset="0.53" stop-color="#fff6d5" stop-opacity="0.01"/><stop offset="0.62" stop-color="#fff6d5" stop-opacity="0.03"/><stop offset="0.68" stop-color="#fff6d5" stop-opacity="0.08"/><stop offset="0.73" stop-color="#fff6d5" stop-opacity="0.15"/><stop offset="0.77" stop-color="#fff6d5" stop-opacity="0.23"/><stop offset="0.8" stop-color="#fff6d5" stop-opacity="0.34"/><stop offset="0.84" stop-color="#fff6d5" stop-opacity="0.47"/><stop offset="0.87" stop-color="#fff6d5" stop-opacity="0.61"/><stop offset="0.9" stop-color="#fff6d5" stop-opacity="0.78"/><stop offset="0.92" stop-color="#fff6d5" stop-opacity="0.96"/><stop offset="0.93" stop-color="#fff6d5"/></linearGradient><linearGradient id="New_Gradient_Swatch_copy_7-2" x1="670.44" y1="3190.33" x2="777.34" y2="3090.86" gradientTransform="translate(-1963.5 3464.68) rotate(-122.6)" xlink:href="#New_Gradient_Swatch_copy_7"/><linearGradient id="New_Gradient_Swatch_copy_7-3" x1="-1237.06" y1="2129.17" x2="-1284.59" y2="2072.34" gradientTransform="matrix(-0.34, 0.94, -0.94, -0.34, 1747.12, 2108.78)" xlink:href="#New_Gradient_Swatch_copy_7"/><linearGradient id="New_Gradient_Swatch_copy_7-4" x1="-1150.03" y1="1879.26" x2="-1071.72" y2="1806.39" gradientTransform="translate(1903.5 1612.41) rotate(95.19)" xlink:href="#New_Gradient_Swatch_copy_7"/><linearGradient id="New_Gradient_Swatch_copy" x1="644.56" y1="433.17" x2="689.63" y2="536.44" gradientUnits="userSpaceOnUse"><stop offset="0.28" stop-color="#f6a200"/><stop offset="0.47" stop-color="#f39f00"/><stop offset="0.6" stop-color="#ea9602"/><stop offset="0.72" stop-color="#db8704"/><stop offset="0.82" stop-color="#c57108"/><stop offset="0.91" stop-color="#aa560d"/><stop offset="0.92" stop-color="#a7530d"/></linearGradient><linearGradient id="New_Gradient_Swatch_copy_10" x1="843.67" y1="642.56" x2="746.85" y2="637.18" gradientUnits="userSpaceOnUse"><stop offset="0.25" stop-color="#fff6d5"/><stop offset="0.37" stop-color="#fff6d5" stop-opacity="0.99"/><stop offset="0.45" stop-color="#fff6d5" stop-opacity="0.96"/><stop offset="0.51" stop-color="#fff6d5" stop-opacity="0.9"/><stop offset="0.57" stop-color="#fff6d5" stop-opacity="0.82"/><stop offset="0.62" stop-color="#fff6d5" stop-opacity="0.71"/><stop offset="0.67" stop-color="#fff6d5" stop-opacity="0.58"/><stop offset="0.71" stop-color="#fff6d5" stop-opacity="0.43"/><stop offset="0.76" stop-color="#fff6d5" stop-opacity="0.25"/><stop offset="0.8" stop-color="#fff6d5" stop-opacity="0.06"/><stop offset="0.81" stop-color="#fff6d5" stop-opacity="0"/></linearGradient><linearGradient id="New_Gradient_Swatch_copy_8" x1="306.64" y1="510.28" x2="356.32" y2="575.64" gradientUnits="userSpaceOnUse"><stop offset="0.25" stop-color="#fff6d5"/><stop offset="0.34" stop-color="#fff6d5" stop-opacity="0.99"/><stop offset="0.4" stop-color="#fff6d5" stop-opacity="0.96"/><stop offset="0.44" stop-color="#fff6d5" stop-opacity="0.9"/><stop offset="0.49" stop-color="#fff6d5" stop-opacity="0.82"/><stop offset="0.52" stop-color="#fff6d5" stop-opacity="0.71"/><stop offset="0.56" stop-color="#fff6d5" stop-opacity="0.58"/><stop offset="0.59" stop-color="#fff6d5" stop-opacity="0.43"/><stop offset="0.63" stop-color="#fff6d5" stop-opacity="0.25"/><stop offset="0.66" stop-color="#fff6d5" stop-opacity="0.06"/><stop offset="0.66" stop-color="#fff6d5" stop-opacity="0"/></linearGradient><linearGradient id="New_Gradient_Swatch_copy_3" x1="623.73" y1="1091.58" x2="550.14" y2="819.99" gradientUnits="userSpaceOnUse"><stop offset="0" stop-color="#00afbb"/><stop offset="0.16" stop-color="#01abb7"/><stop offset="0.34" stop-color="#049dad"/><stop offset="0.53" stop-color="#09889b"/><stop offset="0.72" stop-color="#106981"/><stop offset="0.91" stop-color="#184261"/><stop offset="1" stop-color="#1d2d50"/></linearGradient><linearGradient id="New_Gradient_Swatch_copy_5" x1="628.68" y1="616.41" x2="616.84" y2="579.77" gradientUnits="userSpaceOnUse"><stop offset="0.08" stop-color="#780543"/><stop offset="0.12" stop-color="#810547"/><stop offset="0.25" stop-color="#a10353"/><stop offset="0.39" stop-color="#b9025d"/><stop offset="0.54" stop-color="#ca0164"/><stop offset="0.7" stop-color="#d50069"/><stop offset="0.88" stop-color="#d8006a"/></linearGradient><linearGradient id="New_Gradient_Swatch_copy_6" x1="26.17" y1="456.52" x2="-13.23" y2="409.42" gradientTransform="matrix(0.97, 0.26, -0.26, 0.97, 508.33, 111.15)" gradientUnits="userSpaceOnUse"><stop offset="0.3" stop-color="#fbb800" stop-opacity="0"/><stop offset="0.53" stop-color="#fbb800" stop-opacity="0.01"/><stop offset="0.62" stop-color="#fbb800" stop-opacity="0.03"/><stop offset="0.68" stop-color="#fbb800" stop-opacity="0.08"/><stop offset="0.73" stop-color="#fbb800" stop-opacity="0.15"/><stop offset="0.77" stop-color="#fbb800" stop-opacity="0.24"/><stop offset="0.81" stop-color="#fbb800" stop-opacity="0.35"/><stop offset="0.84" stop-color="#fbb800" stop-opacity="0.47"/><stop offset="0.87" stop-color="#fbb800" stop-opacity="0.62"/><stop offset="0.9" stop-color="#fbb800" stop-opacity="0.79"/><stop offset="0.92" stop-color="#fbb800" stop-opacity="0.98"/><stop offset="0.93" stop-color="#fbb800"/></linearGradient><linearGradient id="New_Gradient_Swatch_copy_6-2" x1="484.75" y1="581.18" x2="549.66" y2="520.76" gradientTransform="matrix(1, 0, 0, 1, 0, 0)" xlink:href="#New_Gradient_Swatch_copy_6"/><linearGradient id="New_Gradient_Swatch_copy_2" x1="346.54" y1="474.87" x2="422.65" y2="599.48" gradientUnits="userSpaceOnUse"><stop offset="0" stop-color="#00afbb"/><stop offset="0.35" stop-color="#00adb9"/><stop offset="0.51" stop-color="#02a5b3"/><stop offset="0.64" stop-color="#0599a9"/><stop offset="0.74" stop-color="#09869a"/><stop offset="0.84" stop-color="#0e6f86"/><stop offset="0.92" stop-color="#15526e"/><stop offset="0.99" stop-color="#1c3053"/><stop offset="1" stop-color="#1d2d50"/></linearGradient><linearGradient id="New_Gradient_Swatch_copy_9" x1="53.3" y1="882.99" x2="350.19" y2="813.07" gradientUnits="userSpaceOnUse"><stop offset="0.32" stop-color="#fff6d5"/><stop offset="0.39" stop-color="#fff6d5" stop-opacity="0.99"/><stop offset="0.43" stop-color="#fff6d5" stop-opacity="0.96"/><stop offset="0.46" stop-color="#fff6d5" stop-opacity="0.9"/><stop offset="0.49" stop-color="#fff6d5" stop-opacity="0.82"/><stop offset="0.52" stop-color="#fff6d5" stop-opacity="0.71"/><stop offset="0.55" stop-color="#fff6d5" stop-opacity="0.58"/><stop offset="0.57" stop-color="#fff6d5" stop-opacity="0.43"/><stop offset="0.6" stop-color="#fff6d5" stop-opacity="0.25"/><stop offset="0.62" stop-color="#fff6d5" stop-opacity="0.06"/><stop offset="0.62" stop-color="#fff6d5" stop-opacity="0"/></linearGradient><linearGradient id="New_Gradient_Swatch_copy_2-2" x1="247.57" y1="823.04" x2="250.42" y2="904.87" xlink:href="#New_Gradient_Swatch_copy_2"/><linearGradient id="New_Gradient_Swatch_copy_4" x1="178.88" y1="865.79" x2="282.91" y2="964.74" gradientUnits="userSpaceOnUse"><stop offset="0.13" stop-color="#e84b0f"/><stop offset="0.46" stop-color="#e64a0f"/><stop offset="0.6" stop-color="#df490e"/><stop offset="0.71" stop-color="#d2450e"/><stop offset="0.8" stop-color="#c1410c"/><stop offset="0.87" stop-color="#a93b0b"/><stop offset="0.94" stop-color="#8d3409"/><stop offset="1" stop-color="#6e2c07"/></linearGradient><clipPath id="clip-path"><polygon class="cls-1" points="286.79 888.31 264.34 716.28 709.76 549.35 732.21 721.38 286.79 888.31"/></clipPath></defs><title>b2g</title><g class="cls-2"><g id="Summer_Poster_1" data-name="Summer Poster 1"><g id="Background_shape" data-name="Background shape"><g class="cls-3"><path class="cls-4" d="M613.55,87.11a2.54,2.54,0,0,1-.81-5l3-1a2.53,2.53,0,1,1,1.6,4.81l-3,1A2.53,2.53,0,0,1,613.55,87.11Z"/><path class="cls-4" d="M593.08,93.93a2.54,2.54,0,0,1-.81-4.94l10.82-3.61a2.54,2.54,0,1,1,1.61,4.81L593.88,93.8A2.53,2.53,0,0,1,593.08,93.93Z"/><path class="cls-4" d="M555.62,210.16a2.51,2.51,0,0,1-2-1l-64.28-82.31a2.53,2.53,0,0,1,1.2-4L581,92.74a2.53,2.53,0,1,1,1.6,4.81l-87.08,29,62.07,79.48a2.54,2.54,0,0,1-.44,3.56A2.57,2.57,0,0,1,555.62,210.16Z"/><path class="cls-4" d="M180.12,1256.59a2.54,2.54,0,0,1-2.16-3.88l2.61-4.18a2.53,2.53,0,0,1,4.3,2.68l-2.6,4.18A2.54,2.54,0,0,1,180.12,1256.59Z"/><path class="cls-4" d="M190.24,1240.32a2.54,2.54,0,0,1-2.16-3.88l9.8-15.75a2.54,2.54,0,0,1,4.31,2.68l-9.8,15.75A2.52,2.52,0,0,1,190.24,1240.32Z"/><path class="cls-4" d="M207.88,1212a2.53,2.53,0,0,1-2.15-3.87l18.63-30a2.54,2.54,0,0,1,4.31,2.68l-18.63,30A2.56,2.56,0,0,1,207.88,1212Z"/><path class="cls-4" d="M235.28,1167.9a2.54,2.54,0,0,1-2.16-3.88L346.57,981.63l-99,36.87a2.54,2.54,0,0,1-2.34-.29L117.77,929.12a2.53,2.53,0,1,1,2.91-4.15L247,1013.29l104.75-39a2.54,2.54,0,0,1,2.85.77,2.56,2.56,0,0,1,.19,3L237.43,1166.7A2.52,2.52,0,0,1,235.28,1167.9Z"/><path class="cls-4" d="M175.77,1060.05a2.53,2.53,0,0,1-1.36-.4,70.22,70.22,0,0,1-16.13-104.53,2.54,2.54,0,1,1,3.88,3.27,65.14,65.14,0,0,0,15,97,2.53,2.53,0,0,1,.79,3.5A2.56,2.56,0,0,1,175.77,1060.05Z"/><path class="cls-4" d="M198.36,1069.17a2.22,2.22,0,0,1-.51-.06,69.42,69.42,0,0,1-13.36-4.16,2.54,2.54,0,1,1,2-4.67,64.49,64.49,0,0,0,12.39,3.86,2.54,2.54,0,0,1-.51,5Z"/><path class="cls-4" d="M212,1070.54c-1.08,0-2.15,0-3.22-.08a2.54,2.54,0,1,1,.23-5.07c1,0,2,.07,3,.07a2.54,2.54,0,1,1,0,5.08Z"/><path class="cls-4" d="M194.45,1052.64a2.54,2.54,0,0,1-.85-.15A55.28,55.28,0,0,1,170.32,964a2.54,2.54,0,0,1,3.82,3.34,50.21,50.21,0,0,0,21.15,80.36,2.54,2.54,0,0,1-.84,4.94Z"/><path class="cls-4" d="M110.2,833.73a2.54,2.54,0,0,1-2.26-3.69L264.79,522.51l-68.73-28.38a2.54,2.54,0,0,1-.05-4.67l110.3-48.38L467.66,124.72a2.53,2.53,0,0,1,4.23-.44L942.11,710.36a2.54,2.54,0,0,1-1.62,4.1L110.57,833.71A2.3,2.3,0,0,1,110.2,833.73Zm93.31-342,65.75,27.16a2.5,2.5,0,0,1,1.41,1.46,2.54,2.54,0,0,1-.11,2L114.69,828,935.37,710.07l-465-579.55-160,313.67a2.48,2.48,0,0,1-1.24,1.17Z"/><path class="cls-4" d="M885.16,809.21a2.54,2.54,0,0,1-2.19-3.82l55-94.71a2.54,2.54,0,1,1,4.39,2.54l-55,94.72A2.54,2.54,0,0,1,885.16,809.21Z"/><path class="cls-4" d="M249.47,485.86a2.53,2.53,0,0,1-1-4.85L377,424.06A2.54,2.54,0,1,1,379,428.7L250.49,485.65A2.62,2.62,0,0,1,249.47,485.86Z"/><path class="cls-4" d="M286.68,482.48a2.54,2.54,0,0,1-1-4.86L414.2,420.68a2.54,2.54,0,1,1,2.05,4.64L287.71,482.26A2.55,2.55,0,0,1,286.68,482.48Z"/><path class="cls-4" d="M144.31,799.06a2.5,2.5,0,0,1-1.17-.29,2.53,2.53,0,0,1-1.07-3.42l54.12-104a2.54,2.54,0,0,1,4.5,2.34l-54.12,104A2.55,2.55,0,0,1,144.31,799.06Z"/><path class="cls-4" d="M818.92,1138.19a2.54,2.54,0,0,1-2-.93L716.59,1014.63a2.53,2.53,0,0,1,.32-3.53L839.39,906l-62.09-37.1a2.53,2.53,0,0,1,2.6-4.35L845,903.44a2.54,2.54,0,0,1,.36,4.1l-123.29,105.8,98.79,120.71a2.53,2.53,0,0,1-2,4.14Z"/><path class="cls-4" d="M830.19,918.59a2.58,2.58,0,0,1-1.3-.36L779.7,888.84a2.53,2.53,0,1,1,2.6-4.35l49.19,29.38a2.54,2.54,0,0,1-1.3,4.72Z"/></g></g><g id="Light_edges" data-name="Light edges"><polygon class="cls-5" points="528.79 1412.2 196.48 1277.41 231.32 1218.27 528.79 1412.2"/><polygon class="cls-6" points="260.04 1303.19 196.48 1277.41 343.71 1027.59 260.04 1303.19"/><polygon class="cls-7" points="143.83 88.96 275.72 316.16 229.01 334.75 143.83 88.96"/><polygon class="cls-8" points="250.5 272.7 275.72 316.16 78.35 394.7 250.5 272.7"/></g><g id="Flames"><path class="cls-9" d="M345.14,1268.24c.7-3.65,3.52-7.14,6.27-10.35-2.81-.27-4.52,3.6-7.15,4-2.44,2.69-5.38,4.87-6.82,8.24-2.83,6.61,2.62,12.66,4.29,18a1,1,0,0,1,.52-.46c1.68-3.51,3-6,3.53-9.14C346.41,1274.89,344.55,1271.32,345.14,1268.24ZM325.26,1175c-1,1.17-1,2.75-1.64,4.14-4.58,9.3-14.36,10.21-19.62,18.88-3.31,5.48-4.18,11.84-1.67,17.34l.57.33c.1-.24.35-.52.14-.68,1.12-6.58,7.28-13.52,11.91-17,3.37-2.53,6.66-4.4,9-8C326.61,1185.84,329.47,1177.9,325.26,1175Zm72.57,12.14c-6.34,6.78-10.67,15.56-12,22.8-.62,3.43-.54,6.85-1.41,9.87-2.16,7.47-6.52,14.28-11.39,21.36-.05.12-.1.25.08.3-.05.13-.1.24.08.3a71.1,71.1,0,0,0,15.34-12c1.15-1.19,2.44-2.53,3.49-3.82,9.26-11.45,9.61-22.94,8.14-32.41C399.83,1191.39,399.4,1188.74,397.83,1187.18Zm10.46-22.41c6.15-5.36,8.32-13.43,8.51-19.47-3.77,4.24-6.65,8-10.82,10.75-7.55,5-17.18,5.76-23.48,14.6-7.86,11-5.57,20-3.56,28.46.24.15.12.39.46.52l.33-.58c0-5.18,2.21-11.11,5.52-15.62C391.12,1175.41,401.4,1170.8,408.29,1164.77Zm-6.16-197.39c4.21-1,10-2.16,14.51-.48,6.87,2.54,8.36,12.11,3.36,18.74-6.37,8.46-16.17,10-24.32,13.86-6.3,3-13.09,5.36-19.63,9.7-6.06,4-13.09,10.17-17.53,17a108.33,108.33,0,0,0-9.57,19.11c-.71,1.88-2.1,3.9-1.46,6,11.68-16.71,25.26-27.57,39.88-34.07,4.41-2,11.41-5.17,15.73-2.56,3.17,1.91,3.27,5.47,2,8-2.4,4.67-9.56,7.49-13.7,9.59-15,7.59-28.1,14.55-40,33.46-8,12.66-15.36,25.53-17.81,37.23a105.42,105.42,0,0,0-2.11,29c.09,1.25-.15,3.22.88,3.31a136.24,136.24,0,0,1,17.24-47.22c4.66-7.82,10.24-15.35,16.08-20.68s12.22-10.14,18.34-12.74c1.93-.82,5.47-1.64,7.46-1,8,2.54,4.63,12.27,2.4,18.18-6.37,17-21.86,25.45-31.48,35.38,4.18-.54,7.76-2.81,11.33-4.61a113.65,113.65,0,0,0,10.92-6.12c7.14-4.62,13.64-10.35,20.69-17.23s13.56-13.78,19.34-22.34a146.53,146.53,0,0,0,8.86-13.93c2.42-4.68,3.91-9.68,6.32-14.4,3.42-6.69,7.49-11.59,12.16-14.8,2.88-2,6.56-4,9.71-4,7.24-.07,12.74,6.81,12.22,12.69-.67,7.61-6.82,16.07-12,22-3.09,3.52-6.63,5.58-10,7.94a84.83,84.83,0,0,0-19.12,18.92c-6.39,8.58-10.37,18.6-12.74,27.19a88.11,88.11,0,0,0-3.16,22.07c0,.65-.57,1.92.45,2.3,3.42-9.76,8.34-21.94,15.45-32.74,6.72-10.19,15.31-18.88,24.46-17.59,9,1.27,9.33,10.25,5.94,16.93-4,7.9-10.49,14.44-16.11,21.17A83.58,83.58,0,0,0,432.79,1134c-6.36,16.22-10.58,31.75-5.78,45,1.66,4.55,4.28,9.09,7.11,14,.19-4-1.26-8.14-1.38-12.5s-.54-8.92.15-13.4a62.8,62.8,0,0,1,10.1-24.4c5.7-8.09,17.71-15.49,26.2-6.15,3.68,4,4.15,9.73,4.78,15,1.26,10.6-1.24,22.52-5.48,34-6.16,16.64-16.83,32.34-26.82,47.5-.06.13-.1.24.08.3,17.87-11.06,35-33.54,44.25-58.23,2.9-7.74,5.51-15,6.92-22.43,2.82-14.74,2.7-28.33,3.63-42.15.87-13,.12-28.78,8.74-43.51,6.26-10.72,17.87-20.07,27.61-16a12.33,12.33,0,0,1,6.31,6.21c4.19,8.58-.06,22.77-6.05,33.62-3.67,6.66-8.52,12.3-12.45,17.94a85.05,85.05,0,0,0-10.1,19.58c-4.45,11.93-5.44,25.16-3,35.39,1,4,2.8,7.31,4,11,1.17,3.47,2.07,7.11,4.65,10.84.39-3-1.14-6.32-1.39-9.45-.47-6,.92-13.48,2.61-21.12s3.13-15.25,6.81-22.25c4.13-7.84,9.67-14.6,15.62-18.13,4.46-2.65,12.34-1.87,15.56,3.43,6.61,10.88-2.88,26-11,40.9,8.95-6.63,16.54-15.69,23.15-25,8-11.3,11.32-22.49,13.3-33,2-10.83.63-19.66-2.42-29.12-2.91-9-7-18.28-8.73-27.45-2.42-12.83-.16-27.94,8.22-43.06,5.64-10.17,17.76-23.1,18.6-34.21.18-2.37-1.42-4.51-.58-6.44,1.84,1.4,2.51,4,3.37,6,3.1,7.42,2.54,16.37-1.3,25.45-2.8,6.61-6.22,13.25-7.37,20.13a46.93,46.93,0,0,0,.55,17.88c1.16,5.53,2.68,11.15,7.06,16.31-1.24-9-2-18,.55-27.66,2.85-10.88,9.32-21.6,17-32.84,2.84-4.13,6.44-7.79,9.22-11.94,9.32-13.86,11-26.41,10.14-37.6a40.2,40.2,0,0,0-4.9-16.08c-2-3.84-3.24-7.77-5.79-11.49-.51-.76-2.67-3-2-4,.95-1.44,3,1.39,4.37,2.55,2.25,1.89,3.78,2.84,5.26,4.07a34.66,34.66,0,0,1,7.52,9c7.37,13.24,6,26.95,16.48,39.07,4.72,5.47,13.47,12.65,21.17,11.28-7.09-6.88-7.66-15.76-8.64-24.1-.41-3.52-.61-7-1.13-10.32-.55-3.56-1.59-6.85-2.22-10.19-1.22-6.53-5.08-12.86-8.76-19.08-1.78-3-4.61-5.74-7.44-8.64s-5.39-6.07-8.83-8.44c-2-1.35-4.25-2.06-5.38-3.88.68-1.43,2.65-.84,4.1-.93a34,34,0,0,1,4.75-.29c11.17,1,25.55,9.77,30,18.93-1.12-19.75-11-37.28-24.17-54.74-26.05-34.57-84.69-49.51-149.26-22.85,5.7,1.79,13.59,4.48,19.89,8.24,1.81,1.09,4.27,2.75,4,4.89-2.23-.09-4.27-1-6.5-1.49a109.69,109.69,0,0,0-31.09-2.54c-12.91.88-23.06,5.34-32.58,16.69A72.65,72.65,0,0,1,481,846.55c11.19-.13,23.59,1.44,36.17,7.79,2.11,1.06,5,2.12,5.27,4.07-2.59.7-5-.38-7.56-.57-18.06-1.36-35.35,4.44-49.49,16-5,4.12-9.27,9.15-13.83,14.61s-8.21,12.14-13,18.4a67.24,67.24,0,0,1-26.82,20.79c-1.17.5-3,.27-3.56,1.75,13.64,3.91,23.47,3.09,35-1.55,10.47-4.23,20.42-14.25,31.66-14.68a44.68,44.68,0,0,1,6.38.4c1.95.24,4.73.19,6.18,2.07-2.19,1.86-4.88,2.23-7.31,3.38-7.52,3.58-13,12.08-19.69,18.58-8.77,8.57-18.32,11-29.58,12.83-5.35.87-10.75.88-15.89,2a61.72,61.72,0,0,0-29,14.94c-4.34,3.88-9,8.5-12.06,14.62C382.17,976.15,392.05,969.8,402.13,967.38Zm94.87,254c-11.77,5.43-17.68,21.87-13.49,32.86l.57.33c.23-.23.41-.19.33-.57,1.13-6.62,7.44-11.9,12.3-15.49,3.73-2.75,8-5.16,11.47-8.35,8.26-7.68,12.4-18.17,11.67-27.56C514.92,1213.59,504.79,1217.78,497,1221.38Zm-87.32-126c-12.45,15.2-32.61,16.17-43,35.54-3.87,7.21-4.5,13.54-4.5,20,.23.14.12.39.46.51.15-.23.39-.12.52-.46a38.9,38.9,0,0,1,5.88-10.57c4.79-5.86,10.69-10.48,16.4-14.64s12.48-7,16.86-12.84a47.18,47.18,0,0,0,5.26-9.92C408.57,1100.48,410.09,1097.76,409.68,1095.38Zm178.18,100.94c1-.82,1.4-2.5,2.21-3.81,3.48-5.63,9.78-9.39,13-14.06,3.89-5.66,5.82-11.91,4.78-16.55-.24-1.1-.67-2.87-1.4-2.85a26.18,26.18,0,0,1-3.58,8.35c-2.76,4-7,5.4-10,8.93a23,23,0,0,0-5.46,19.47C587.64,1196,587.52,1196.19,587.86,1196.32Zm25.3-122.4a35.12,35.12,0,0,1-3.41,15.06c-3.09,6.77-9.26,11.52-13.14,19.58-5.82,12.07-3.34,23.53,2.79,32.4.16-.21.6-.23.34-.57.82-10.65,13-23.57,17.31-34.2a40.53,40.53,0,0,0,2.67-14.22c.21-9.33-1.14-16.91-7.55-24.22C612.14,1069.92,613.14,1071.75,613.16,1073.92ZM341.48,955.3c-1.32,1.06-3.6,2.47-.94,2.5s5.55.4,8.18-.08a27,27,0,0,0,12.43-6.51c6.35-6,10.54-14,16.86-19a22.77,22.77,0,0,1,6.63-3.52c3-1,6.36-.69,9.78-2-7.6-5.57-16.37-4.26-23.34-1.86a30.41,30.41,0,0,0-15.45,12.14c-2.09,3.43-3.48,7.37-6,10.77C347.79,950.32,344,953.29,341.48,955.3Z"/></g><g id="Splash"><path class="cls-9" d="M273.06,245.13c-4-.2-8.28,5.32-7.86,9.61.94,9.74,28.54,25.16,33.45,13.32.74-1.78.54-5.39-2-6.35-1.47-.57-2.79,3.48-4,3.51C280.84,265.56,284.73,245.72,273.06,245.13ZM324,300.81c.56,6.4,13.42,9.38,12.89,2.65C336.48,298.72,323.22,292.17,324,300.81Zm86.4-60.69c2.26-2,.25-7.11-.1-7.8-2.3-4.5-8.72-8.57-10.41-13.82-2-6.18.45-13.53-.31-19.75-1.06-8.82-5.74-20.07-18.07-25.47-3.67-1.6-9.35-1.76-11.51.95-7.25,9.06,11.38,20,15.46,27.46,3,5.47,3.13,15.18,5.89,21C392.94,226.08,404.83,245,410.37,240.12Zm-47.5-67.63c7.55-6-7.75-14.06-9.32-5.41C352.83,171,359.43,175.24,362.87,172.49Zm4.4,207c-2.61,9.94,18.57,1.81,9.64-3C374.83,375.29,368.16,376.08,367.27,379.44Zm72.86,45.39c-1.35.8-3.92.44-4.66,1.62-2.91,4.65,10.21,9.07,11,1.95.35-2.91-1.81-6.06-4.61-5.85C441,422.61,441,424.33,440.13,424.83Zm24,18.27c-5.07,9.25,21.3,19,21.85,6.47.15-3.19-5.28-3.77-8.59-5.86-2.09-1.33-3.26-3.59-5.13-4.14C469.81,438.86,465.26,441,464.1,443.1ZM590.83,280c-3.37,6,9,11,12.91,7.67C611.18,281.23,594.14,274.14,590.83,280Zm44.52-29.86c-1-3.57-7.24-4.32-9.14-2.11C621.18,253.89,637.84,258.81,635.35,250.13Zm50.58,193c10-44.66-23.17-95.31-26.53-102.26-2-4.2-6.3-11.32-11.3-15.29-2.85-2.26-5.89-3.71-7.63-1.61-4.71,5.7,9.49,11.89,6.44,17.24-1.67,2.93-7.68,2.2-11.78-1.51-6.48-5.85-3-15.45-3.73-23.72-.58-6.72-2.15-12.86-6.76-17.44s-11.33-8.36-14.19-3.47c-2.68,4.59,5.87,7.79.45,13-3.29,3.18-7.13-6.74-9.62-4.23-4.51,4.54,6.48,8.62,1.88,14.37-2,2.51-7.21,1.93-10.69-.36-7.6-5-13-20.24-21.3-26.14-6-4.25-10.95,1.82-14.44-.9-2.63-2.05.08-7.27-3.36-9.84-5.13-3.85-8.45,3.06-12.89,1-4.05-2.39-7.05-7.28-11.36-9.42-7.74-3.84-21.33.37-21.12,9,.15,6.21,17.39,2.81,18,10.42.31,3.8-5.36,7.21-8.38,6.1-3.54-1.31-6.48-7.78-10.26-8.28-3.06-.39-5.66,3.93-8.37,2.47-4.81-2.61-.75-9-4.81-12.58a8.41,8.41,0,0,0-12.58,1.18c-4.24,6.2-.8,14.72,5.3,18.34,6.62,3.94,15.31-.47,19.73,3.32,2.27,1.94,3.92,10-1.86,10.2-4.09.14-7-5.65-10-2.19-1.75,2-1.39,5.88.11,7.79,9.06,11.6,28.23-7,38.83,2.61,3.09,2.81,2.77,10.49-1.47,13.17-4.07,2.57-11.5-5.41-13.79-.49-1.14,2.46,3.32,4.29,5,7.24,1.85,3.23,1.66,7.61-2.44,12.55-4.37,5.26-16.83,11.56-23.94,7.68-6-3.25-4.89-14.91-10.88-15.94a5.67,5.67,0,0,0-4.95,2.8c-3.17,5.21,5,10.22,1.59,15.55-3,4.67-12.18,3.4-16-.54-5.91-6,4-13.3,7.33-21.76,4.07-10.44-21-8.7-21.41-18-.13-3.08,2-6,3.7-9.49.88-1.78,3.12-3.61.71-5.47-3.2-2.47-7.29,2.58-10.77.5-7.85-4.7.9-18.05,2.44-24.84,1.89-8.32.08-21.58-4.81-28.49-3-4.21-8.44-8.32-13.65-7.23-10.63,2.23-.33,14.84-2.7,18.76-3.92,6.47-8.74-2.06-9.54-5.08-1.37-5.21-5-16.9-9.46-15.53-4.88,1.5-1.27,10.49-4.48,13.12-2.94,2.39-6.56-2.81-8.71-6.39-2.64-4.38-4.33-7.15-5.93-10.1-4.06-7.46-7.2-15.61-10.47-20.23-4.71-6.66-18.65-10.12-22.3-3.57-4.25,7.6,11.41,13.06,7.45,19.24-2.08,3.22-8.13,1.18-10.52-2.07-2-2.68-1.34-7.7-4.05-11.65-2.51-3.65-7.7-5.34-8.13-8.75.65-4,5.29-5.54,6.14-9.78.81-4-3.82-10.47-8.41-11.2-2.43-.38-5.54,3.71-8.66,3.65-5.75-.12-8.7-8-14.28-11.27-4.45-2.59-12.57-2.24-16,.85-3.25,2.93-5.48,9.17-2.53,13.42,4.19,6,11,2.1,16.46,8.53,1.25,1.48.06,4.55-2.18,6.36-2.44,2-7.44-2.09-9.15,1.53-.76,1.61,2.28,6.54,4.38,8.21,3.06,2.43,7.05,3,10.6,4.85,10.09,5.33,17.61,15.59,9.89,22.59-4.9,4.44-16.79,1.74-19.41,9.16-1.68,4.76,3.57,12,8.89,13.33,2.26.55,6.61.21,8.62-1.4,2.72-2.19,3.74-5.86,5.69-6.88,5.93-3.1,16.82,6.81,13.18,13.75-1.83,3.47-8.16,4.86-9.58,9.44-1.1,3.56,3.73,6.39,6.66,9.64,3.8,4.21,7.6,9.43,2.85,15-6.61,7.75-30.81-7.38-23.65,10.14,3.11,7.59,22.77,11.71,19.85,19.76-1.34,3.71-7.3,3.21-6.1,7.53,1.13,4.05,6.69,3.07,9.86,5.29,4.54,3.19,7.06,11.21,13.84,10.53,7.26-.73,10.9-11.31,19-8.51,10.17,3.52,13.36,14.12,8.73,27.32-4.57,13,19.11,16,29.79,11.92,5.6-2.12,10.38-5.85,15.56-5.22,5,.62,12.49,6.45,9.8,11.17-2,3.56-2,6.13,1.62,4.66a6.46,6.46,0,0,1,7.86,2.67c1.67,2.64-4.2,6.15-2.35,8.08,4.51,4.66,8.89-3.42,12.87-6,9-5.81,23.22-6.63,33.83-1,8.91,4.72,14.81,13.8,16.34,20.28.4,1.69.86,5.2-.23,7.59-4.17,9.18-15.81,3.36-20.22,10.47-5.82,9.36,17,12.2,11.73,19.66-1.28,1.81-5.49-.74-6.17,1.12-1.66,5.76,9.65,8.75,6.13,13.4-6.78,8.94-17.8-10.19-23.11-5.4-9.85,8.89.15,18.66,9.26,27C553.64,567.33,669.51,516.59,685.93,443.12ZM571,236c-.46-3.16-7.28-3.75-7.8.21C562.75,239.92,571.88,241.76,571,236Zm-69.59,11.87a11.62,11.62,0,0,0-.31-3.84c-2.82-8.7-24-8.84-20.76-17.61,4.5-12.25-12.16-14.39-14.79-6.12-1.15,3.6,5.26,7.72,5.6,9.89.63,4.13-3.41,7-4.61,11.66C462.12,259.24,499,269.26,501.45,247.86Zm-29.21-42.48c6.68-5.59-4.51-11.72-7.56-7.49S467.92,209,472.24,205.38Z"/></g><g id="Central_composition" data-name="Central composition"><polygon class="cls-10" points="529.48 504.9 746.47 420.18 792.42 436.53 568.02 581.99 529.48 504.9"/><polygon class="cls-11" points="776.98 574.34 895.59 587.8 762.61 702.58 776.98 574.34"/><path class="cls-12" d="M529.47,504.91l14.11,28.21C604.24,541,672.87,499,685.74,443.89Z"/><polygon class="cls-13" points="154.18 630.48 207.18 651.9 496.98 439.91 154.18 630.48"/><polygon class="cls-14" points="436.17 908.73 731.52 980.04 621.02 828.94 436.17 908.73"/><path class="cls-15" d="M668.73,946.71c-.41-3.52-.61-7-1.13-10.32-.55-3.56-1.59-6.85-2.22-10.19-1.22-6.53-5.08-12.86-8.76-19.08-1.78-3-4.61-5.74-7.44-8.64s-5.39-6.07-8.83-8.44c-2-1.35-4.25-2.06-5.38-3.88.68-1.43,2.65-.84,4.1-.93a34,34,0,0,1,4.75-.29c11.17,1,25.55,9.77,30,18.93-.06-1.06-.16-2.11-.27-3.15L621,828.94l-183.5,79.21c-.2.26-.4.51-.61.76l28.17,6.8a26.23,26.23,0,0,1,9.72-2.53,44.68,44.68,0,0,1,6.38.4c1.95.24,4.73.19,6.18,2.07-2.19,1.86-4.88,2.23-7.31,3.38l-.38.21,153.81,37.13a56.3,56.3,0,0,0,1.79-19.93,40.2,40.2,0,0,0-4.9-16.08c-2-3.84-3.24-7.77-5.79-11.49-.51-.76-2.67-3-2-4,.95-1.44,3,1.39,4.37,2.55,2.25,1.89,3.78,2.84,5.26,4.07a34.66,34.66,0,0,1,7.52,9c7.37,13.24,6,26.95,16.48,39.07.84,1,1.81,2,2.87,3l14.55,3.51C670,960.09,669.5,953.24,668.73,946.71Z"/><polygon class="cls-16" points="207.18 651.9 496.98 439.91 568.02 581.99 792.42 436.53 731.52 980.04 621.02 828.94 257.92 985.68 207.18 651.9"/><polygon class="cls-17" points="540.96 633.86 707.28 570.72 547.16 615.26 540.96 633.86"/><polygon class="cls-18" points="336.86 901.67 780.29 747.47 789.6 726.33 336.86 901.67"/><g id="Yellow_edge" data-name="Yellow edge"><polygon class="cls-19" points="312.4 590.32 490.07 464.42 508.93 501.58 312.4 590.32"/><polygon class="cls-20" points="456.09 488.5 490.07 464.42 569.71 621.46 456.09 488.5"/></g><polygon class="cls-21" points="396.34 597.78 454.69 574.1 310.36 493.48 396.34 597.78"/><polygon class="cls-22" points="118.1 890.39 227.4 784.9 244.16 895.12 118.1 890.39"/><polygon class="cls-23" points="298.52 897.16 206.9 829.5 202.67 922.53 298.52 897.16"/><polygon class="cls-24" points="118.1 890.39 298.52 897.16 257.92 985.68 118.1 890.39"/><g id="Text_1" data-name="Text 1"><g class="cls-2"><g class="cls-25"><path class="cls-26" d="M305.42,766.52l-1.75-13.39,2.42-.9,1.68-.63,1.69-.63q5.35-2,6.17,4.24c.58,4.39-.73,7.37-3.9,8.95l-1.47.55-1.16.43-3.68,1.38m-3.74-28.61-1.76-13.48,2.53-.95c5-1.86,7.74-.74,8.28,3.39.06.51.1,1.37.11,2.59q0,5-6.32,7.38l-2.84,1.07M307,703.4l-37.33,14,10.22,78.32,44.79-16.79A26,26,0,0,0,337,769a28.23,28.23,0,0,0,5.27-15.44,8.65,8.65,0,0,1,0-1.54,14.27,14.27,0,0,0-.14-2.86q-.85-6.52-4.86-10.1a13.32,13.32,0,0,0-9.7-3.38l-2.27.39,1.39-1.2q7.62-6.74,7.32-17.46a22.24,22.24,0,0,0-.23-2.55q-1.2-9.24-8.3-12.45t-18.44,1"/><path class="cls-26" d="M367.73,702.29l-22.22,24.08L351.07,769l25.77-9.66-2.58-19.79a37.08,37.08,0,0,1-.33-5.87A10.35,10.35,0,0,1,376,728a11,11,0,0,1,5.26-4.08,8.13,8.13,0,0,1,3.06-.64,11.52,11.52,0,0,1,2.53.36,8.4,8.4,0,0,1,2,.75l4.8-28.27a15.17,15.17,0,0,0-2.92.07l-2.44.34a10.44,10.44,0,0,0-2.25.5l-2,.75A28.6,28.6,0,0,0,370,709.24l-1.11,1.67-1.13-8.62"/><path class="cls-26" d="M429,718.39a3.16,3.16,0,0,1-.76.17,3.85,3.85,0,0,1-3.81-.91,7.66,7.66,0,0,1-1.87-4.6l-.18-1.42q0-6.84,4.93-8.69a5.66,5.66,0,0,1,1.17-.33,4.41,4.41,0,0,1,3.72,1.06,7.14,7.14,0,0,1,1.84,4.38,11.14,11.14,0,0,1-.86,6.54,6.91,6.91,0,0,1-3.77,3.65l-.41.15m-13-32.78q-9.88,3.71-15.53,14.49a39.55,39.55,0,0,0-3.92,24.06q1.73,13.27,9.55,18.32,7.24,4.71,17.23,1a29.51,29.51,0,0,0,9.22-5.4,25.39,25.39,0,0,0,6.05-7.75l.74,5.66,24.29-9.1L456.43,672l-24.29,9.1.67,5.11a16.18,16.18,0,0,0-5.77-1.94,19.6,19.6,0,0,0-6.07,0,28.46,28.46,0,0,0-5,1.31"/><path class="cls-26" d="M500.23,691.56a5.68,5.68,0,0,1-1.38.4q-4,.6-5.32-4.39l-.2-1.52-.17-1.31q-.06-6.57,4.52-8.29a8.81,8.81,0,0,1,1.2-.35,4.27,4.27,0,0,1,4,1.34,9.25,9.25,0,0,1,2,5.07,9.08,9.08,0,0,1-.9,5.82,7.16,7.16,0,0,1-3.77,3.23m-13.81-58.51-23.92,24.6L471.16,724,495.35,715l-.71-5.44a9.82,9.82,0,0,0,5.28,2.41,22.35,22.35,0,0,0,8.09-.47,24,24,0,0,0,3.83-1.08q10.2-3.82,15.68-14.27t3.65-24.36q-1.67-12.82-9.6-18-7.44-4.85-17.52-1.07a22.85,22.85,0,0,0-6.3,3.55,33.62,33.62,0,0,0-5.56,5.79l-1,1.16-.74,1.07-4.07-31.24"/><path class="cls-26" d="M570,665.55a3,3,0,0,1-.75.16,3.85,3.85,0,0,1-3.81-.91,7.66,7.66,0,0,1-1.87-4.6l-.18-1.42q0-6.84,4.92-8.69a5.89,5.89,0,0,1,1.18-.33,4.44,4.44,0,0,1,3.72,1.06,7.14,7.14,0,0,1,1.84,4.39,11.25,11.25,0,0,1-.86,6.54,6.92,6.92,0,0,1-3.77,3.64l-.42.16m-13-32.79q-9.88,3.72-15.54,14.49a39.55,39.55,0,0,0-3.91,24.06q1.72,13.28,9.55,18.32,7.24,4.73,17.22,1a29.56,29.56,0,0,0,9.23-5.4,25.35,25.35,0,0,0,6.05-7.74l.73,5.66L604.6,674l-7.16-54.82-24.29,9.11.67,5.11a16.19,16.19,0,0,0-5.77-1.95,19.6,19.6,0,0,0-6.07,0,28.46,28.46,0,0,0-5,1.31"/><path class="cls-26" d="M628.81,604.33l-22.24,24,5.8,42.78,25.77-9.66L634.56,634q-.84-6.53,3-8c2.56-.95,4.06.31,4.52,3.79l3.74,28.71,25.77-9.65-4.75-36.44q-1.26-9.57-6.84-13t-14.62-.06a31.39,31.39,0,0,0-9.54,5.46,24.22,24.22,0,0,0-6,7.54l-1.05-8.07"/><polyline class="cls-26" points="697.59 554.94 668.24 614 677.81 610.41 682.3 644.89 708.07 635.23 703.57 600.76 709.04 598.71 713.21 575.8 700.91 580.41 697.59 554.94"/><path class="cls-26" d="M319.49,789.81l-2.53.94a42.52,42.52,0,0,0-5.83,2.64,45.94,45.94,0,0,0-16.68,15.44,42.35,42.35,0,0,0-6.69,20.93,32.06,32.06,0,0,0,.16,6.33l26.6-10,0-1c.08-5.61,2-9.12,5.67-10.5a7.86,7.86,0,0,1,.86-.28,4.59,4.59,0,0,1,6,4.16,8.42,8.42,0,0,1-.31,3.54,41.61,41.61,0,0,1-3.58,8.07q-3.73,6.88-10.69,17.82-3.48,5.42-8.2,12.37t-11.88,17.17l-5.87,8.25,67.72-25.38,3.16-24.8-20.61,7.72L338,842l1-1.3,2.4-2.73c.83-.92,1.76-2,2.78-3.21a44.82,44.82,0,0,0,3.18-4.38,38.29,38.29,0,0,0,5.61-12,30.75,30.75,0,0,0,.79-11.65,21.76,21.76,0,0,0-5.72-12.52,20.41,20.41,0,0,0-12.59-6.07,40.58,40.58,0,0,0-12.47.79,23.26,23.26,0,0,0-3.52.88"/><path class="cls-26" d="M430.17,748a55.81,55.81,0,0,0-24.7,18.22,53.92,53.92,0,0,0-11.67,27.63,47.23,47.23,0,0,0-.32,6,45.2,45.2,0,0,0,.37,5.41q1.93,14.79,12.73,22.35t26.82,4.29a48.48,48.48,0,0,0,7.76-2.23q2.41-.9,4.86-2a41.25,41.25,0,0,0,4.27-2.3,57.46,57.46,0,0,0,19-18.48,53.63,53.63,0,0,0,8.12-24.36,44.77,44.77,0,0,0-.19-9.1c-.19-1.45-.42-2.84-.71-4.14a21.8,21.8,0,0,0-.76-2.87l-41.32,15.49,2.15,17.33,11.88-4.45a13.14,13.14,0,0,1-3.63,7.64,11.34,11.34,0,0,1-2.65,2.07,28.51,28.51,0,0,1-3.91,1.75q-6,1.66-10.2-1.2-4.59-3.06-5.53-10.25l-.17-1.31c-.07-.57-.14-1.38-.2-2.42a21,21,0,0,1,3.42-11.79,17.51,17.51,0,0,1,8.45-7,13.81,13.81,0,0,1,6.3-.82,8.6,8.6,0,0,1,5.54,2.77l23.74-19.24a27.26,27.26,0,0,0-13.66-8.8,38.06,38.06,0,0,0-18.29-.25,46.79,46.79,0,0,0-7.55,2.14"/><path class="cls-26" d="M515.2,779.2a4.16,4.16,0,0,1-3.89-.25c-1.45-1-2.33-2.66-2.65-5.06a10.1,10.1,0,0,1,1.16-6.36,6.45,6.45,0,0,1,3.45-3.12,4.14,4.14,0,0,1,4.09.52q1.89,1.35,2.34,4.83a9.73,9.73,0,0,1-.91,6.1,6.87,6.87,0,0,1-3.59,3.34m-4.84-37.09a38.87,38.87,0,0,0-19.63,16.52q-7.43,12-5.83,24.23t11.27,17.87q9.65,5.49,21.95.88t19.77-16.75a39.08,39.08,0,0,0,5-12,33.56,33.56,0,0,0,.62-11.74,24.9,24.9,0,0,0-6.87-14.62,21.14,21.14,0,0,0-14.6-6.26,27.9,27.9,0,0,0-11.67,1.87"/></g></g></g></g><g id="Frontal_shape" data-name="Frontal shape"><path class="cls-26" d="M200.21,451.47a2.53,2.53,0,0,1-1.06-4.84l150.73-68.79a2.54,2.54,0,1,1,2.1,4.62L201.26,451.24A2.46,2.46,0,0,1,200.21,451.47Z"/><path class="cls-26" d="M153.62,397.34a2.53,2.53,0,0,1-1-4.88l2-.83a2.54,2.54,0,1,1,1.92,4.7l-2,.83A2.72,2.72,0,0,1,153.62,397.34Z"/><path class="cls-26" d="M163,393.52a2.54,2.54,0,0,1-1-4.89l13-5.32a2.54,2.54,0,1,1,1.92,4.7l-13,5.32A2.73,2.73,0,0,1,163,393.52Z"/><path class="cls-26" d="M254,408.62a2.49,2.49,0,0,1-1.54-.52,2.53,2.53,0,0,1-1-2.4l7.78-51.39-73.63,30.14a2.54,2.54,0,1,1-1.93-4.69l77.78-31.84a2.53,2.53,0,0,1,3.47,2.73l-7.76,51.22,67.36-30.24a2.54,2.54,0,1,1,2.08,4.63L255,408.4A2.56,2.56,0,0,1,254,408.62Z"/><path class="cls-26" d="M685.29,1078.43a2.53,2.53,0,0,1-1.87-.83L622.66,1011a2.53,2.53,0,0,1-.3-3l34.16-57.23L544.93,925a2.6,2.6,0,0,1-1.31-.76L470.47,844a2.53,2.53,0,1,1,3.74-3.42l72.63,79.65,114.22,26.3a2.54,2.54,0,0,1,1.76,1.48,2.51,2.51,0,0,1-.16,2.29l-35,58.6,59.49,65.25a2.54,2.54,0,0,1-1.88,4.25Z"/><path class="cls-26" d="M878.11,903.65a2.6,2.6,0,0,1-1.25-.33L648.2,773.76a2.53,2.53,0,1,1,2.5-4.41L879.37,898.9a2.54,2.54,0,0,1-1.26,4.75Z"/><path class="cls-26" d="M685.29,1078.43a2.53,2.53,0,0,1-2.52-2.78L714.7,746.93a2.55,2.55,0,0,1,2.77-2.28,2.52,2.52,0,0,1,2.28,2.77l-31.3,322.18L875.4,900.15,838,659.88a2.54,2.54,0,0,1,.83-2.29l91.53-81.18L825.11,564.74a2.55,2.55,0,0,1-2.23-2.13l-52.43-337L729,652.11a2.54,2.54,0,1,1-5-.49l43.38-446.5a2.53,2.53,0,0,1,2.45-2.29,2.5,2.5,0,0,1,2.58,2.15L827.6,559.91l109,12.09a2.53,2.53,0,0,1,1.4,4.42l-94.77,84.05,37.38,240.25a2.55,2.55,0,0,1-.8,2.27L687,1077.77A2.56,2.56,0,0,1,685.29,1078.43Z"/><path class="cls-26" d="M712.64,1076.45a2.56,2.56,0,0,1-1.87-.81,2.52,2.52,0,0,1,.15-3.58L824.24,967.19a2.54,2.54,0,1,1,3.45,3.72L714.36,1075.78A2.54,2.54,0,0,1,712.64,1076.45Z"/><path class="cls-26" d="M841.18,565.64a2.53,2.53,0,0,1-2.5-2.15L817.54,424.37a2.53,2.53,0,1,1,5-.77l21.14,139.12a2.53,2.53,0,0,1-2.12,2.89Z"/><path class="cls-26" d="M833.15,725.86a2.53,2.53,0,0,1-2.5-2.12l-.52-3.2a2.54,2.54,0,1,1,5-.82l.52,3.2a2.54,2.54,0,0,1-2.1,2.91A2.73,2.73,0,0,1,833.15,725.86Z"/><path class="cls-26" d="M836.75,747.88a2.54,2.54,0,0,1-2.5-2.13l-1.52-9.31a2.54,2.54,0,0,1,5-.82l1.52,9.31a2.53,2.53,0,0,1-2.09,2.91A2,2,0,0,1,836.75,747.88Z"/><path class="cls-26" d="M856.69,869.76a2.48,2.48,0,0,1-1.23-.32l-90.77-50.31a2.53,2.53,0,1,1,2.46-4.43l86.19,47.77L836.21,757.74a2.54,2.54,0,1,1,5-.82l18,109.89a2.55,2.55,0,0,1-1.05,2.49A2.48,2.48,0,0,1,856.69,869.76Z"/><path class="cls-26" d="M619.45,276.55a2.53,2.53,0,0,1-1.06-4.84l150.42-68.65a2.54,2.54,0,0,1,2.11,4.62L620.5,276.32A2.46,2.46,0,0,1,619.45,276.55Z"/><path class="cls-26" d="M650,277.54a2.54,2.54,0,0,1-1.05-4.85l90.19-41.16a2.54,2.54,0,1,1,2.1,4.62L651,277.31A2.63,2.63,0,0,1,650,277.54Z"/><path class="cls-26" d="M780.05,269.09a2.54,2.54,0,0,1-.41-5,59.46,59.46,0,1,0-64.42-35.15,2.54,2.54,0,0,1-4.66,2,64.56,64.56,0,1,1,69.91,38.15Z"/><path class="cls-26" d="M765.7,248.45l-.26,0a43.29,43.29,0,1,1,47.72-43.06,2.54,2.54,0,0,1-5.08,0,38.22,38.22,0,1,0-42.13,38,2.54,2.54,0,0,1-.25,5.06Z"/><path class="cls-26" d="M610.9,926.35a2.44,2.44,0,0,1-.59-.07l-53-12.55A2.53,2.53,0,0,1,556,909.6l55.25-63.72a2.54,2.54,0,0,1,3.83,3.33l-52.51,60.54,49,11.59a2.54,2.54,0,0,1-.58,5Z"/><path class="cls-26" d="M576.76,908.44a2.54,2.54,0,0,1-1.92-4.2l25.53-29.44a2.54,2.54,0,0,1,3.84,3.33l-25.53,29.43A2.55,2.55,0,0,1,576.76,908.44Z"/><path class="cls-26" d="M610.66,869.34a2.53,2.53,0,0,1-1.91-4.19l1.75-2a2.54,2.54,0,0,1,3.84,3.32l-1.76,2A2.52,2.52,0,0,1,610.66,869.34Z"/><path class="cls-26" d="M292.46,647.55a2.53,2.53,0,0,1-1.88-.82L147.8,490.11a2.5,2.5,0,0,1-.61-2.22,2.54,2.54,0,0,1,1.43-1.8l210.37-96a2.53,2.53,0,1,1,2.1,4.61l-207.2,94.56,140.44,154a2.53,2.53,0,0,1-.16,3.58A2.5,2.5,0,0,1,292.46,647.55Z"/><text></text><path class="cls-26" d="M142.91,620.61a2.54,2.54,0,0,1-2-4L196.68,541a2.54,2.54,0,0,1,4.08,3l-48.94,66.25,108.83-59.83a2.54,2.54,0,0,1,2.44,4.45l-119,65.4A2.57,2.57,0,0,1,142.91,620.61Z"/></g></g></g></svg>