<svg id="Noord-Brabant" xmlns="http://www.w3.org/2000/svg" viewBox="0 0 8977.25 4805.05" height="95vh" style="float:right;">    <defs>
        <style>
            .cls-3{
				fill:#fff;
			}
			.cls-1{
				fill:#fff;
				stroke:#000;
				stroke-miterlimit:10;
				stroke-width:2px;
			}
			svg g {
				cursor: pointer;
			}
			.cls-2{
				fill:#fff;
				stroke:#000;
				stroke-miterlimit:10;
				stroke-width:5px;
				transition: .2s;
			}
			.cls-2:hover {
				fill:#e74c3c;
			}
			.cls-2.g-active {
				fill:#d35400;
			}
			svg g:hover .cls-2 {
				fill:#e74c3c;
			}
        </style>
    </defs>
	<?php $kaas = 'hoi'; ?>
	<path id="Noord-Brabant_Base" data-name="Noord-Brabant Base" class="cls-1" d="M7870.69,2131.31l230.3,39.08,85,63s251.54-31,338-77,119-69,119-69l128,132h15v-36l56-1-2.67-25.67-24.33-29-2-151.69-68.68-81.35-8-158-14-34-125-126.36s-115.69-51.67-135.7-98-18.66-262.72-18.66-262.72-24.17-45.34-31.68-122.68-11-70.35-37.33-86-37.18-25.51-70.68-28.35-101.85-1.5-126.7-10.33-106.52-54.84-108.35-72-11.17-156.53-26-174-32-52.31-82.68-56.68c-54.46-4.7-330.06,38.34-330.06,38.34-81.2,11.42-168,12.18-222.77-51.24-22.25-25.77-49.61-101.62-77.29-106.79s-79.08-.21-96-10c-47.28-27.33-53.65-121.31-108.68-122-105.56-1.35-103.06-13.42-123-42.68-16.12-23.63-68.1-164-95.36-164-52.89,0-50.14-.43-85.58-.43-13.93,0-73.78-73.91-122.79-74.91s-142.94,0-173.86,13.83c-17.23,7.72-50.62,84.69-76,87-19.36,1.78-77.79-13.47-93.64-19.38-14.92-5.56-40.15-33.38-56.89-50.08-18.6-18.55-25.3-30.32-77.27-40.52-34.67-6.8-54.58,32.87-58.08,44.22s0,68.89-44,79.93c-36.31,9.11-88.34,32.51-120.68,31.67s-94.35-11.83-108.36-32.67-21.21-59.57-44.22-61.42c-28.55-2.29-45.62-4.46-51.35,3-7.07,9.15-148.25,247.63-148.25,247.63l-46.91,84.51s19.15,108.91-5.2,142.15c-14.59,19.92-172.58,98.17-191.37,107.59-15,7.51-96.09,65.09-113.08,66.66-25.59,2.36-42.06-29.48-74.4-27.65s-40.34-4-64.68,3.67-60,42-84,41.34-70.11-66.26-108.35-64c-32.48,1.88-71.35.36-90,8.36s-86,8.17-118.36-6.66-93,.33-115.68,3.66-150,35.84-152.36,33.67,1.5-41,2.67-48S4558.37,718,4563,706.8s-26-35.34-28.33-44.35,3.83-45.66,8-58.67,6.67-41.84,3.33-48-73.18-17.51-91-32.68-59.84-64.51-69-70.68-57.84-10.33-65-4.33-54,63.34-77,61-70.17-38.84-76.34-87.69-96.35-88.51-119-94.34-76-34.51-95.69-57.34-1.83-58-19.66-68.36-310.9-73.67-342.4-74.34a571.13,571.13,0,0,0-70.67,3c-12.51,1.33-117.86,38.18-170,81.69s-156.87,139.85-192.38,142.35-139.68-15.83-175-14.67-113.35,21.84-164,57-68.67,55.35-92,104.69-47.34,147.52-71,166.36-168.19,160-193.37,172.37-53.18,25-67.34,36-37,36.67-52,43-109.36,32.67-148.37,39-86.84,27.66-120.68,40.66-137.52,76.69-160.7,83-152.19,46.51-175,49.35-112.85,16.16-152.69,13.66-167.69-27.51-223.7-62.34-169.2-78.19-194.38-70.68-209.53,179.37-217.36,200-28.18,135.69-82.35,152.37-150.36,84-198.7,86-160.2,52.84-199.71,52.34-132.68-19.5-143.35-13-53.84,95.85-70,100.35-91,25-126.69,51.35-58,74.17-71.34,113-8.58,83.56-6.83,104.84,108.77,170.53,134,193,72.77,124.77,73,161.53-46.76,189-57.51,209-30.76,74.27-32,113.52,229,510.09,233,525.1,50.26,88,38,106-62.76,57-61.26,81.27,24,79.76,21.25,92.26,6.75,99-4.5,110.52,3.25,29.51,10,32,14.25,51.26,22,55,279.8-14.25,282.55-3,22.51,141.77,30.51,148.52,86.51-3,96,0,92.76,29,109,27,160.52-75.76,180.53-77,36,3.5,36.5-2.5-15.25-36-17-39.51,24.51-23.51,25-28.51-7.26-33-18-44-153.27-186.54-162-206.54-38.25-82-39-95.52,57.51-53,58.51-67.51,2.75-128.77-7-130.52-60.51-1.25-63-5.5-6-12.51,8.51-18.51,267.79-143.52,293-146,77.26,1.25,93-11,31.51-54.76,54-54.51,286.3-32.26,297.56-26,42.25,48.51,40.5,59-81.51,157-85,176.53,5.25,212,18.5,211.54,173.78-67.76,194.54-68,254,41,265.54,47,22,39,39,37.5,39.26-41,55-41.5,83.76,21.5,91,13-5.5-139.53.5-148,104.52-41.5,116.52-53,48-101.51,60-110,40.75-1,48-8.5,65.26-106.77,72.52-113,80.76-39.25,88.51-53,7.5-52.51,11-60,40.26-31,45-33,65.51-18.26,72-14,24.26,39.76,42,42,40.76-4,54.51,1.5,83,26.26,85.52,39,7.75,87.51,22,89.51,85.77,4.51,88.52,9.51-19.51,91.76-20.51,105,16.25,42.51,20,54.51-33.76,26-47.51,37.51-21.26,28-20,37.51,24.76,194,14.51,198.53-84.77-31-104-43.51-50,1.75-64-5-28.26-36.25-43-33.5-74.76,5.75-74.51,13,10.5,134.52,20.5,140,66.76,37,85,33.51,211.54-42,218-41,101.27,11,107,14.51,19.25,24,27.51,24,2.5-35.26,7-38.51,12.5,3.75,18.5,5.5,21-3,23.5-11.5,0-15.25,7.51-13.5,17.5,14.25,20,14,11.5-6.25,13.5-8.5a9.62,9.62,0,0,1,7.5-3c2.75,0,8.5,7,11.51,8.5s23.25,14.75,33.5,16.5,21.26-5.5,24.51-8,8.75-2.75,13.5,2,43.51,102.27,50,110,63.76,26.26,77.51,26.51,196.28-226.54,207.54-237.54,152.77-107.52,157-121.53-6.5-44.5.5-51.5,28.76-11.26,31-21-13-66-15-84.51,69.76-121.77,78.51-129.53,36.51-36,52-36.5,11.5,65.26,18.5,73,25.26,54.51,45.51,49,136.53-9,145,1,129.27,310,119,317.56-160.28,259.29-161,270.54,218.22,244,221.63,258.55,66.42,77.76,67.42,95.51-3,227.54,10,240.55,119,33.25,127.52,32,55-44.26,67.52-49.51,108.26-39,118.52-36,198.78,124,199.53,133-72.51,271.3-73,277.05,22.75,59.26,49,57.51,97.51-41.51,119-39.51,136.77,34.26,158,35S5481,4462,5498,4441.29s16.51-100,32-93,317.81,93.27,329.06,94,81.76-103.27,84.51-103,33-5.75,37.51-14-4-34.26,9-33.51,97.77,2,113.52-14,51.26-84,54.51-90,26.5-24.75,33-24.5,132.77,20.5,140.52,32.5,56.76,98.27,93.52,128,99.76,86.51,106,98,9.25,322.56,17,331.06,81.51-.75,96.51-8,84.27-19,99-20,77.27-9.25,84-20.51,19.25-333.8,26.5-351.06,209-300.55,222.54-308.55,929.66-272.55,953.17-288,281.55-215.54,282.05-244.05S8032.48,3040,8030,3009.54s-46.51-309.56-57-341.06-26-55.51-32-74S7870.69,2131.31,7870.69,2131.31Z" />
	<g id="Boxmeer" onclick="openGemeente('Boxmeer','28.771','111,51','Noord-Brabant','44','55','66','77','Highway','Train Station','Parking','Housing')">
		<path id="Boxmeer-2" data-name="Boxmeer" class="cls-2" d="M7950.52,1337.75s62.58-55.14,98-54,91.14-39.12,92.52-59-24.8-13.63-18.76-27.5c6.76-15.5,116-147.53,123.28-148.78s56.74-30.67,61.41-69.6c0,0,51.79,6.22,91.61,45.74,13.11,19.55,12,70.86,18,105.4,11,45,30.22,86.68,29.51,113.75-1.25,47.76,2.66,205.86,2.66,205.86s31,81.16,122.69,111c43,14,67.8,58,95,86,27.75,28.56,69.76,53.81,70,90,.5,71.68,8,158,8,158l68.68,81.35s1.17,85.16,1.34,101,.51,39.16.67,50.69l24.33,29,2.67,25.67-56,1v36h-15l-128-132s-104.85,64.13-168.23,88.83c-62.82,24.48-252.32,52.23-252.32,52.23l-36.52,5-85-63-86-13.84v-83.2l27.91-21.7v-18.3l68.77-35.68v-12.33l32-26.34,11.83,3.75,8.06,2.55,7.45,2.36L8297,1897l.66-29.34h16.68l-.67-20,68.68-35.33s-62-49.71-86-106.35c-23.63-55.65-22.83-82.52-29-86s-134-86.68-134-86.68-20.84,4-25.68,0-24-11.39-31.34-9.56-34.5,18.39-47.33,16.23-16.18-4.5-17-6.67-2.5-17.76-3-19.76,2-26.32,2-26.32l5.68-11.26,9-9.42-2-6.17-81-58.43" />
		<path class="cls-3" d="M8357.86,2006.47a20.51,20.51,0,0,1-5.56,2.57,23.47,23.47,0,0,1-6.46.82h-37.07v-52.45h-5.13l5.13-21.6h38a18.85,18.85,0,0,1,10.17,2.88q8.41,5.36,8.42,15v1.14a19.07,19.07,0,0,1-.2,2,18.58,18.58,0,0,1-9,13.78L8358,1972q5.35,4.11,7.3,8.08a23.06,23.06,0,0,1,2,10.13Q8367.2,2000.3,8357.86,2006.47Zm-22.7-50.71H8331v8.64h5a11.73,11.73,0,0,0,2.21-.21c.72-.13,1.35-.27,1.9-.41a3.91,3.91,0,0,0,2.77-3.8,3.73,3.73,0,0,0-.93-2.37,4.38,4.38,0,0,0-2.25-1.49,19.88,19.88,0,0,0-4.49-.36Zm-.62,23.46H8331v10h7.31a3.65,3.65,0,0,0,3-1.57,4.89,4.89,0,0,0,1-3.57q0-4.86-7.72-4.86Z" />
		<path class="cls-3" d="M8425.42,1997a28.75,28.75,0,0,1-18.8,13.5,30.78,30.78,0,0,1-6.77.72,28.89,28.89,0,0,1-24.33-13.53,31,31,0,0,1-3.5-9.4l-.41-2.88v-1.6c0-.6-.05-1-.05-1.18q0-9.78,7.08-18.11a27.57,27.57,0,0,1,17.35-9.15,32.59,32.59,0,0,1,4.52-.31h2.06a22.39,22.39,0,0,1,9,1.75,35.15,35.15,0,0,1,8.31,5.36,18.57,18.57,0,0,1,3.6,3.81,27.41,27.41,0,0,1,2,31Zm-22.9-21.58a10.71,10.71,0,0,0-2.47-.31,9.48,9.48,0,0,0-6.16,2.74,6.66,6.66,0,0,0-1.74,4.68q-.51,5.85,4.72,8a20.86,20.86,0,0,0,2.15.72,7.75,7.75,0,0,0,1.44.1,7.53,7.53,0,0,0,7.5-6,10.31,10.31,0,0,0,.3-2.47Q8408.28,1977.27,8402.52,1975.4Z" />
		<path class="cls-3" d="M8469.87,2009.86l-7.91-14.81-7.18,14.81h-25.36l17.45-28.38-16.53-25.72h25.88l5.33,12.34,6-12.34h24.24L8476,1981.17l18.17,28.69Z" />
		<path class="cls-3" d="M8580.3,2009.86h-20.63v-29.2q0-4.86-6.78-4.84h-2.26l-1.54.42v33.62H8528.3v-29.1a3.84,3.84,0,0,0-.83-2.26,7.58,7.58,0,0,0-2.41-2.06,6.87,6.87,0,0,0-3.54-.93,12.19,12.19,0,0,0-2.47.31l-1.23.41v33.63h-20.74v-34.34H8492l5.13-19.76h20.74v10l4.24-10h13q4.23,0,8.68,3.5a18.87,18.87,0,0,1,3.93,4.52c.27.41.58.93.93,1.54a4.13,4.13,0,0,1,.41,1l4.79-10.59h11.49a17.17,17.17,0,0,1,6.88,1.13,13.47,13.47,0,0,1,5,4.42,18.94,18.94,0,0,1,2.55,5.87,20.66,20.66,0,0,1,.61,4.21v17.7h5.14Z" />
		<path class="cls-3" d="M8609.83,1987.24a9,9,0,0,0,3.69,3.85,19.37,19.37,0,0,0,6.88,1.8,5.67,5.67,0,0,0,1,.11h1.23a71.82,71.82,0,0,0,13.76-2l2.77-.72-4.93,18.92-4.11.62a74.87,74.87,0,0,1-9.34.62q-16.22,0-25.46-7.77a25,25,0,0,1-9.25-20.1,25.39,25.39,0,0,1,.12-2.62c0-.65.2-1.7.41-3.14a28.29,28.29,0,0,1,3-8.75q6.38-11.7,20.23-13.16a15.17,15.17,0,0,0,2-.1,18.21,18.21,0,0,1,2.31-.11,25.87,25.87,0,0,1,8.73,1.34,27.54,27.54,0,0,1,13.55,9.56q5.54,7.52,5.55,18.21l.1,3.4Zm2.56-17.18a6.53,6.53,0,0,0-4,2.21,6.36,6.36,0,0,0-1.54,4.27h13.46a6.49,6.49,0,0,0-6.4-6.59h-.17a6.77,6.77,0,0,0-1.35.11Z" />
		<path class="cls-3" d="M8668.32,1987.24a8.93,8.93,0,0,0,3.7,3.85,19.37,19.37,0,0,0,6.88,1.8,5.67,5.67,0,0,0,1,.11h1.24a71.6,71.6,0,0,0,13.75-2l2.79-.72-4.94,18.92-4.11.62a74.62,74.62,0,0,1-9.34.62q-16.23,0-25.46-7.77a25,25,0,0,1-9.24-20.1,25.39,25.39,0,0,1,.1-2.62c.07-.65.21-1.7.41-3.14a28.64,28.64,0,0,1,3-8.75q6.36-11.7,20.22-13.16a15,15,0,0,0,2-.1,18,18,0,0,1,2.31-.11,25.6,25.6,0,0,1,8.72,1.34,27.54,27.54,0,0,1,13.55,9.56q5.55,7.52,5.55,18.21l.1,3.4Zm2.57-17.18a6.48,6.48,0,0,0-4,2.21,6.36,6.36,0,0,0-1.54,4.27h13.45a6.49,6.49,0,0,0-6.4-6.59h-.17a6.38,6.38,0,0,0-1.31.11Z" />
		<path class="cls-3" d="M8737.45,1977.92l-2.05-.31a7.28,7.28,0,0,0-4.52,1.09c-1.7.92-2.94,3-3.69,6.33l-.21,1.44v23.39h-20.84v-33.74H8701l5.13-20.36H8727V1961q3.39-4.11,10.47-5.87a24.13,24.13,0,0,1,4.63-.51h1.64Z" />
	</g>
	<g id="Sint_Anthonis" data-name="Sint Anthonis" onclick="openGemeente('Sint Anthonis','11.595','99.76','Noord-Brabant','44','55','66','77','Highway','Housing','HBO','Parking')">
		<path id="Sint_Anthonis-2" data-name="Sint Anthonis" class="cls-2" d="M8015,2156.55v-83.18l27.9-21.7v-18.3l68.77-35.68v-12.33l32-26.34,27.34,8.66L8297,1897l.66-29.34h16.68l-.67-20,68.68-35.33s-105.69-87.69-115-192.37l-134-86.68s-14.59,3.29-20.13,1.64-23.95-14.49-40.22-10.64-35.36,22.91-52.18,14-13.29-56.7-4.17-62.29,14.07-11.66,1.53-20.54L7942.62,1402l8.34-67.68-75-70-120,102-28,3-16,31-43,9-42,82-195,129,43,299.06,134-32,77,154,94,74Z" />
		<path class="cls-3" d="M7589.13,1760a24.18,24.18,0,0,1-5.66,5.76,28,28,0,0,1-7.3,3.55,39.33,39.33,0,0,1-11.72,1.39,34.79,34.79,0,0,1-5.86-.52,77.79,77.79,0,0,1-8.5-2.16,54.43,54.43,0,0,1-10.74-4.52l5.86-21.4,3.39,1.54q5.86,2.58,9.41,3.75a18.64,18.64,0,0,0,5.2,1.2,11.42,11.42,0,0,0,1.55.1,7.82,7.82,0,0,0,3.08-.63,3,3,0,0,0,1.85-2.88,3.48,3.48,0,0,0-.56-1.74,3.39,3.39,0,0,0-1.49-1.34l-.42-.21-3.7-1.44-9-3.39q-7.83-3-11.37-8.18t-3.55-13.41a20.52,20.52,0,0,1,2.22-9.67,23.34,23.34,0,0,1,13.31-10.85,33.28,33.28,0,0,1,9.37-1.08c1.3,0,2.67,0,4.11.1s2.88.21,4.32.41l.72-2.49,19.44,3.83-6.58,23.55a32.69,32.69,0,0,0-8.33-3.8,37.44,37.44,0,0,0-8.64-1.75,8.59,8.59,0,0,0-2.62.41,3.7,3.7,0,0,0-1.91,1.23,2.94,2.94,0,0,0-.61,1.85,2.46,2.46,0,0,0,.56,1.55,3.07,3.07,0,0,0,1.49,1l10.6,3.81,3.49,1.44q13.47,7.11,13.47,20.46a25.78,25.78,0,0,1-.31,3.82A24.62,24.62,0,0,1,7589.13,1760Z" />
		<path class="cls-3" d="M7622.22,1769.26h-21.61v-33.73h-5.14l5.25-20.22h21.5v33.23h5.14Zm.2-58.52h-21.5l4.73-18.41h21.71Z" />
		<path class="cls-3" d="M7683.15,1769.26h-20.78v-29.94a3.55,3.55,0,0,0-1.54-2.93,6.79,6.79,0,0,0-4.22-1.18,17.11,17.11,0,0,0-1.75.1,11.86,11.86,0,0,0-1.95.41l-1,.31v33.23h-20.77v-34H7626l5.14-20h20.77v9.28l4.32-9.35h11.83a20.62,20.62,0,0,1,5.65.61,13.63,13.63,0,0,1,4.23,2.27,11.9,11.9,0,0,1,3.39,4,16.48,16.48,0,0,1,1.85,8.12v18.31h5.14Z" />
		<path class="cls-3" d="M7717.86,1735.41h-3.71v33.85h-21.5v-33.85h-7.4l5.14-20.25h2.26v-7.32l21.5-5.25v12.57H7723Z" />
		<path class="cls-3" d="M7798,1769.26l-2.06-10.29H7775l-3,10.29h-23.76l14.44-54.1h-5.15l7.26-19.93h36.73l20.88,74Zm-12.54-51.73-5.67,21.9h11.53Z" />
		<path class="cls-3" d="M7876.66,1769.26h-20.78v-29.94a3.58,3.58,0,0,0-1.54-2.93,6.8,6.8,0,0,0-4.21-1.18,17,17,0,0,0-1.75.1,12.23,12.23,0,0,0-2,.41l-1,.31v33.23H7824.6v-34h-5.14l5.14-20h20.78v9.28l4.32-9.35h11.83a20.71,20.71,0,0,1,5.65.61,13.58,13.58,0,0,1,4.22,2.27,11.67,11.67,0,0,1,3.39,4,16.27,16.27,0,0,1,1.86,8.12v18.31h5.14Z" />
		<path class="cls-3" d="M7911.42,1735.41h-3.7v33.85h-21.54v-33.85h-7.41l5.15-20.25h2.26v-7.32l21.5-5.25v12.57h8.84Z" />
		<path class="cls-3" d="M7971.48,1769.26H7950v-29.53q0-4.32-6.37-4.32h-2l-1.44.21v33.64h-21.49v-56.19h-5.14l5.66-20.74h21v31l4.32-8.22h12.68a13.51,13.51,0,0,1,7.1,2,13.81,13.81,0,0,1,4.83,4.63,21.19,21.19,0,0,1,2.26,7.45l.1,1.75v17.49h5.15Z" />
		<path class="cls-3" d="M8031.21,1756.38a28.76,28.76,0,0,1-18.83,13.49,30.89,30.89,0,0,1-6.79.72,27.94,27.94,0,0,1-18-6.37,28.82,28.82,0,0,1-6.38-7.15,30.85,30.85,0,0,1-3.49-9.42l-.42-2.88c0-.48,0-1-.05-1.59s-.05-1-.05-1.18q0-9.78,7.1-18.1a27.45,27.45,0,0,1,17.38-9.15,31.12,31.12,0,0,1,4.52-.31h2.06a22.47,22.47,0,0,1,9,1.75,35.1,35.1,0,0,1,8.32,5.36,18.08,18.08,0,0,1,3.6,3.81,27.36,27.36,0,0,1,2,31Zm-22.94-21.58a8,8,0,0,0-4-.11,8.65,8.65,0,0,0-4.63,2.52,6.66,6.66,0,0,0-1.75,4.68q-.51,5.88,4.73,8a21,21,0,0,0,2.16.72,8.21,8.21,0,0,0,6.27-1.54,7.58,7.58,0,0,0,2.69-4.33,10.71,10.71,0,0,0,.31-2.47c0-3.75-1.91-6.25-5.74-7.48Z" />
		<path class="cls-3" d="M8093.15,1769.26h-20.77v-29.94a3.63,3.63,0,0,0-1.54-2.93,6.84,6.84,0,0,0-4.23-1.18,17.27,17.27,0,0,0-1.75.1,11.86,11.86,0,0,0-1.95.41l-1,.31v33.23h-20.8v-34H8036l5.14-20h20.77v9.28l4.32-9.35H8078a20.78,20.78,0,0,1,5.66.61,13.58,13.58,0,0,1,4.22,2.27,11.9,11.9,0,0,1,3.39,4,16.48,16.48,0,0,1,1.85,8.12v18.31h5.14Z" />
		<path class="cls-3" d="M8123.59,1769.26H8102v-33.73h-5.14l5.25-20.22h21.49v33.23h5.15Zm.2-58.52H8102.3l4.73-18.41h21.71Z" />
		<path class="cls-3" d="M8155.68,1769.77a30,30,0,0,1-5.35.41,53.2,53.2,0,0,1-14.7-2.47l-2.27-.72-1.74-.61-1.75-.62,4.42-17.38,2.57,1.44,1.75,1,.82.41,1.24.51a25.64,25.64,0,0,0,3.24,1.08,11.55,11.55,0,0,0,2.41.47,3.89,3.89,0,0,0,2.26-.72,2.29,2.29,0,0,0,1-2,2.16,2.16,0,0,0-.72-1.54l-2.57-1.23-6.27-2q-10.08-3.06-10.09-13a17.89,17.89,0,0,1,.1-2.57,25.79,25.79,0,0,1,.63-3,15.84,15.84,0,0,1,3.86-7.25,19.38,19.38,0,0,1,7.56-4.57,22.59,22.59,0,0,1,7.61-1.13,35.77,35.77,0,0,1,6.11.46,39.12,39.12,0,0,1,6.38,1.75,37.05,37.05,0,0,1,7.15,3.44l-5,15.94a30.43,30.43,0,0,0-4.32-2.67,20.64,20.64,0,0,0-5.55-1.65,3.15,3.15,0,0,0-1.7.57,2,2,0,0,0-.88,1.8,2,2,0,0,0,.62,1.44l.93.51,8.43,3,2.26,1q7.6,4.32,7.61,12.25a19.63,19.63,0,0,1-.41,4.11,15.63,15.63,0,0,1-4.88,8.69Q8162.68,1768.44,8155.68,1769.77Z" />
	</g>
	<g id="Cuijk" onclick="openGemeente('Cuijk','24.754','57.07','Noord-Brabant','33','19','46','24','Highway','Train Station','HBO','BUS')">
		<path id="Cuijk-2" data-name="Cuijk" class="cls-2" d="M8306.93,978.85s-11.72,55.45-56.32,68.06-132,153.45-128.67,156.48,23.51,10.6,19.06,21.33-56,55.48-79.18,57.76-82.46,38.18-102.5,53.47-83.37-71.72-83.37-71.72l-106.36-157.36-74-.67-24.67-18.67v-24l-51.34-15.34,16-15.33,2.67-75.35s25,1,22-4.66,0-22.68,0-22.68l-4-22h-9.33l2.66-28h12l4-36.67h-18.66l3.33-42-49.34-28.67,24.67-35.34,4-33.67s221.5-37.15,313.79-38.8c68.77-1.23,87.27,44.25,101.5,61.43,16.8,20.27,11.46,164.73,38.14,187.74s73,56.34,122,59.34S8306.93,978.85,8306.93,978.85Z" />
		<path class="cls-3" d="M7850.26,970.15l-3-2.27q-6.78-4.41-12-4.42a14,14,0,0,0-4.11.62,14.57,14.57,0,0,0-6.28,3.6q-5.14,5-5.14,10.8a18,18,0,0,0,.82,4.93q2.27,6.89,9.88,9.77a13.27,13.27,0,0,0,4.62.82q6.39,0,13.28-5.86l1.64-1.54,10.22,21.25a34,34,0,0,1-9.71,6.3,41.88,41.88,0,0,1-12.2,3.1c-.68.07-1.3.12-1.85.16s-1,0-1.44,0a37.41,37.41,0,0,1-13.26-2.58,41.37,41.37,0,0,1-8-3.75,36.49,36.49,0,0,1-6.68-5.32,39.58,39.58,0,0,1-6.63-8.34,35.93,35.93,0,0,1-3.55-9.57c-.34-1.51-.62-3-.82-4.53a27.45,27.45,0,0,1,0-8.23c.2-1.54.48-3.14.82-4.79a32.86,32.86,0,0,1,3.6-9.47A36.44,36.44,0,0,1,7812.7,947c1-.62,2-1.24,3.13-1.85s2.25-1.17,3.34-1.65a36.82,36.82,0,0,1,13.58-2.78q2.9,0,5.76.31l2.57.41,1.45-2.6,18.61,7.1Z" />
		<path class="cls-3" d="M7919.06,1016.33h-20.68v-10.4l-5.34,10.4H7883a15.94,15.94,0,0,1-8.74-2.57,15.18,15.18,0,0,1-6.58-9.58,19.6,19.6,0,0,1-.72-4.32V981.77h-5.14l5.14-19.54h20.77v26q0,7.31,6,7.31h4.73V962.23h20.68v33.32h5.09Z" />
		<path class="cls-3" d="M7949.5,1016.33h-21.59V982.55h-5.14l5.24-20.22h21.49v33.26h5.15Zm.21-58.52h-21.52l4.72-18.42h21.71Z" />
		<path class="cls-3" d="M7979.33,1023.34q-3,8.82-13.16,10.47l-3.39.31h-14l3.91-16.56h1.13c2,0,3.31-.26,4-.77s1-1.59,1-3.23V982.4h-5.15l5.15-20h21.5v56A18.07,18.07,0,0,1,7979.33,1023.34Zm1.44-65.53h-21.49l4.83-18.42h21.7Z" />
		<path class="cls-3" d="M8019.55,1016.33l-9.68-21.5v21.5h-21.49V960.14h-5.18l5.14-20.75h21.49v39.19l8.13-16.35h22.63l-13,24.47,15.62,29.63Z" />
	</g>
	<g id="Mill_en_Sint_hubert" data-name="Mill en St. hubert" onclick="openGemeente('Mill_en_Sint_hubert','10.825','53.17','Noord-Brabant','11','45','43','33','Highway','Train Station','HBO','BUS')">
		<polygon id="Mill_en_St._Hubert-2" data-name="Mill en St. Hubert" class="cls-2" points="7429.87 1619.96 7626.91 1491.27 7668.91 1409.26 7711.92 1400.25 7727.93 1369.25 7755.93 1366.25 7875.95 1264.23 7769.59 1106.87 7695.58 1106.2 7670.91 1087.53 7670.91 1063.53 7619.57 1048.19 7635.63 1031.18 7638.24 957.51 7609.56 962.18 7596.9 976.18 7530.89 932.84 7443.53 941.84 7423.2 972.85 7396.53 948.5 7354.52 939.17 7332.19 961.51 7259.5 913.5 7246.17 916.17 7216.84 964.18 7198.16 1024.19 7362.86 1287.56 7386.28 1403.78 7342.86 1423.26 7358.86 1440.26 7367.86 1484.77 7404.24 1492.79 7429.87 1619.96" />
		<path class="cls-3" d="M7463,1091.7v-41.24l-13.16,16L7436,1051.61v40.11h-23v-51.44h-5.15l5.15-22.63h23.24l13.37,15.63,12.34-15.63h22.63v74Z" />
		<path class="cls-3" d="M7514.26,1091.7h-21.6v-33.78h-5.14l5.24-20.22h21.5V1071h5.14Zm.21-58.52H7493l4.73-18.41h21.7Z" />
		<path class="cls-3" d="M7544.6,1091.7h-21.48v-56.18H7518l6.69-20.75h19.95V1071h5.24Z" />
		<path class="cls-3" d="M7575,1091.7h-21.5v-56.18h-5.14l6.68-20.75h20V1071h5.25Z" />
		<path class="cls-3" d="M7433.73,1192.49a9,9,0,0,0,3.7,3.86,19.47,19.47,0,0,0,6.9,1.8,4.71,4.71,0,0,0,1,.1h1.23a72.14,72.14,0,0,0,13.78-2l2.78-.72-4.94,18.92-4.11.62a75.18,75.18,0,0,1-9.36.61q-16.24,0-25.51-7.76a25,25,0,0,1-9.26-20.1,25.58,25.58,0,0,1,.11-2.63c.06-.65.2-1.69.41-3.13a28.55,28.55,0,0,1,3-8.75q6.38-11.73,20.26-13.17a15.1,15.1,0,0,0,2-.1,18.24,18.24,0,0,1,2.32-.1,26,26,0,0,1,8.75,1.34,27.53,27.53,0,0,1,13.57,9.56q5.55,7.5,5.55,18.21l.11,3.39Zm2.57-17.18a6.63,6.63,0,0,0-4,2.21,6.39,6.39,0,0,0-1.54,4.28h13.48a6.53,6.53,0,0,0-6.45-6.59h-.14a6.82,6.82,0,0,0-1.35.1Z" />
		<path class="cls-3" d="M7523.62,1215.12h-20.77v-29.93a3.62,3.62,0,0,0-1.54-2.93,6.77,6.77,0,0,0-4.23-1.18,14.79,14.79,0,0,0-1.75.1,10.91,10.91,0,0,0-1.95.41l-1,.31v33.22h-20.77v-34h-5.14l5.14-20.06h20.77v9.37l4.32-9.36h11.83a20.78,20.78,0,0,1,5.66.61,13.58,13.58,0,0,1,4.22,2.27,11.9,11.9,0,0,1,3.39,4,16.5,16.5,0,0,1,1.85,8.12v18.31h5.14Z" />
		<path class="cls-3" d="M7609.9,1205.86a23.6,23.6,0,0,1-5.65,5.76,27.9,27.9,0,0,1-7.3,3.55,39,39,0,0,1-11.73,1.39,34.88,34.88,0,0,1-5.86-.52,76.87,76.87,0,0,1-8.48-2.16,54.27,54.27,0,0,1-10.75-4.52L7566,1188l3.39,1.54q5.86,2.58,9.41,3.75a18.83,18.83,0,0,0,5.19,1.19,10,10,0,0,0,1.54.1,8,8,0,0,0,3.09-.62,3,3,0,0,0,1.85-2.88,3.28,3.28,0,0,0-.57-1.74,3.13,3.13,0,0,0-1.49-1.34l-.41-.21-3.7-1.44-8.95-3.39q-7.82-3-11.36-8.18t-3.55-13.42a20.45,20.45,0,0,1,2.21-9.67,23.29,23.29,0,0,1,13.32-10.85,33.17,33.17,0,0,1,9.36-1.08c1.3,0,2.67,0,4.11.1s2.88.21,4.32.42l.72-2.5,19.44,3.83-6.59,23.55a31.87,31.87,0,0,0-8.33-3.8,37.36,37.36,0,0,0-8.63-1.75,8.7,8.7,0,0,0-2.63.41,3.8,3.8,0,0,0-1.9,1.23,3,3,0,0,0-.62,1.85,2.48,2.48,0,0,0,.57,1.55,3.16,3.16,0,0,0,1.49,1l10.59,3.8,3.5,1.44q13.47,7.11,13.48,20.47a25.65,25.65,0,0,1-.31,3.81A24.76,24.76,0,0,1,7609.9,1205.86Z" />
		<path class="cls-3" d="M7647.34,1181.29h-3.7v33.83h-21.5v-33.83h-7.4l5.14-20.27h2.26v-7.32l21.49-5.25V1161h8.85Z" />
		<path class="cls-3" d="M7668.14,1216a10.23,10.23,0,0,1-2.47.21,11.13,11.13,0,0,1-3.19-.41q-7.41-2.05-8.95-9.22l-.3-1.84a14,14,0,0,1,1-5.43,11.63,11.63,0,0,1,3.24-4.3,12,12,0,0,1,7.82-2.76h1.13a6.57,6.57,0,0,0,1.23.2,11.86,11.86,0,0,1,7.62,4.15,12.83,12.83,0,0,1,2.67,8.24,10.67,10.67,0,0,1-2.77,7.17A12,12,0,0,1,7668.14,1216Z" />
		<path class="cls-3" d="M7465.72,1338.53h-21.5V1309c0-2.88-2.12-4.32-6.38-4.32h-1.95l-1.44.21v33.62H7413v-56.18h-5.15l5.66-20.74h21v31l4.32-8.24h12.65a13.51,13.51,0,0,1,7.1,2,14,14,0,0,1,4.83,4.63,21,21,0,0,1,2.26,7.46l.11,1.75v17.48h5.14Z" />
		<path class="cls-3" d="M7526.71,1338.53H7506v-10.38l-5.36,10.38H7490.6a15.78,15.78,0,0,1-8.74-2.57,15.11,15.11,0,0,1-6.58-9.56,19.8,19.8,0,0,1-.72-4.32V1304h-5.14l5.14-19.55h20.77v26q0,7.3,6,7.3h4.74v-33.29h20.67v33.33h5.14Z" />
		<path class="cls-3" d="M7589.24,1328.25a23.78,23.78,0,0,1-14.71,9.87,26.54,26.54,0,0,1-6.58.82,15.11,15.11,0,0,1-10.7-4.11l-3,3.7h-18.71v-56.18h-5.14l5.16-20.74h21.56v32.6l5.35-10.29h3.69a35.9,35.9,0,0,1,8.2.77,27.33,27.33,0,0,1,6.56,2.73,26.38,26.38,0,0,1,9.69,9.31,25.2,25.2,0,0,1,3.54,13.42,42,42,0,0,1-1,10A23.5,23.5,0,0,1,7589.24,1328.25Zm-21-22.93a11.51,11.51,0,0,0-5.21-.93h-4l-1.89.32v1.87a24.36,24.36,0,0,0,.89,7.3,7.79,7.79,0,0,0,2.82,4.12,7.25,7.25,0,0,0,4.28,1.46,6.29,6.29,0,0,0,5.35-2.63,8.7,8.7,0,0,0,2-5.19q0-4.19-4.23-6.32Z" />
		<path class="cls-3" d="M7620.81,1315.91a9,9,0,0,0,3.71,3.86,19.85,19.85,0,0,0,6.89,1.8,5.56,5.56,0,0,0,1,.1h1.24a72,72,0,0,0,13.78-2l2.77-.72-4.93,18.93-4.12.61a75,75,0,0,1-9.35.62q-16.26,0-25.52-7.76a25,25,0,0,1-9.25-20.11,25.39,25.39,0,0,1,.1-2.62c.07-.65.21-1.7.41-3.14a28.49,28.49,0,0,1,3-8.74q6.39-11.71,20.26-13.17a15,15,0,0,0,2-.1,18.09,18.09,0,0,1,2.31-.1,26,26,0,0,1,8.74,1.33,27.53,27.53,0,0,1,13.58,9.58q5.55,7.5,5.55,18.2l.1,3.39Zm2.57-17.17a6.48,6.48,0,0,0-4,2.21,6.34,6.34,0,0,0-1.54,4.27h13.47a6.51,6.51,0,0,0-6.43-6.59h-.15a5.52,5.52,0,0,0-1.35.11Z" />
		<path class="cls-3" d="M7690,1306.6l-2.06-.31a7.18,7.18,0,0,0-4.52,1.08c-1.72.93-2.95,3-3.71,6.33l-.2,1.45v23.38h-20.89V1304.8h-5.14l5.14-20.37h20.89v5.25q3.39-4.11,10.49-5.86a24,24,0,0,1,4.62-.52h1.65Z" />
		<path class="cls-3" d="M7724.37,1304.7h-3.7v33.83h-21.52V1304.7h-7.41l5.15-20.27h2.26v-7.31l21.49-5.26v12.59h8.85Z" />
	</g>
	<g id="Grave" onclick="openGemeente('Grave','12.378','28.03','Noord-Brabant','38','27','23','36','Parking','Train Station','HBO','BUS')">
		<path id="Grave-2" data-name="Grave" class="cls-2" d="M7629.57,703.8l-4,33.67-24.67,35.34,49.23,30-3.22,40.63h18.66l-4,36.67h-12l-2.66,28h9.33l3.72,46.73-50.4,7.28-11.7,12.94-67-42.28-87.35,9-20.34,31-26.67-24.35-42-9.33-22.33,22.34-72.69-48-9.66-16.33v-10.3h22.34l16.33-13.34.67-10.33-30.68,1.67-.33,8.33-31,.33,2.33-36.86-40.34-16.81,16.67-33.67,2.33-53.68-10-6.33,8-31-37.67-7.33-17-24,27.35-22.34,16-42.67,52.67-56.68,82.05,3.67s37.88,23.11,46.64,55.67c10.74,39.91,73.9,97.81,137.39,105.23,38.76,4.53,87,2.46,87.32,2.79S7629.57,703.8,7629.57,703.8Z" />
		<path class="cls-3" d="M7348.18,775.54a64.23,64.23,0,0,1-4.17,13.33,36.46,36.46,0,0,1-6.94,9.41,42.13,42.13,0,0,1-6.07,5,39.55,39.55,0,0,1-9.52,4.62,32.51,32.51,0,0,1-10.13,1.55,46.49,46.49,0,0,1-5.14-.31,37.47,37.47,0,0,1-20.77-8.33,38.42,38.42,0,0,1-4.73-4.73,40.51,40.51,0,0,1-7.09-11.88,39.93,39.93,0,0,1-2.16-13.84,34.79,34.79,0,0,1,5.76-19.64,30.32,30.32,0,0,1,4.21-5.24,44.33,44.33,0,0,1,7-6.12,36.22,36.22,0,0,1,7.25-3.91,42.12,42.12,0,0,1,7.36-2.21,33.58,33.58,0,0,1,6.78-.72,23.68,23.68,0,0,1,11.83,2.88l1.44-1.34,16.15,8.54-16.56,17.58-1.24-.72-2-.92a25.14,25.14,0,0,0-5.35-1.8,23.22,23.22,0,0,0-4.32-.47,14.6,14.6,0,0,0-13.67,8.64,8.6,8.6,0,0,0-.72,1.65,9,9,0,0,0-.52,3.08,19,19,0,0,0-.1,2.26,13.91,13.91,0,0,0,4.42,10.3,13.26,13.26,0,0,0,6.27,3.75,26.33,26.33,0,0,0,5.66.77,11.7,11.7,0,0,0,7.09-2.26,12,12,0,0,0,1.5-1.34c.44-.48.94-1.06,1.49-1.75h-11.93l5-19.13h34.45l.11,1.44.1,1.75A51.05,51.05,0,0,1,7348.18,775.54Z" />
		<path class="cls-3" d="M7386.34,776.2l-2.07-.31a7.42,7.42,0,0,0-4.52,1.09c-1.72.92-2.95,3-3.71,6.34l-.2,1.44v23.39H7355V774.41h-5.14l5.14-20.36h20.88v5.25q3.39-4.12,10.5-5.87a24,24,0,0,1,4.63-.51h1.64Z" />
		<path class="cls-3" d="M7449.79,808.15h-21.5v-7.61l-4.63,7.61h-2.56q-9.26,0-15.63-3.49a27.73,27.73,0,0,1-7.61-6.36,26.37,26.37,0,0,1-6.06-16.84,35.75,35.75,0,0,1,.51-5.65,31.6,31.6,0,0,1,4-11.24,23.74,23.74,0,0,1,7.87-7.54,24.87,24.87,0,0,1,5.24-2.67,16.17,16.17,0,0,1,4.17-1c1.06-.07,1.93-.13,2.62-.2a19.15,19.15,0,0,1,2-.11,20.63,20.63,0,0,1,12,3.5l.82-2.47h18.72v33.23H7455Zm-21.5-29.47a5,5,0,0,0-1.39-3.28,5.36,5.36,0,0,0-3-1.91,15.55,15.55,0,0,0-2.26-.31,7.92,7.92,0,0,0-3.91,1.13l-1.54,1.34a6.61,6.61,0,0,0-2,4.74,6.18,6.18,0,0,0,3.6,5.86c1.3.68,4.18,1,8.64,1h1.85Z" />
		<path class="cls-3" d="M7492.67,808.15h-24.88l-15.74-54.1h22.63l6.58,29.42,5.76-29.42h22.1Z" />
		<path class="cls-3" d="M7532.12,785.53a8.88,8.88,0,0,0,3.7,3.85,19.42,19.42,0,0,0,6.89,1.8,5.67,5.67,0,0,0,1,.11h1.23a72.13,72.13,0,0,0,13.79-2l2.77-.72-4.94,18.92-4.11.62a75.06,75.06,0,0,1-9.36.62q-16.24,0-25.5-7.77a25,25,0,0,1-9.26-20.1,19.28,19.28,0,0,1,.1-2.63c.1-.62.21-1.7.42-3.14a28.32,28.32,0,0,1,3-8.74q6.38-11.72,20.26-13.16a15.17,15.17,0,0,0,2-.1,18.21,18.21,0,0,1,2.31-.11,25.73,25.73,0,0,1,8.7,1.38,27.69,27.69,0,0,1,13.59,9.56q5.55,7.53,5.55,18.21l.1,3.4Zm2.57-17.18a6.48,6.48,0,0,0-4,2.21,6.34,6.34,0,0,0-1.55,4.26h13.47a6.49,6.49,0,0,0-6.4-6.58H7536a6.53,6.53,0,0,0-1.39.12Z" />
	</g>
	<g id="Oss" onclick="openGemeente('Oss','90.541','159.87','Noord-Brabant','44','43','33','37','Highway','Train Station','HBO','Housing')">
		<path id="Oss-2" data-name="Oss" class="cls-2" d="M7247.5,542.1s-20.16-5.25-35.67-22-36.75-103-88-105.52-85.52-4.5-94-10.5-17.9,10.62-82.51-145.53c-15-36.25-28.6-48.5-40.85-51.51s-79.67,2-88.67-1-76.87-74.35-119.7-74.34c-19,0-53.37.44-53.37.44L6583,135.81s-46.74,3.47-58.75,9.72-55.76,89.52-76,87l-26.75-2.12-2,40.38-20.76,7.25v26.5l-20.5-.25-9,24.76-43.51,40-3,24-99.79,64.23-23.25,3.25s-67.76,52.26-67.51,58-67,57.51-67,57.51l17.51,20-.34,28,19,20.67h26l15,38,37.34,22L6245,771.11l-24.33,25.34,1.33,38,27,8,151.19-34.34h31l116,64.51,48.17,6.17h43.34L6632,862.13l-13.33-10V770.81l91.35-17.34,4.67-21.33,80-41.34,96-16.67,1.33-28,66-18,81.34,86,33.35-119.35,33.34,55.34,45.33,13.67,27.35-22.34,16-42.67Z" />
		<path class="cls-3" d="M6631,520.4a40.59,40.59,0,0,1-5.09,8.49,39.54,39.54,0,0,1-7.56,7,36.51,36.51,0,0,1-5.55,3.29,47.32,47.32,0,0,1-7.09,2.67,33.63,33.63,0,0,1-6.38,1c-2.54.21-5,.31-7.4.31l-5.35-.72a39.39,39.39,0,0,1-11-3.65,35.09,35.09,0,0,1-8.69-6.63,40.6,40.6,0,0,1-7.82-10.44,39,39,0,0,1-3.49-12c-.14-1-.24-2.09-.31-3.19s-.1-2.67-.1-4.73a21,21,0,0,1,.67-5.24,43.27,43.27,0,0,1,1.9-5.77,38.29,38.29,0,0,1,10.8-14.91,40.66,40.66,0,0,1,10.48-6.53,42.35,42.35,0,0,1,12.56-2.83h5.86a29.65,29.65,0,0,1,9.25,1.39,45.88,45.88,0,0,1,9.21,4.42,36.62,36.62,0,0,1,8.89,7.66,29.06,29.06,0,0,1,3.17,4.32,31.81,31.81,0,0,1,3.81,7.4,46.94,46.94,0,0,1,2,8.75c.07,1,.16,1.86.26,2.68a21.33,21.33,0,0,1,.15,2.77A37.35,37.35,0,0,1,6631,520.4Zm-34-30.09a16.85,16.85,0,0,0-9.89,2,13.17,13.17,0,0,0-3.59,2.89,13.7,13.7,0,0,0-3.91,9.56,11.41,11.41,0,0,0,.1,1.75,14.28,14.28,0,0,0,4,8.64,14.83,14.83,0,0,0,8.6,4.42,12.22,12.22,0,0,0,2.57.2,11.68,11.68,0,0,0,2.57-.2,13.53,13.53,0,0,0,11-8.64,19.93,19.93,0,0,0,.87-2.57,9.56,9.56,0,0,0,.26-2.26,16.63,16.63,0,0,0-3.29-10.39A14.19,14.19,0,0,0,6597,490.31Z" />
		<path class="cls-3" d="M6663.25,542.61a28.25,28.25,0,0,1-5.35.42,53.27,53.27,0,0,1-14.71-2.47l-2.26-.72-1.75-.62-1.75-.62,4.42-17.37,2.57,1.44,1.75,1,.82.42,1.25.51a30,30,0,0,0,3.24,1.08,10.37,10.37,0,0,0,2.41.46,4,4,0,0,0,2.27-.72,2.28,2.28,0,0,0,1-1.95,2.16,2.16,0,0,0-.72-1.54l-2.57-1.24-6.27-2q-10.1-3.09-10.09-13a17.94,17.94,0,0,1,.72-5.55,15.92,15.92,0,0,1,3.86-7.25,19.54,19.54,0,0,1,7.57-4.59,23.07,23.07,0,0,1,7.61-1.13,37.92,37.92,0,0,1,6.11.46,41.55,41.55,0,0,1,6.38,1.75,37.73,37.73,0,0,1,7.15,3.46l-5,15.94a28.77,28.77,0,0,0-4.32-2.68,20.37,20.37,0,0,0-5.55-1.64,3.14,3.14,0,0,0-1.7.56,2,2,0,0,0-.87,1.8,2,2,0,0,0,.61,1.44l.93.52,8.43,3,2.26,1q7.62,4.32,7.61,12.23a20.34,20.34,0,0,1-.41,4.12,15.59,15.59,0,0,1-4.88,8.69Q6670.24,541.28,6663.25,542.61Z" />
		<path class="cls-3" d="M6708.3,542.61a28.29,28.29,0,0,1-5.36.42,53.2,53.2,0,0,1-14.7-2.47l-2.27-.72-1.74-.62-1.75-.62,4.42-17.37,2.57,1.44,1.75,1,.82.42,1.24.51a31.38,31.38,0,0,0,3.23,1.08,10.56,10.56,0,0,0,2.42.46,3.89,3.89,0,0,0,2.26-.72,2.24,2.24,0,0,0,1-1.95,2.12,2.12,0,0,0-.72-1.54l-2.57-1.24-6.27-2q-10.08-3.09-10.08-13a24.43,24.43,0,0,1,.1-2.57,27.51,27.51,0,0,1,.62-3,15.91,15.91,0,0,1,3.86-7.26,19.6,19.6,0,0,1,7.56-4.58,23,23,0,0,1,7.6-1.13,38.17,38.17,0,0,1,6.13.46,41.55,41.55,0,0,1,6.38,1.75,38.61,38.61,0,0,1,7.15,3.45l-5,15.95a28.77,28.77,0,0,0-4.32-2.68,20.4,20.4,0,0,0-5.57-1.64,3.13,3.13,0,0,0-1.69.56,2.15,2.15,0,0,0-.47,3l.21.25.94.52,8.43,3,2.26,1q7.59,4.32,7.61,12.23a21.09,21.09,0,0,1-.41,4.12,15.63,15.63,0,0,1-4.89,8.69Q6715.29,541.27,6708.3,542.61Z" />
	</g>
	<g id="Den_Bosch" data-name="Den Bosch" onclick="openGemeente('Den_Bosch','152.651','91.79','Noord-Brabant','15','15','31','11','Housing','Train Station','HBO','University')">
		<path id="Den_Bosch-2" data-name="Den Bosch" class="cls-2" d="M4871.49,796c1-1.25,39.58-5.56,49.83-5.56,11.87,0,46.89-3.08,59.34,3.43,24.59,12.86,71.49,58.66,86.8,59.29,11.39.47,79.53-42.6,90.79-43.6s63.82-2.41,70.82.09,46.93,28.28,61.43,26,98.76-61.27,114.52-68,152.92-82.9,152.92-82.9,15.11,44.9,40.61,43.9c7.51-.29,66.76-15.76,141.53-69,0,0,97.26-18,98.51-14s9.76,72,18,77,48,67.51,40,73.51-83.76,18-85.51,28.5,17.75,67.52,16,79.52-5.5,50.51,0,57.51,23.26,40,27.51,41,23.75-4,27.5,0,14.75,25.51,13,29.51-30,23.25-28,29.5,45,36.26,47.51,41-94.36,18.84-106.69,20.18-68.68-.34-90-12.68-76.34,27.68-84.68,28-30.34-22.34-39.34-16-28.67,12.33-24,19.33,22.33,5.34,22.67,18.67,41.34,96.35,36,97.35-68-5-71.36,0-11.33,29.67-5.33,36.68,25.34,19,17.34,23.33-65.34,71.35-73.35,70-57-64.67-62-64.67-100.34,39.34-106,39.34-26.33,2.33-35.33-10-58-94.69-74-96-58.14-24.88-70-22.51-94.68,8.84-113.36,5.51-64.17-40-70-46,84.23-29.13,91.11-36S5074,1117,5068.71,1111s-8.88-17.12-17.5-13-13.89,11.25-22.26,6.75-30.75-29.75-28.5-34.5,34.62-62.13,25-58-46.39,30.63-48.51,24,7.87-105.64,2-111.27-98.51-61.63-99.51-69.76S4871.49,796,4871.49,796Z" />
		<path class="cls-3" d="M5292.91,969.93a37.1,37.1,0,0,1-11.18,15.73,34,34,0,0,1-11.43,6.53,45.85,45.85,0,0,1-14.39,2h-21.7V942.26h-5.14l5.14-22.11h26.33a35.17,35.17,0,0,1,32.5,22.32,30.67,30.67,0,0,1,1.7,7,79.81,79.81,0,0,1,.46,9.41,25.64,25.64,0,0,1-.57,5.24A42,42,0,0,1,5292.91,969.93Zm-28.5-26a15.93,15.93,0,0,0-7.19-1.55v28.5h2.05a13.45,13.45,0,0,0,9-4.27,13.64,13.64,0,0,0,3.45-9.61,19.2,19.2,0,0,0-.31-3.3,13.64,13.64,0,0,0-7-9.78Z" />
		<path class="cls-3" d="M5321.9,971.58a9,9,0,0,0,3.71,3.85,19.47,19.47,0,0,0,6.89,1.8,4.88,4.88,0,0,0,1,.11h1.23a73.76,73.76,0,0,0,13.78-2l2.77-.72-4.93,18.92-4.12.62a75.19,75.19,0,0,1-9.36.62q-16.26,0-25.51-7.77a25,25,0,0,1-9.25-20.1,25.39,25.39,0,0,1,.1-2.62c.07-.65.21-1.7.41-3.14a28.23,28.23,0,0,1,3-8.74q6.38-11.71,20.25-13.17a15,15,0,0,0,2-.1,18.12,18.12,0,0,1,2.31-.11,26,26,0,0,1,8.75,1.34,27.62,27.62,0,0,1,13.58,9.57q5.55,7.5,5.55,18.2l.1,3.4Zm2.57-17.18a6.55,6.55,0,0,0-4,2.22,6.44,6.44,0,0,0-1.54,4.26h13.47a6.48,6.48,0,0,0-6.4-6.58h-.18a6.14,6.14,0,0,0-1.35.1Z" />
		<path class="cls-3" d="M5411.8,994.2H5391V964.28a3.53,3.53,0,0,0-1.55-2.93,6.71,6.71,0,0,0-4.21-1.19,14.82,14.82,0,0,0-1.75.11,10.76,10.76,0,0,0-2,.41l-1,.31V994.2h-20.77v-34h-5.15l5.15-20h20.77v9.37l4.32-9.37h11.83a21.19,21.19,0,0,1,5.66.62,13.5,13.5,0,0,1,4.21,2.26,12.24,12.24,0,0,1,3.4,4,16.51,16.51,0,0,1,1.85,8.13v18.2h5.14Z" />
		<path class="cls-3" d="M5499.62,990.81a20.31,20.31,0,0,1-5.55,2.57,23.23,23.23,0,0,1-6.48.82h-37.12V941.75h-5.15l5.15-21.6h38.05A18.88,18.88,0,0,1,5498.7,923q8.45,5.36,8.44,15v1.14a17.36,17.36,0,0,1-.21,2.05,18.59,18.59,0,0,1-9.06,13.79l1.89,1.39q5.34,4.11,7.31,8.07a23,23,0,0,1,2,10.13Q5509,984.64,5499.62,990.81ZM5476.9,940.1h-4.22v8.64h5a10.28,10.28,0,0,0,2.21-.21c.72-.13,1.35-.27,1.9-.41a3.9,3.9,0,0,0,2.78-3.8,3.73,3.73,0,0,0-.93-2.37,4.4,4.4,0,0,0-2.26-1.49,19.79,19.79,0,0,0-4.48-.36Zm-.62,23.46h-3.6v10h7.3a3.65,3.65,0,0,0,3-1.57,4.94,4.94,0,0,0,1-3.57q0-4.86-7.7-4.86Z" />
		<path class="cls-3" d="M5567.3,981.32a28.75,28.75,0,0,1-18.82,13.5,30.36,30.36,0,0,1-6.79.72A28.94,28.94,0,0,1,5517.32,982a30.5,30.5,0,0,1-3.5-9.4l-.41-2.88c0-.48,0-1-.05-1.6s0-1,0-1.18q0-9.76,7.09-18.11a27.62,27.62,0,0,1,17.37-9.15,32.73,32.73,0,0,1,4.53-.31h2.05a22.63,22.63,0,0,1,9,1.75,35.59,35.59,0,0,1,8.33,5.36,18.69,18.69,0,0,1,3.61,3.82,27.36,27.36,0,0,1,2,31Zm-22.94-21.57a9.84,9.84,0,0,0-2.47-.31,9.45,9.45,0,0,0-6.17,2.73,6.66,6.66,0,0,0-1.74,4.68q-.52,5.85,4.73,8a21,21,0,0,0,2.16.72,7.75,7.75,0,0,0,1.44.1,7.53,7.53,0,0,0,7.5-6,9.84,9.84,0,0,0,.31-2.47Q5550.12,961.61,5544.36,959.75Z" />
		<path class="cls-3" d="M5600.41,994.71a28.09,28.09,0,0,1-5.34.42,53.27,53.27,0,0,1-14.71-2.47l-2.26-.72-1.75-.62-1.75-.62,4.43-17.37,2.57,1.43,1.74,1,.83.41,1.23.52a30.76,30.76,0,0,0,3.24,1.08,10.56,10.56,0,0,0,2.42.46,3.89,3.89,0,0,0,2.26-.72,2.27,2.27,0,0,0,1-2,2.16,2.16,0,0,0-.72-1.54l-2.57-1.24-6.28-1.95q-10.08-3.09-10.07-13a16.78,16.78,0,0,1,.72-5.55,15.8,15.8,0,0,1,3.85-7.26,19.6,19.6,0,0,1,7.56-4.58,23.14,23.14,0,0,1,7.61-1.13,38,38,0,0,1,6.12.46,41.12,41.12,0,0,1,6.37,1.75,37.18,37.18,0,0,1,7.16,3.45l-5,15.95a27.8,27.8,0,0,0-4.32-2.68,20.27,20.27,0,0,0-5.55-1.64,3.14,3.14,0,0,0-1.7.56,2.15,2.15,0,0,0-.45,3,2.31,2.31,0,0,0,.2.24l.92.52,8.43,3,2.27,1q7.62,4.32,7.62,12.23a20.35,20.35,0,0,1-.42,4.12,15.65,15.65,0,0,1-4.88,8.69Q5607.42,993.41,5600.41,994.71Z" />
		<path class="cls-3" d="M5653.48,961a8.09,8.09,0,0,0-4.32-1.34,8.71,8.71,0,0,0-6.47,2.26,9.06,9.06,0,0,0-2.57,6.17,6.68,6.68,0,0,0,2.41,5.4,9.89,9.89,0,0,0,6.53,2,9.59,9.59,0,0,0,3-.51h1.24l4,19.13-3.4.61a34.5,34.5,0,0,1-5.65.42,31.67,31.67,0,0,1-10.95-1.86,25.74,25.74,0,0,1-8.8-5.24q-7.82-7.31-8.94-16.45a22.81,22.81,0,0,1-.31-2.73c-.07-1.06-.1-2-.1-2.72a22.37,22.37,0,0,1,1.08-7.36,29.66,29.66,0,0,1,3.85-7.14,14.28,14.28,0,0,1,1.6-2.11,30.45,30.45,0,0,1,2.21-2.22q7.6-6.87,16.24-8a29.85,29.85,0,0,1,4.22-.31,24.92,24.92,0,0,1,10.28,2.16Z" />
		<path class="cls-3" d="M5716.53,994.2H5695V964.69q0-4.32-6.38-4.32h-1.95l-1.44.2V994.2h-21.48V938h-5.15l5.66-20.75h21v31.06l4.32-8.23h12.64a13.46,13.46,0,0,1,7.1,2,13.71,13.71,0,0,1,4.83,4.62,21.09,21.09,0,0,1,2.26,7.47l.11,1.75V973.4h5.14Z" />
	</g>
	<g id="Lith" onclick="openGemeente('Lith','6.656','55.51','Noord-Brabant','47','11','14','36','Highway','Train Station','HBO','BUS')">
		<path id="Lith-2" data-name="Lith" class="cls-2" d="M6421.45,230.43l-2,40.38-20.76,7.25v26.5l-20.5-.25-9,24.76-43.51,40-3,24-99.79,64.23-23.25,3.25-67.51,58-67,57.51s-44.34,53.68-45.84,54-180.7,15.5-180.7,15.5l-98.51,14s-112.86,72.52-141.53,69-40.59-43.87-40.59-43.87a332,332,0,0,0,35.39-23.19c21.48-16.51,4.7-138,5.2-142.15s159.84-274.32,159.84-274.32,33-55.06,38.51-60.62c5.29-5.28,50.56-.78,56.91,1.38,15.26,5.19,29,62.19,48.21,70.72,102.43,45.44,167.5,6.52,228.19-16,34.35-12.75,27.13-64.46,37.32-87.14,7.43-16.54,23.84-31.67,45.81-31.39,15.83.2,53.1,12.07,64.94,22.39,13.42,11.7,63.72,66.12,79.75,69.3C6386,219.26,6421.45,230.43,6421.45,230.43Z" />
		<path class="cls-3" d="M5848.83,485H5815.5V433.19h-5.14L5815.5,411h23v51H5854Z" />
		<path class="cls-3" d="M5878.66,485h-21.6V451.31h-5.14l5.24-20.23h21.5v33.23h5.17Zm.2-58.52h-21.49l4.73-18.41h21.73Z" />
		<path class="cls-3" d="M5913.42,451.19h-3.7V485h-21.5V451.19h-7.39l5.15-20.26h2.26v-7.32l21.5-5.25v12.57h8.84Z" />
		<path class="cls-3" d="M5973.48,485H5952V455.51q0-4.32-6.37-4.32h-2l-1.44.21V485h-21.49V428.84h-5.14l5.66-20.74h21v31.06l4.32-8.23h12.65a13.61,13.61,0,0,1,7.11,2,13.93,13.93,0,0,1,4.83,4.64,21.13,21.13,0,0,1,2.26,7.45l.1,1.75v17.48h5.15Z" />
	</g>
	<g id="Maasdonk" onclick="openGemeente('Maasdonk','11.284','36.37','Noord-Brabant','6','34','1','3','Housing','Train Station','HBO','BUS')">
		<path id="Maasdonk-2" data-name="Maasdonk" class="cls-2" d="M6220.66,796.48l1.33,38,27,8-117.61,54.43s22.51,30.38,22.76,31.5,43.26,97.27,43.26,97.27l43,1.75,7.51,29.25-29,13.51-47.76,35.5-23.5,3.25-42.51,91.52-34.51-4.75-10.77-16.28-13.25,31h-46l-7.25-27.75,10-10.76-2-20.75-20,1.75-1.5-22.5-25.26-21.51-40-6.25-47.51-41,28-29.5-13-29.51h-27.5l-28.85-43.83,1.43-57.18-16.09-77,85.51-28.5-40-73.51-18-77,180.7-15.5,45.84-54,17.51,20-.34,28,19,20.67h26l15,38,37.34,22L6245,771.11Z" />
		<path class="cls-3" d="M5971.93,850.83V809.58l-13.17,15.94-13.92-14.81v40.12h-23V799.37h-5.14l5.14-22.63h23.24l13.37,15.63,12.4-15.6h22.62v74Z" />
		<path class="cls-3" d="M6056.57,850.83h-21.49v-7.61l-4.63,7.61h-2.59q-9.27,0-15.64-3.49a28.06,28.06,0,0,1-7.61-6.37,26.4,26.4,0,0,1-6.07-16.84,36.85,36.85,0,0,1,.52-5.64,31.73,31.73,0,0,1,4-11.24,23.74,23.74,0,0,1,7.86-7.55,25.23,25.23,0,0,1,5.26-2.66,15.61,15.61,0,0,1,4.16-1c1.06-.07,1.94-.14,2.62-.21a20.15,20.15,0,0,1,2.06-.1,20.58,20.58,0,0,1,12,3.5l.83-2.47h18.71V830h5.3Zm-21.49-29.46a5,5,0,0,0-1.39-3.26,5.31,5.31,0,0,0-3-1.91,15.76,15.76,0,0,0-2.26-.32,7.67,7.67,0,0,0-3.91,1.14l-1.55,1.33a6.63,6.63,0,0,0-1.95,4.73,6.12,6.12,0,0,0,3.6,5.86q2,1,8.64,1h1.85Z" />
		<path class="cls-3" d="M6120.54,850.83h-21.49v-7.61l-4.63,7.61h-2.55q-9.26,0-15.63-3.49a28,28,0,0,1-7.62-6.37,26.4,26.4,0,0,1-6.07-16.84,36.85,36.85,0,0,1,.52-5.64,31.73,31.73,0,0,1,4-11.24,23.68,23.68,0,0,1,7.87-7.55,25.15,25.15,0,0,1,5.25-2.66,15.61,15.61,0,0,1,4.16-1c1.06-.07,1.94-.14,2.62-.21a20.15,20.15,0,0,1,2.06-.1,20.56,20.56,0,0,1,12,3.5l.82-2.47h18.72V830h5.24Zm-21.49-29.46a5,5,0,0,0-1.39-3.26,5.31,5.31,0,0,0-3-1.91,15.76,15.76,0,0,0-2.26-.32,7.73,7.73,0,0,0-3.91,1.14l-1.62,1.35a6.63,6.63,0,0,0-1.95,4.73,6.12,6.12,0,0,0,3.6,5.86q1.95,1,8.64,1H6099Z" />
		<path class="cls-3" d="M6152.73,851.38a29.88,29.88,0,0,1-5.34.41,53.21,53.21,0,0,1-14.71-2.47l-2.26-.72-1.75-.61-1.8-.61,4.44-17.39,2.57,1.38,1.75,1,.82.41,1.23.52a28.62,28.62,0,0,0,3.24,1.08,10.46,10.46,0,0,0,2.42.46,3.76,3.76,0,0,0,2.26-.72,2.27,2.27,0,0,0,1-2,2.18,2.18,0,0,0-.72-1.54l-2.57-1.23-6.28-2q-10.09-3.08-10.08-13a17.09,17.09,0,0,1,.72-5.55,15.93,15.93,0,0,1,3.86-7.25,19.52,19.52,0,0,1,7.56-4.58,22.85,22.85,0,0,1,7.61-1.13,35.81,35.81,0,0,1,6.12.46,39,39,0,0,1,6.37,1.75,37.05,37.05,0,0,1,7.15,3.44l-5,15.94a29,29,0,0,0-4.32-2.67,20.64,20.64,0,0,0-5.55-1.65,3.15,3.15,0,0,0-1.7.57,2.15,2.15,0,0,0-.45,3,2.2,2.2,0,0,0,.2.23l.92.51,8.43,3,2.27,1q7.6,4.32,7.61,12.24a19,19,0,0,1-.42,4.12,15.57,15.57,0,0,1-4.88,8.69Q6159.73,850,6152.73,851.38Z" />
		<path class="cls-3" d="M6170.11,826.24V812.15h28v14.09Z" />
		<path class="cls-3" d="M5946.61,974.24H5925V965l-3.79,9.25H5911a13.11,13.11,0,0,1-4.71-1,34.64,34.64,0,0,1-6.06-3.18q-8.82-5.87-10.77-17.59c-.2-1.23-.34-2.12-.41-2.67a26,26,0,0,1,.82-9.16q3.39-13.17,13.55-18.41a20.29,20.29,0,0,1,5-2,26.12,26.12,0,0,1,6.05-.62h1.74c.89.14,2.05.26,3.49.36a23.32,23.32,0,0,1,5.33,1.18V918h-3.91l4.63-20.66h20.88V953.5h5.14ZM5925,946.78q-.91-7.92-7-7.92a17.32,17.32,0,0,0-2.78.26,6.19,6.19,0,0,0-3.29,2.16,6.51,6.51,0,0,0-1.75,4.57c0,2.88.93,5,2.78,6.23s5.18,1.91,10,1.91l1.74-.11.31-2.26v-4.84Z" />
		<path class="cls-3" d="M6006.38,961.4a28.73,28.73,0,0,1-18.82,13.5,31,31,0,0,1-6.79.72,27.85,27.85,0,0,1-18-6.38,28.62,28.62,0,0,1-6.39-7.14,31.42,31.42,0,0,1-3.49-9.41l-.41-2.88v-1.6c0-.59-.06-1-.06-1.19q0-9.75,7.1-18.1a27.6,27.6,0,0,1,17.39-9.15,32.59,32.59,0,0,1,4.52-.31h2.06a22.43,22.43,0,0,1,9,1.76,34.92,34.92,0,0,1,8.33,5.35,19.13,19.13,0,0,1,3.6,3.81,27.36,27.36,0,0,1,1.95,31Zm-22.93-21.61a10.32,10.32,0,0,0-2.47-.31,10,10,0,0,0-1.54.2,8.52,8.52,0,0,0-4.63,2.52,6.66,6.66,0,0,0-1.75,4.68q-.51,5.88,4.73,8a20.25,20.25,0,0,0,2.16.72,8.64,8.64,0,0,0,1.44.1,7.56,7.56,0,0,0,7.51-6,10.34,10.34,0,0,0,.31-2.48Q5989.21,941.65,5983.45,939.79Z" />
		<path class="cls-3" d="M6068.29,974.24h-20.77V944.31a3.58,3.58,0,0,0-1.54-2.93,6.81,6.81,0,0,0-4.22-1.18,17,17,0,0,0-1.75.1,11.65,11.65,0,0,0-1.95.41l-1,.31v33.22h-20.81v-34h-5.14l5.14-20.06H6037v9.36l4.32-9.36h11.83a20.29,20.29,0,0,1,5.65.62,13.55,13.55,0,0,1,4.22,2.26,12,12,0,0,1,3.39,4,16.32,16.32,0,0,1,1.85,8.13v18.31h5.15Z" />
		<path class="cls-3" d="M6108.3,974.24l-9.66-21.49v21.49h-21.5V918.06H6072l5.15-20.74h21.5v39.17l8.12-16.35h22.62l-12.95,24.48L6132,974.24Z" />
	</g>
	<g id="Bernheze" onclick="openGemeente('Bernheze','30.270','90.41','Noord-Brabant','14','35','32','9','Highway','Train Station','HBO','Housing')">
		<path id="Bernheze-2" data-name="Bernheze" class="cls-2" d="M6638.73,878.83l85.52,169.36-19,15.51,8.5,37,17,37-14.5,18-3.5,32.51-68.52,72.51-35.5,11.5-55,115.52v26l36,33.5-5.51,37.51-130,88v39.51l-35.5,4-48,30-87.52-44-35.5,68.51-137-110.52s-227.29-89.76-226-90,33.51-25.51,33.51-25.51l14-57.16h60.51l54-177.13,13.25-31,10.75,16.25,34.51,4.75,42.51-91.52,100.25-52.26-7.51-29.25-43-1.75-43.24-97.3-22.76-31.5L6249,842.46l151.19-34.34h31l116,64.51Z" />
		<path class="cls-3" d="M6135.49,1305.78a20.37,20.37,0,0,1-5.56,2.57,24,24,0,0,1-6.48.83h-37.12v-52.46h-5.14l5.14-21.59h38.05a18.94,18.94,0,0,1,10.19,2.88q8.43,5.34,8.43,15v1.13a17.75,17.75,0,0,1-.21,2.06,18.66,18.66,0,0,1-9,13.78l1.85,1.33q5.34,4.14,7.3,8.08a22.89,22.89,0,0,1,2,10.12Q6144.88,1299.61,6135.49,1305.78Zm-22.73-50.7h-4.22v8.63h5a11.72,11.72,0,0,0,2.21-.2c.72-.14,1.36-.27,1.91-.41a3.91,3.91,0,0,0,2.77-3.81,3.67,3.67,0,0,0-.92-2.36,4.27,4.27,0,0,0-2.27-1.49,19.79,19.79,0,0,0-4.48-.36Zm-.62,23.44h-3.6v10h7.3a3.64,3.64,0,0,0,3-1.58,4.87,4.87,0,0,0,1-3.57q0-4.84-7.7-4.85Z" />
		<path class="cls-3" d="M6173,1286.54a8.85,8.85,0,0,0,3.7,3.86,19.28,19.28,0,0,0,6.89,1.81,6.78,6.78,0,0,0,1,.1h1.26a72.87,72.87,0,0,0,13.79-2l2.78-.72-4.94,18.93-4.11.62a77.31,77.31,0,0,1-9.37.61q-16.23,0-25.5-7.76a25,25,0,0,1-9.26-20.11,25.82,25.82,0,0,1,.11-2.63c.06-.65.2-1.69.41-3.13a28.23,28.23,0,0,1,3-8.74q6.38-11.73,20.26-13.17a15.17,15.17,0,0,0,2-.1,18.24,18.24,0,0,1,2.32-.1,25.68,25.68,0,0,1,8.74,1.34,27.45,27.45,0,0,1,13.58,9.56q5.55,7.5,5.55,18.2l.11,3.39Zm2.57-17.17a6.48,6.48,0,0,0-4,2.21,6.37,6.37,0,0,0-1.55,4.27h13.47a6.49,6.49,0,0,0-6.4-6.58h-.18a6,6,0,0,0-1.34.1Z" />
		<path class="cls-3" d="M6242.24,1277.23l-2.06-.31a7.21,7.21,0,0,0-4.52,1.08q-2.58,1.41-3.7,6.34l-.21,1.44v23.4h-20.86v-33.73h-5.14l5.14-20.36h20.87v5.24q3.39-4.11,10.49-5.86a24.15,24.15,0,0,1,4.64-.51h1.64Z" />
		<path class="cls-3" d="M6302.72,1309.18H6281.9v-29.94a3.58,3.58,0,0,0-1.54-2.93,6.81,6.81,0,0,0-4.22-1.18,16.91,16.91,0,0,0-1.74.1,12.23,12.23,0,0,0-2,.41l-1,.31v33.23h-20.77v-34h-5.15l5.15-20h20.77v9.28l4.32-9.35h11.83a20.28,20.28,0,0,1,5.65.61,13.58,13.58,0,0,1,4.22,2.27,11.67,11.67,0,0,1,3.39,4,16.26,16.26,0,0,1,1.85,8.12v18.3h5.25Z" />
		<path class="cls-3" d="M6364.33,1309.18h-21.5v-29.53q0-4.32-6.38-4.32h-1.95l-1.44.21v33.64h-21.49V1253h-5.14l5.65-20.75h21v31l4.32-8.22h12.65a13.34,13.34,0,0,1,7.09,2,13.65,13.65,0,0,1,4.83,4.63,20.8,20.8,0,0,1,2.27,7.45l.11,1.75v17.48h5.14Z" />
		<path class="cls-3" d="M6393.92,1286.54a8.87,8.87,0,0,0,3.71,3.86,19.22,19.22,0,0,0,6.89,1.81,5.65,5.65,0,0,0,1,.1h1.24a73,73,0,0,0,13.79-2l2.77-.72-4.93,18.93-4.13.62a76.85,76.85,0,0,1-9.35.61q-16.26,0-25.51-7.76a25,25,0,0,1-9.25-20.11,25.8,25.8,0,0,1,.1-2.63c.07-.65.21-1.69.41-3.13a28,28,0,0,1,3-8.74q6.38-11.73,20.25-13.17a15,15,0,0,0,2-.1,18.09,18.09,0,0,1,2.31-.1,25.68,25.68,0,0,1,8.74,1.34,27.52,27.52,0,0,1,13.59,9.56q5.55,7.5,5.55,18.2l.1,3.39Zm2.57-17.17a6.53,6.53,0,0,0-4,2.21,6.38,6.38,0,0,0-1.54,4.27h13.47a6.49,6.49,0,0,0-6.4-6.58h-.18a6.62,6.62,0,0,0-1.33.1Z" />
		<path class="cls-3" d="M6461.93,1309.18H6428.1l11.4-33.74h-10l4.93-20.35h32.72l-10.9,33.31h10.92Z" />
		<path class="cls-3" d="M6493.81,1286.54a8.85,8.85,0,0,0,3.7,3.86,19.22,19.22,0,0,0,6.89,1.81,6.78,6.78,0,0,0,1,.1h1.23a72.76,72.76,0,0,0,13.78-2l2.78-.72-4.94,18.93-4.11.62a77,77,0,0,1-9.36.61q-16.24,0-25.5-7.76a25,25,0,0,1-9.26-20.11c0-.87,0-1.75.1-2.63.07-.65.21-1.69.42-3.13a28.23,28.23,0,0,1,3-8.74q6.38-11.73,20.26-13.17a15.1,15.1,0,0,0,2-.1,18.24,18.24,0,0,1,2.32-.1,25.68,25.68,0,0,1,8.74,1.34,27.47,27.47,0,0,1,13.57,9.56q5.55,7.5,5.55,18.2l.11,3.39Zm2.57-17.17a6.48,6.48,0,0,0-4,2.21,6.33,6.33,0,0,0-1.54,4.27h13.47a6.51,6.51,0,0,0-6.44-6.58h-.14A6.1,6.1,0,0,0,6496.38,1269.37Z" />
	</g>
	<g id="Veghel" onclick="openGemeente('Veghel','31.253','40.98','Noord-Brabant','32','40','5','5','Housing','Train Station','HBO','BUS')">
		<path id="Veghel-2" data-name="Veghel" class="cls-2" d="M6584.22,1484.77l82,65.51,15.5,57,30,16,29,27,25.51-30,91,75.52,74,134.52,41,179.53,24,58-17,46-27.5,7.5L6835.27,2227.9l-45-11.5-28.5-29.51-103-23.5-154.53,35s-37,.25-37.51-2,5-40.5,5-40.5l24.51-34.51-46.51-16-10.5-27-36.51-24.5-26.5-52-89.52-23-73.51-2.5-28-169.53,38.51-1,30.51-43,8-60.51-14.5-31.51,35.5-68.51,87.52,44,48-30,35.5-4v-39.51Z" />
		<path class="cls-3" d="M6479.21,1905.28h-21.09l-22.41-74h23.44l10.29,37.23,11.83-37.23h23.67Z" />
		<path class="cls-3" d="M6527.85,1882.65a9,9,0,0,0,3.72,3.86,19.31,19.31,0,0,0,6.88,1.8,4.78,4.78,0,0,0,1,.1h1.24a72.86,72.86,0,0,0,13.78-2l2.77-.72-4.93,18.92-4.12.62a75,75,0,0,1-9.35.61q-16.28,0-25.52-7.76a25,25,0,0,1-9.25-20.1,25.58,25.58,0,0,1,.1-2.63c.07-.65.21-1.69.41-3.13a28.14,28.14,0,0,1,3-8.74q6.38-11.74,20.25-13.18a15,15,0,0,0,2-.1,18.24,18.24,0,0,1,2.32-.1,26,26,0,0,1,8.74,1.34,27.67,27.67,0,0,1,13.58,9.56q5.55,7.52,5.55,18.21l.1,3.39Zm2.57-17.17a6.48,6.48,0,0,0-4,2.21,6.39,6.39,0,0,0-1.54,4.27h13.48a6.49,6.49,0,0,0-6.4-6.58.54.54,0,0,0-.18,0A5.63,5.63,0,0,0,6530.42,1865.48Z" />
		<path class="cls-3" d="M6603.09,1923.28a27.25,27.25,0,0,1-5.95.82c-2.58.14-5.68.21-9.33.21a40.5,40.5,0,0,1-10.74-1.24,44.64,44.64,0,0,1-9.82-4.22l4-16.45a40.73,40.73,0,0,0,10.13,3.3,46.48,46.48,0,0,0,7.25.71q9.45,0,9.47-6.84v-5.19l-4.09,7.91h-2.66q-8.09,0-11.67-.92a20.69,20.69,0,0,1-12.27-7.7q-4.69-6.15-4.7-15.39v-1.72a11.4,11.4,0,0,0,.21-1.84,27.43,27.43,0,0,1,4.52-12.63,26.19,26.19,0,0,1,14.81-10.89,29.14,29.14,0,0,1,7.3-1.12,15.54,15.54,0,0,1,4.79.72,14.63,14.63,0,0,1,4.06,2l1.44-1.64h19.75v52.4q0,8.42-3.64,12.73T6603.09,1923.28Zm-5-45.56a8.6,8.6,0,0,0-1.55-5.22,4.65,4.65,0,0,0-3.9-2.08,9.36,9.36,0,0,0-6.17,1.85,6.28,6.28,0,0,0-2.28,5.14,5.45,5.45,0,0,0,2.84,5c1.89,1.09,4.95,1.64,9.2,1.64h1.86Z" />
		<path class="cls-3" d="M6680.48,1905.28H6659v-29.52c0-2.88-2.13-4.32-6.37-4.32h-2l-1.44.21v33.63h-21.5v-56.19h-5.14l5.65-20.74h21v31l4.32-8.22h12.65a13.54,13.54,0,0,1,7.09,2,13.76,13.76,0,0,1,4.84,4.63,21,21,0,0,1,2.26,7.46l.1,1.75v17.48h5.14Z" />
		<path class="cls-3" d="M6710.11,1882.65a9,9,0,0,0,3.7,3.86,19.36,19.36,0,0,0,6.89,1.8,4.78,4.78,0,0,0,1,.1H6723a72.86,72.86,0,0,0,13.78-2l2.78-.72-4.94,18.92-4.11.62a75.18,75.18,0,0,1-9.36.61q-16.24,0-25.51-7.76a25,25,0,0,1-9.26-20.1,25.58,25.58,0,0,1,.11-2.63c.06-.65.2-1.69.41-3.13a28.4,28.4,0,0,1,3-8.74q6.39-11.74,20.27-13.18a15.17,15.17,0,0,0,2-.1,18.24,18.24,0,0,1,2.32-.1,26,26,0,0,1,8.74,1.34,27.6,27.6,0,0,1,13.57,9.56q5.55,7.52,5.55,18.21l.11,3.39Zm2.57-17.17a6.43,6.43,0,0,0-4,2.21,6.3,6.3,0,0,0-1.55,4.27h13.48a6.5,6.5,0,0,0-6.44-6.58.38.38,0,0,0-.15,0,5.47,5.47,0,0,0-1.34.1Z" />
		<path class="cls-3" d="M6769.45,1905.28H6748v-56.19h-5.14l6.68-20.74h20v56.21h5.24Z" />
	</g>
	<g id="Landerd" onclick="openGemeente('Landerd','15.336','70.68','Noord-Brabant','45','41','8','16','Parking','Train Station','Housing','BUS')">
		<path id="Landerd-2" data-name="Landerd" class="cls-2" d="M7072.81,594.78l33.34,55.34,45.33,13.67,17,24,37.67,7.33-8,31,10,6.33-2.33,53.68-16.67,33.67,40.34,16.81-2.33,36.86,31-.33.33-8.33,30.68-1.67-.67,10.33-16.33,13.34h-22.34v10.34l9.66,16.33-13.33,2.67-29.33,48-18.68,60,164.7,263.37,9.14,45.35s-24.89-20.42-26.64-20.17-246,69-246,69l-17.5-2.5-247.54-252V1091.7l-96,3-24.5,6-8.5-37,19-15.5-92.19-186-13.33-10V770.81l91.35-17.34,4.67-21.33,80-41.34,96-16.67,1.33-28,66-18,81.34,86Z" />
		<path class="cls-3" d="M6804.77,975.12h-33.32V923.28h-5.14l5.14-22.21h23v51H6810Z" />
		<path class="cls-3" d="M6868,975.12h-21.49v-7.61l-4.63,7.61h-2.57q-9.27,0-15.63-3.49a27.76,27.76,0,0,1-7.61-6.37,26.32,26.32,0,0,1-6.08-16.87,37,37,0,0,1,.52-5.65,31.75,31.75,0,0,1,4-11.23,23.68,23.68,0,0,1,7.87-7.55,25.19,25.19,0,0,1,5.25-2.67,16.41,16.41,0,0,1,4.16-1c1.06-.07,1.94-.14,2.62-.21a20.15,20.15,0,0,1,2.06-.1,20.57,20.57,0,0,1,12,3.49l.82-2.46H6868v33.22h5.25Zm-21.49-29.49a5,5,0,0,0-1.39-3.26,5.43,5.43,0,0,0-3-1.92,17.44,17.44,0,0,0-2.27-.31,7.86,7.86,0,0,0-3.9,1.13l-1.55,1.34a6.69,6.69,0,0,0-2,4.73,6.16,6.16,0,0,0,3.6,5.87c1.3.66,4.18,1,8.64,1h1.85Z" />
		<path class="cls-3" d="M6929,975.12h-20.78V945.18a3.58,3.58,0,0,0-1.54-2.93,6.76,6.76,0,0,0-4.21-1.18,17.11,17.11,0,0,0-1.75.1,12.23,12.23,0,0,0-2,.41l-1,.31v33.23H6877v-34h-5.15l5.15-20h20.78v9.28l4.31-9.35h11.83a20.74,20.74,0,0,1,5.66.61,13.42,13.42,0,0,1,4.21,2.27,11.67,11.67,0,0,1,3.39,4,16.16,16.16,0,0,1,1.86,8.12v18.31h5.15Z" />
		<path class="cls-3" d="M6992.45,975.12h-21.58v-9.26l-3.8,9.26h-10.25a13.66,13.66,0,0,1-4.72-1,36,36,0,0,1-6.05-3.19q-8.82-5.88-10.76-17.58c-.21-1.24-.35-2.13-.41-2.68a20.25,20.25,0,0,1-.11-2.58,23.67,23.67,0,0,1,.93-6.58q3.38-13.14,13.53-18.41a20.29,20.29,0,0,1,5-2,26.17,26.17,0,0,1,6.05-.62H6962q1.33.21,3.48.36a23.85,23.85,0,0,1,5.34,1.19v-3.19h-3.91l4.63-20.67h20.88V954.4h5.14Zm-21.58-27.47q-.93-7.92-7-7.92a18.41,18.41,0,0,0-2.77.26,6.17,6.17,0,0,0-3.29,2.16,6.51,6.51,0,0,0-1.75,4.57c0,2.89.92,5,2.78,6.24s5.17,1.9,10,1.9l1.75-.11.31-2.26v-4.84Z" />
		<path class="cls-3" d="M7022.09,952.49a9,9,0,0,0,3.7,3.86,19.42,19.42,0,0,0,6.89,1.8,5.65,5.65,0,0,0,1,.1h1.23a73.74,73.74,0,0,0,13.79-2l2.77-.72-4.93,18.92-4.12.62a75.05,75.05,0,0,1-9.36.61q-16.25,0-25.5-7.76a25,25,0,0,1-9.26-20.11,19.28,19.28,0,0,1,.1-2.63c.1-.63.21-1.69.42-3.13a28.23,28.23,0,0,1,3-8.74q6.38-11.73,20.26-13.17a15.17,15.17,0,0,0,2-.1,18.17,18.17,0,0,1,2.31-.1,25.73,25.73,0,0,1,8.75,1.34,27.6,27.6,0,0,1,13.58,9.56q5.55,7.5,5.55,18.21l.1,3.39Zm2.57-17.18a6.48,6.48,0,0,0-4,2.21,6.34,6.34,0,0,0-1.55,4.27h13.47a6.49,6.49,0,0,0-6.4-6.58H7026A6.67,6.67,0,0,0,7024.66,935.31Z" />
		<path class="cls-3" d="M7091.3,943.17l-2.06-.31a7.34,7.34,0,0,0-4.52,1.08c-1.72.94-2.95,3-3.7,6.35l-.21,1.44v23.39h-20.87V941.39h-5.15l5.15-20.36h20.87v5.24q3.39-4.11,10.49-5.86a24.13,24.13,0,0,1,4.63-.51h1.64Z" />
		<path class="cls-3" d="M7154.32,975.12h-21.57v-9.26l-3.79,9.26H7118.7a13.66,13.66,0,0,1-4.72-1,35.54,35.54,0,0,1-6-3.19q-8.82-5.88-10.78-17.58c-.21-1.24-.34-2.13-.41-2.68a24.73,24.73,0,0,1-.1-2.58,24.42,24.42,0,0,1,.92-6.58q3.39-13.14,13.54-18.41a20.29,20.29,0,0,1,5-2,26.12,26.12,0,0,1,6.05-.62h1.74c.89.14,2.05.26,3.49.36a23.64,23.64,0,0,1,5.33,1.19v-3.19h-3.91l4.63-20.67h20.87V954.4h5.15Zm-21.57-27.47q-.93-7.92-7-7.92a17.32,17.32,0,0,0-2.78.26,6.13,6.13,0,0,0-3.29,2.16,6.47,6.47,0,0,0-1.75,4.57c0,2.89.93,5,2.78,6.24s5.17,1.9,10,1.9l1.75-.11.31-2.26v-4.84Z" />
	</g>
	<g id="Uden" onclick="openGemeente('Uden','41.496','67.53','Noord-Brabant','12','43','31','25','Highway','Train Station','HBO','BUS')">
		<polygon id="Uden-2" data-name="Uden" class="cls-2" points="6589.73 1447.26 6553.72 1413.76 6553.72 1387.75 6608.73 1272.23 6644.23 1260.73 6712.75 1188.22 6716.25 1155.71 6730.75 1137.71 6713.75 1100.7 6738.25 1094.7 6834.27 1091.7 6834.27 1127.21 7081.81 1379.25 7099.31 1381.75 7345.36 1312.74 7372 1332.91 7386.28 1403.78 7342.86 1423.26 7358.86 1440.26 7367.86 1484.77 7404.24 1492.79 7429.87 1619.96 7443.47 1700.94 7390.87 1700.94 7134.82 1664.3 7024.8 1659.3 6967.79 1678.3 6890.78 1687.3 6857.27 1695.81 6766.26 1620.29 6740.75 1650.3 6711.75 1623.29 6681.74 1607.29 6666.24 1550.28 6584.22 1484.77 6589.73 1447.26" />
		<path class="cls-3" d="M6889.7,1507q-5.55,17.49-24.69,19.35a17.57,17.57,0,0,1-2.62.2h-2.11q-10.48,0-17.89-4.73a23.72,23.72,0,0,1-10.08-12.66,32.67,32.67,0,0,1-1.44-5.14,21.94,21.94,0,0,1-.41-3.7v-27.25h-5.14l5.14-21.91h23v46.18a5.71,5.71,0,0,0,1.85,4.32,7.06,7.06,0,0,0,5,1.75,8,8,0,0,0,5.55-2,6.8,6.8,0,0,0,2.16-5.35v-44.94h23v47.72a26.89,26.89,0,0,1-.31,3.91A25.73,25.73,0,0,1,6889.7,1507Z" />
		<path class="cls-3" d="M6953.76,1525.22h-21.58V1516l-3.8,9.27h-10.26a13.65,13.65,0,0,1-4.71-1,35.54,35.54,0,0,1-6-3.19q-8.82-5.88-10.77-17.59c-.21-1.24-.34-2.13-.41-2.68a22,22,0,0,1-.1-2.57,24,24,0,0,1,.92-6.58q3.39-13.15,13.53-18.41a20,20,0,0,1,5-2,26.23,26.23,0,0,1,6.05-.62h1.74c.89.14,2.05.26,3.49.36a23.85,23.85,0,0,1,5.34,1.19v-3.19h-3.92l4.64-20.68h20.87v56.23h5.15Zm-21.58-27.47q-.93-7.92-7-7.92a17.32,17.32,0,0,0-2.78.26,6.2,6.2,0,0,0-3.29,2.16,6.56,6.56,0,0,0-1.75,4.57q0,4.32,2.78,6.23c1.85,1.26,5.17,1.9,10,1.9l1.75-.11.31-2.26v-4.83Z" />
		<path class="cls-3" d="M6983.39,1502.58a8.92,8.92,0,0,0,3.71,3.86,19.16,19.16,0,0,0,6.89,1.8,4.78,4.78,0,0,0,1,.1h1.23a72.06,72.06,0,0,0,13.78-1.95l2.78-.72-4.94,18.93-4.11.62a77.15,77.15,0,0,1-9.36.61q-16.24,0-25.51-7.77a25,25,0,0,1-9.25-20.1,25.69,25.69,0,0,1,.1-2.63c.07-.65.2-1.69.41-3.13a28.49,28.49,0,0,1,3-8.74q6.39-11.73,20.26-13.17a15.31,15.31,0,0,0,2-.1,18.24,18.24,0,0,1,2.32-.1,25.75,25.75,0,0,1,8.74,1.34A27.47,27.47,0,0,1,7010,1481q5.55,7.5,5.55,18.2l.11,3.39Zm2.57-17.17a6.51,6.51,0,0,0-4,2.21,6.34,6.34,0,0,0-1.54,4.27h13.48a6.51,6.51,0,0,0-6.44-6.58h-.14A6.19,6.19,0,0,0,6986,1485.41Z" />
		<path class="cls-3" d="M7073.28,1525.22h-20.77v-29.94a3.6,3.6,0,0,0-1.54-2.93,6.83,6.83,0,0,0-4.22-1.18,14.55,14.55,0,0,0-1.75.1,11.76,11.76,0,0,0-2,.41l-1,.31v33.23h-20.77v-34h-5.14l5.14-20H7042v9.28l4.33-9.35h11.83a20.32,20.32,0,0,1,5.65.61,13.58,13.58,0,0,1,4.22,2.27,11.79,11.79,0,0,1,3.39,4,16.37,16.37,0,0,1,1.85,8.12v18.3h5.14Z" />
	</g>
	<g id="Boekel" onclick="openGemeente('Boekel','10.442','34.52','Noord-Brabant','39','39','28','24','Housing','Train Station','HBO','BUS')">
		<polygon id="Boekel-2" data-name="Boekel" class="cls-2" points="6857.27 1695.81 6967.79 1678.3 7024.8 1659.3 7134.82 1664.3 7390.87 1700.94 7443.47 1700.94 7474.88 1919.35 7249.84 1982.36 7227.84 1974.36 7198.16 1997.36 6972.29 2009.86 6931.28 1830.33 6857.27 1695.81" />
		<path class="cls-3" d="M7052.18,1852.94a20.45,20.45,0,0,1-5.55,2.57,23.35,23.35,0,0,1-6.49.82H7003v-52.45h-5.14l5.14-21.6h38a18.91,18.91,0,0,1,10.19,2.88q8.43,5.37,8.44,15v1.13a16.74,16.74,0,0,1-.21,2,18.6,18.6,0,0,1-9,13.79l1.85,1.34q5.35,4.11,7.3,8.07a23,23,0,0,1,2,10.13Q7061.54,1846.78,7052.18,1852.94Zm-22.74-50.71h-4.21v8.65h5a11.73,11.73,0,0,0,2.21-.21c.72-.13,1.35-.27,1.9-.41a3.92,3.92,0,0,0,2.78-3.8,3.73,3.73,0,0,0-.93-2.38,4.36,4.36,0,0,0-2.26-1.49A19.88,19.88,0,0,0,7029.44,1802.23Zm-.61,23.46h-3.6v10h7.3a3.63,3.63,0,0,0,3-1.57,4.87,4.87,0,0,0,1-3.57q0-4.86-7.7-4.86Z" />
		<path class="cls-3" d="M7119.85,1843.45A28.77,28.77,0,0,1,7101,1857a29.7,29.7,0,0,1-6.78.72,27.89,27.89,0,0,1-18-6.38,28.19,28.19,0,0,1-6.37-7.14,31,31,0,0,1-3.5-9.41l-.41-2.88c0-.48,0-1-.05-1.6s-.05-1-.05-1.18q0-9.78,7.09-18.1a27.63,27.63,0,0,1,17.38-9.16,32.59,32.59,0,0,1,4.52-.31h2.06a22.71,22.71,0,0,1,9.06,1.75,35.72,35.72,0,0,1,8.33,5.37,18.6,18.6,0,0,1,3.6,3.81,27.36,27.36,0,0,1,2,31Zm-22.94-21.57a10.19,10.19,0,0,0-2.47-.31,9.47,9.47,0,0,0-6.17,2.73,6.72,6.72,0,0,0-1.75,4.68q-.51,5.85,4.73,8a21,21,0,0,0,2.16.72,7.75,7.75,0,0,0,1.44.1,7.52,7.52,0,0,0,7.51-6,9.84,9.84,0,0,0,.31-2.47q0-5.6-5.76-7.45Z" />
		<path class="cls-3" d="M7150.49,1833.71a9,9,0,0,0,3.71,3.85,19.47,19.47,0,0,0,6.9,1.8,4.71,4.71,0,0,0,1,.11h1.24a72.14,72.14,0,0,0,13.78-2l2.77-.72-4.93,18.92-4.12.62a75,75,0,0,1-9.35.62q-16.27,0-25.52-7.77a25,25,0,0,1-9.25-20.1,25.39,25.39,0,0,1,.1-2.62c.07-.65.21-1.7.41-3.14a28.49,28.49,0,0,1,3-8.74q6.38-11.71,20.25-13.17a15,15,0,0,0,2-.1,18.12,18.12,0,0,1,2.31-.11,26,26,0,0,1,8.75,1.34,27.62,27.62,0,0,1,13.58,9.57q5.55,7.5,5.55,18.2l.1,3.4Zm2.56-17.16a6.53,6.53,0,0,0-4,2.21,6.44,6.44,0,0,0-1.54,4.26H7161a6.49,6.49,0,0,0-6.4-6.58h-.19A5.6,5.6,0,0,0,7153.05,1816.55Z" />
		<path class="cls-3" d="M7219.51,1856.33l-9.67-21.49v21.49h-21.5v-56.18h-5.14l5.14-20.75h21.5v39.15l8.13-16.36h22.62l-13,24.49,15.52,29.61Z" />
		<path class="cls-3" d="M7266.92,1833.71a8.9,8.9,0,0,0,3.71,3.85,19.36,19.36,0,0,0,6.89,1.8,4.79,4.79,0,0,0,1,.11h1.23a72.14,72.14,0,0,0,13.78-2l2.77-.72-4.93,18.92-4.11.62a75.19,75.19,0,0,1-9.36.62q-16.24,0-25.51-7.77a25,25,0,0,1-9.26-20.1,19,19,0,0,1,.1-2.62c.1-.62.21-1.7.42-3.14a28.49,28.49,0,0,1,3-8.74q6.39-11.71,20.26-13.17a15.17,15.17,0,0,0,2-.1,18.36,18.36,0,0,1,2.32-.11,26,26,0,0,1,8.75,1.34,27.64,27.64,0,0,1,13.57,9.57q5.55,7.5,5.55,18.2l.1,3.4Zm2.57-17.17a6.49,6.49,0,0,0-5.55,6.47h13.48a6.49,6.49,0,0,0-6.4-6.58h-.18a6.17,6.17,0,0,0-1.35.12Z" />
		<path class="cls-3" d="M7326.26,1856.33h-21.49v-56.18h-5.15l6.69-20.75h20v56.15h5.25Z" />
	</g>
</svg>