
<svg xmlns="http://www.w3.org/2000/svg" viewBox="0 0 8793.31 4636.18"><defs><style>.cls-1{fill:#fff;}</style></defs><g id="Namen"><g id="Landerd"><path class="cls-1" d="M6754.78,855.72h-33.32V803.89h-5.14l5.14-22.21h23v51H6760Z"/><path class="cls-1" d="M6818,855.72h-21.49v-7.61l-4.63,7.61h-2.57q-9.26,0-15.63-3.49a27.83,27.83,0,0,1-7.61-6.37A26.29,26.29,0,0,1,6760,829a36.57,36.57,0,0,1,.52-5.65,31.56,31.56,0,0,1,4-11.23,23.68,23.68,0,0,1,7.86-7.55,25.51,25.51,0,0,1,5.25-2.67,16.32,16.32,0,0,1,4.16-1c1.06-.07,1.94-.14,2.62-.21a20.29,20.29,0,0,1,2.06-.1,20.58,20.58,0,0,1,12,3.49l.82-2.46H6818v33.21h5.24Zm-21.49-29.48a5,5,0,0,0-1.39-3.26,5.41,5.41,0,0,0-3-1.92,15.81,15.81,0,0,0-2.27-.31,7.75,7.75,0,0,0-3.9,1.13l-1.55,1.34a6.68,6.68,0,0,0-2,4.73,6.16,6.16,0,0,0,3.6,5.86q1.95,1,8.64,1h1.85Z"/><path class="cls-1" d="M6879,855.72h-20.78V825.79a3.57,3.57,0,0,0-1.54-2.93,6.75,6.75,0,0,0-4.21-1.18,15.41,15.41,0,0,0-1.75.1,11.84,11.84,0,0,0-2,.41l-1,.31v33.22H6827v-34h-5.14l5.14-20h20.78V811l4.31-9.35h11.83a20.66,20.66,0,0,1,5.66.61,13.55,13.55,0,0,1,4.21,2.27,11.78,11.78,0,0,1,3.39,4,16.28,16.28,0,0,1,1.86,8.12v18.3h5.14Z"/><path class="cls-1" d="M6942.42,855.72h-21.57v-9.26l-3.8,9.26H6906.8a13.5,13.5,0,0,1-4.72-1,35.67,35.67,0,0,1-6.05-3.19q-8.82-5.87-10.76-17.58c-.21-1.24-.35-2.13-.41-2.68a22.15,22.15,0,0,1-.11-2.57,24.09,24.09,0,0,1,.93-6.58q3.38-13.15,13.53-18.41a20.6,20.6,0,0,1,5-1.95,26.07,26.07,0,0,1,6.05-.62H6912q1.34.21,3.48.36a23.66,23.66,0,0,1,5.34,1.19v-3.19h-3.91l4.63-20.67h20.87V835h5.14Zm-21.57-27.46q-.93-7.92-7-7.92a17.21,17.21,0,0,0-2.77.26,6.14,6.14,0,0,0-3.29,2.16,6.5,6.5,0,0,0-1.75,4.57c0,2.88.92,5,2.78,6.23s5.17,1.9,10,1.9l1.75-.11.31-2.26v-4.83Z"/><path class="cls-1" d="M6972.06,833.09a8.92,8.92,0,0,0,3.7,3.86,19.26,19.26,0,0,0,6.89,1.8,5.07,5.07,0,0,0,1,.1h1.23a72.71,72.71,0,0,0,13.78-2l2.77-.72-4.93,18.92-4.11.62a76,76,0,0,1-9.36.61q-16.25,0-25.5-7.76a25,25,0,0,1-9.26-20.1c0-1.1,0-2,.1-2.63s.21-1.69.42-3.13a28.27,28.27,0,0,1,3-8.74q6.38-11.73,20.26-13.17c.54,0,1.21,0,2-.1s1.56-.1,2.31-.1a25.84,25.84,0,0,1,8.75,1.34,27.54,27.54,0,0,1,13.57,9.56q5.55,7.5,5.55,18.2l.1,3.39Zm2.57-17.17a6.46,6.46,0,0,0-4,2.21,6.34,6.34,0,0,0-1.55,4.27h13.47a6.49,6.49,0,0,0-6.58-6.58A6,6,0,0,0,6974.63,815.92Z"/><path class="cls-1" d="M7041.26,823.78l-2.06-.31a7.22,7.22,0,0,0-4.52,1.08q-2.58,1.4-3.7,6.34l-.21,1.44v23.39H7009.9V822h-5.15l5.15-20.36h20.87v5.24q3.39-4.11,10.49-5.86a23.94,23.94,0,0,1,4.63-.51h1.64Z"/><path class="cls-1" d="M7104.27,855.72H7082.7v-9.26l-3.79,9.26h-10.26a13.54,13.54,0,0,1-4.72-1,35.25,35.25,0,0,1-6-3.19q-8.82-5.87-10.77-17.58c-.21-1.24-.34-2.13-.41-2.68a22.7,22.7,0,0,1-.1-2.57,24.08,24.08,0,0,1,.92-6.58q3.38-13.15,13.53-18.41a20.6,20.6,0,0,1,5-1.95,26.13,26.13,0,0,1,6.05-.62h1.74c.89.14,2.05.26,3.49.36a23.71,23.71,0,0,1,5.33,1.19v-3.19h-3.91l4.63-20.67h20.87V835h5.15Zm-21.57-27.46q-.93-7.92-7-7.92a17.22,17.22,0,0,0-2.78.26,6.14,6.14,0,0,0-3.29,2.16,6.5,6.5,0,0,0-1.75,4.57q0,4.32,2.78,6.23c1.85,1.26,5.17,1.9,10,1.9l1.75-.11.31-2.26v-4.83Z"/></g><g id="Oss"><path class="cls-1" d="M6581,401.08a41,41,0,0,1-5.09,8.49,39.77,39.77,0,0,1-7.56,7,37.06,37.06,0,0,1-5.55,3.29,48.27,48.27,0,0,1-7.09,2.67,34,34,0,0,1-6.38,1c-2.54.21-5,.31-7.4.31l-5.35-.72a39.42,39.42,0,0,1-10.95-3.65,35,35,0,0,1-8.69-6.63,40.59,40.59,0,0,1-7.82-10.44,38.75,38.75,0,0,1-3.49-12c-.14-1-.24-2.09-.31-3.19s-.1-2.67-.1-4.73a21.34,21.34,0,0,1,.67-5.24,43.34,43.34,0,0,1,1.9-5.76,38.23,38.23,0,0,1,10.8-14.91,40.44,40.44,0,0,1,10.48-6.53,42.4,42.4,0,0,1,12.55-2.83h5.86a29.57,29.57,0,0,1,9.25,1.39,45.58,45.58,0,0,1,9.21,4.42,36.51,36.51,0,0,1,8.89,7.66A29.62,29.62,0,0,1,6578,365a31.92,31.92,0,0,1,3.81,7.4,47.07,47.07,0,0,1,2.05,8.74c.07,1,.16,1.86.26,2.68a23.14,23.14,0,0,1,.15,2.77A37.46,37.46,0,0,1,6581,401.08ZM6547,371a16.71,16.71,0,0,0-9.88,2,13,13,0,0,0-3.59,2.88,13.67,13.67,0,0,0-3.91,9.56,11.17,11.17,0,0,0,.1,1.75,14.21,14.21,0,0,0,4,8.64,14.79,14.79,0,0,0,8.59,4.42,12.27,12.27,0,0,0,2.57.2,11.53,11.53,0,0,0,2.57-.2,13.52,13.52,0,0,0,11-8.64,20.51,20.51,0,0,0,.87-2.57,9.41,9.41,0,0,0,.26-2.26,16.66,16.66,0,0,0-3.29-10.39A14.17,14.17,0,0,0,6547,371Z"/><path class="cls-1" d="M6613.28,423.29a28.63,28.63,0,0,1-5.35.42,53.59,53.59,0,0,1-14.7-2.47l-2.26-.72-1.75-.62-1.75-.62,4.42-17.37,2.57,1.44,1.75,1,.82.42,1.24.51a30,30,0,0,0,3.24,1.08,10.53,10.53,0,0,0,2.41.46,3.88,3.88,0,0,0,2.27-.72,2.27,2.27,0,0,0,1-1.95,2.15,2.15,0,0,0-.72-1.54l-2.57-1.24-6.27-1.95q-10.08-3.09-10.08-13a17.66,17.66,0,0,1,.72-5.55,15.93,15.93,0,0,1,3.86-7.25,19.43,19.43,0,0,1,7.56-4.58,22.9,22.9,0,0,1,7.61-1.13,37.55,37.55,0,0,1,6.11.46,40.38,40.38,0,0,1,6.38,1.75,37.51,37.51,0,0,1,7.15,3.45l-5,15.94a29.19,29.19,0,0,0-4.32-2.68,20.65,20.65,0,0,0-5.55-1.64,3.18,3.18,0,0,0-1.7.56,2,2,0,0,0-.87,1.8,2,2,0,0,0,.61,1.44l.93.52,8.43,3,2.26,1q7.62,4.32,7.61,12.23a20.34,20.34,0,0,1-.41,4.12,15.61,15.61,0,0,1-4.88,8.69Q6620.27,421.95,6613.28,423.29Z"/><path class="cls-1" d="M6658.32,423.29a28.63,28.63,0,0,1-5.35.42,53.59,53.59,0,0,1-14.7-2.47l-2.27-.72-1.74-.62-1.75-.62,4.42-17.37,2.57,1.44,1.75,1,.82.42,1.24.51a29.82,29.82,0,0,0,3.23,1.08,10.68,10.68,0,0,0,2.42.46,3.85,3.85,0,0,0,2.26-.72,2.25,2.25,0,0,0,1-1.95,2.15,2.15,0,0,0-.72-1.54l-2.57-1.24-6.27-1.95q-10.08-3.09-10.08-13a24.55,24.55,0,0,1,.1-2.57,26.66,26.66,0,0,1,.62-3,15.83,15.83,0,0,1,3.86-7.25,19.43,19.43,0,0,1,7.56-4.58,22.87,22.87,0,0,1,7.6-1.13,37.59,37.59,0,0,1,6.12.46,40.67,40.67,0,0,1,6.38,1.75,37.51,37.51,0,0,1,7.15,3.45l-5,15.94a29.19,29.19,0,0,0-4.32-2.68,20.69,20.69,0,0,0-5.56-1.64,3.17,3.17,0,0,0-1.69.56,2.14,2.14,0,0,0-.26,3.24l.93.52,8.43,3,2.26,1q7.6,4.32,7.61,12.23a20.34,20.34,0,0,1-.41,4.12,15.62,15.62,0,0,1-4.89,8.69Q6665.31,421.95,6658.32,423.29Z"/></g><g id="Lith"><path class="cls-1" d="M5799,365.72h-33.32V313.89h-5.14l5.14-22.21h23v51h15.53Z"/><path class="cls-1" d="M5828.83,365.72h-21.6V332h-5.14l5.24-20.22h21.5V345H5834Zm.2-58.51h-21.49l4.73-18.41H5834Z"/><path class="cls-1" d="M5863.58,331.88h-3.7v33.84h-21.49V331.88H5831l5.15-20.25h2.26v-7.32l21.49-5.25v12.57h8.84Z"/><path class="cls-1" d="M5923.63,365.72h-21.49V336.2q0-4.32-6.37-4.32h-2l-1.44.21v33.63h-21.49V309.54h-5.14l5.66-20.74h21v31.05l4.32-8.22h12.65a13.47,13.47,0,0,1,7.1,2,13.74,13.74,0,0,1,4.83,4.63,21.08,21.08,0,0,1,2.26,7.45l.1,1.75v17.48h5.15Z"/></g><g id="Cuijk"><path class="cls-1" d="M7800.08,850.75l-3-2.27q-6.78-4.41-12-4.42a14.28,14.28,0,0,0-4.11.62,14.49,14.49,0,0,0-6.28,3.6q-5.15,5-5.14,10.8a17.94,17.94,0,0,0,.82,4.93q2.27,6.88,9.88,9.77a13.36,13.36,0,0,0,4.62.82q6.38,0,13.27-5.86l1.64-1.54L7810,888.44a33.7,33.7,0,0,1-9.71,6.3,41.71,41.71,0,0,1-12.19,3.1c-.68.07-1.3.12-1.85.16s-1,0-1.44,0a37.14,37.14,0,0,1-13.26-2.58,41,41,0,0,1-8-3.75,36.59,36.59,0,0,1-6.68-5.31,39.86,39.86,0,0,1-6.63-8.34,36.33,36.33,0,0,1-3.55-9.57c-.34-1.51-.62-3-.82-4.53a30.77,30.77,0,0,1-.31-4.23,30.11,30.11,0,0,1,.31-4c.2-1.54.48-3.14.82-4.79a33.1,33.1,0,0,1,3.6-9.47,36.46,36.46,0,0,1,12.24-13.8c1-.62,2-1.24,3.13-1.85s2.25-1.17,3.34-1.65a36.75,36.75,0,0,1,13.58-2.78,56.94,56.94,0,0,1,5.76.31l2.57.41,1.44-2.6,18.61,7.1Z"/><path class="cls-1" d="M7868.87,896.92H7848.2V886.53l-5.34,10.39h-10.08a15.91,15.91,0,0,1-8.74-2.57,15.16,15.16,0,0,1-6.58-9.57,19.69,19.69,0,0,1-.72-4.32V862.37h-5.14l5.14-19.54h20.77v26q0,7.3,6,7.31h4.73V842.83h20.67v33.32H7874Z"/><path class="cls-1" d="M7899.31,896.92h-21.59V863.15h-5.14l5.24-20.22h21.49v33.26h5.14Zm.21-58.51H7878l4.72-18.41h21.7Z"/><path class="cls-1" d="M7929.13,903.93q-3,8.82-13.16,10.47l-3.39.31h-14l3.91-16.56h1.13c2,0,3.31-.26,4-.77s1-1.59,1-3.23V863h-5.14l5.14-20h21.5V899A18.16,18.16,0,0,1,7929.13,903.93Zm1.44-65.52h-21.49l4.83-18.41h21.7Z"/><path class="cls-1" d="M7969.34,896.92l-9.67-21.49v21.49h-21.49V840.74H7933l5.14-20.74h21.49v39.18l8.12-16.35h22.63l-13,24.47L7993,896.92Z"/></g><g id="Grave"><path class="cls-1" d="M7298.09,656.18a63.72,63.72,0,0,1-4.17,13.32,36.47,36.47,0,0,1-6.94,9.41,41.3,41.3,0,0,1-6.07,5,39.62,39.62,0,0,1-9.51,4.62,32.69,32.69,0,0,1-10.13,1.55,46.24,46.24,0,0,1-5.14-.31,37.51,37.51,0,0,1-20.77-8.33,38.35,38.35,0,0,1-4.73-4.73,40.74,40.74,0,0,1-7.09-11.88,40.25,40.25,0,0,1-2.16-13.83,34.85,34.85,0,0,1,5.76-19.64,30.7,30.7,0,0,1,4.21-5.24,44.49,44.49,0,0,1,7-6.12,36.73,36.73,0,0,1,7.25-3.91,42.62,42.62,0,0,1,7.36-2.21,34.57,34.57,0,0,1,6.78-.72,23.8,23.8,0,0,1,11.83,2.88l1.44-1.34,16.14,8.54-16.55,17.58-1.24-.72-2-.92a25.28,25.28,0,0,0-5.35-1.8,22.64,22.64,0,0,0-4.32-.47,14.59,14.59,0,0,0-13.67,8.64,8.83,8.83,0,0,0-.72,1.65,8.93,8.93,0,0,0-.52,3.08,19,19,0,0,0-.1,2.26,13.88,13.88,0,0,0,4.42,10.29,13.17,13.17,0,0,0,6.27,3.75,25.66,25.66,0,0,0,5.66.77,11.65,11.65,0,0,0,7.09-2.26,11.37,11.37,0,0,0,1.5-1.34c.44-.48.94-1.06,1.49-1.75h-11.93l5-19.12h34.44l.11,1.44.1,1.75A51.23,51.23,0,0,1,7298.09,656.18Z"/><path class="cls-1" d="M7336.24,656.84l-2.06-.31a7.3,7.3,0,0,0-4.52,1.09c-1.72.92-2.95,3-3.71,6.33l-.2,1.44v23.39h-20.88V655.05h-5.14l5.14-20.36h20.88v5.25q3.39-4.12,10.49-5.87a23.94,23.94,0,0,1,4.63-.51h1.64Z"/><path class="cls-1" d="M7399.68,688.78h-21.49v-7.61l-4.63,7.61H7371q-9.26,0-15.63-3.49a27.75,27.75,0,0,1-7.61-6.36,26.38,26.38,0,0,1-6.06-16.84,37.58,37.58,0,0,1,.51-5.64,31.69,31.69,0,0,1,4-11.24,23.78,23.78,0,0,1,7.87-7.54,24.73,24.73,0,0,1,5.24-2.67,16,16,0,0,1,4.17-1c1.06-.07,1.93-.13,2.62-.2a20.11,20.11,0,0,1,2-.11,20.59,20.59,0,0,1,12,3.5l.82-2.47h18.71v33.22h5.25Zm-21.49-29.47a5,5,0,0,0-1.39-3.27,5.33,5.33,0,0,0-3-1.91,14.37,14.37,0,0,0-2.26-.31,7.76,7.76,0,0,0-3.91,1.13l-1.54,1.34a6.63,6.63,0,0,0-2,4.73,6.17,6.17,0,0,0,3.6,5.86c1.3.68,4.18,1,8.64,1h1.85Z"/><path class="cls-1" d="M7442.56,688.78h-24.88l-15.74-54.09h22.63l6.58,29.41,5.76-29.41H7459Z"/><path class="cls-1" d="M7482,666.16a8.84,8.84,0,0,0,3.7,3.85,19.26,19.26,0,0,0,6.89,1.8,5.07,5.07,0,0,0,1,.11h1.23a72.09,72.09,0,0,0,13.78-2l2.77-.72-4.93,18.92-4.11.62a76.12,76.12,0,0,1-9.36.62q-16.24,0-25.5-7.77a25,25,0,0,1-9.26-20.1c0-1.1,0-2,.1-2.62s.21-1.7.42-3.14a28.36,28.36,0,0,1,3-8.74q6.38-11.71,20.26-13.16c.54,0,1.21,0,2-.1s1.56-.11,2.31-.11A25.73,25.73,0,0,1,7495,635a27.59,27.59,0,0,1,13.58,9.56q5.55,7.52,5.55,18.2l.1,3.4Zm2.57-17.17a6.46,6.46,0,0,0-4,2.21,6.33,6.33,0,0,0-1.55,4.26h13.47a6.49,6.49,0,0,0-6.58-6.58A5.88,5.88,0,0,0,7484.52,649Z"/></g><g id="Mill_en_St._hubert" data-name="Mill en St. hubert"><path class="cls-1" d="M7412.93,972.28V931.05L7399.77,947l-13.88-14.8v40.1h-23V920.87h-5.15l5.15-22.63h23.24l13.36,15.63,12.34-15.63h22.63v74Z"/><path class="cls-1" d="M7464.14,972.28h-21.59V938.51h-5.14l5.24-20.22h21.49v33.26h5.14Zm.21-58.51h-21.49l4.73-18.41h21.69Z"/><path class="cls-1" d="M7494.48,972.28H7473V916.11h-5.15l6.69-20.75h19.95v56.18h5.24Z"/><path class="cls-1" d="M7524.91,972.28h-21.49V916.11h-5.14l6.68-20.75h19.95v56.18h5.25Z"/><path class="cls-1" d="M7383.63,1073.05a8.92,8.92,0,0,0,3.7,3.86,19.32,19.32,0,0,0,6.89,1.8,5.07,5.07,0,0,0,1,.1h1.23a72.61,72.61,0,0,0,13.78-2l2.78-.72-4.94,18.92-4.11.62a75.78,75.78,0,0,1-9.36.61q-16.24,0-25.5-7.76a25,25,0,0,1-9.26-20.1,25.76,25.76,0,0,1,.11-2.63c.06-.65.2-1.69.41-3.13a28.36,28.36,0,0,1,3-8.74q6.38-11.73,20.26-13.17c.55,0,1.21,0,2-.1s1.56-.1,2.32-.1a25.82,25.82,0,0,1,8.74,1.34,27.5,27.5,0,0,1,13.57,9.56q5.55,7.5,5.55,18.2l.11,3.39Zm2.57-17.17a6.53,6.53,0,0,0-4,2.21,6.33,6.33,0,0,0-1.54,4.27h13.47a6.51,6.51,0,0,0-6.58-6.58A6.07,6.07,0,0,0,7386.2,1055.88Z"/><path class="cls-1" d="M7473.5,1095.68h-20.77v-29.93a3.6,3.6,0,0,0-1.54-2.93,6.78,6.78,0,0,0-4.22-1.18,15.54,15.54,0,0,0-1.75.1,11.74,11.74,0,0,0-1.95.41l-1,.31v33.22h-20.77v-34h-5.14l5.14-20.05h20.77V1051l4.32-9.36h11.82a20.61,20.61,0,0,1,5.66.61,13.59,13.59,0,0,1,4.22,2.27,11.78,11.78,0,0,1,3.39,4,16.39,16.39,0,0,1,1.85,8.12v18.3h5.14Z"/><path class="cls-1" d="M7559.77,1086.42a23.85,23.85,0,0,1-5.65,5.76,28,28,0,0,1-7.3,3.55,39.2,39.2,0,0,1-11.73,1.39,34.76,34.76,0,0,1-5.86-.52,77.46,77.46,0,0,1-8.48-2.16,54.7,54.7,0,0,1-10.75-4.52l5.87-21.39,3.39,1.54q5.86,2.58,9.41,3.75a18.69,18.69,0,0,0,5.19,1.19,9.52,9.52,0,0,0,1.54.1,7.79,7.79,0,0,0,3.09-.62,3,3,0,0,0,1.85-2.88,3.34,3.34,0,0,0-.57-1.74,3.21,3.21,0,0,0-1.49-1.34l-.41-.21-3.7-1.44-8.95-3.39q-7.81-3-11.36-8.17t-3.55-13.42a20.55,20.55,0,0,1,2.21-9.67,23.29,23.29,0,0,1,13.32-10.85,33.4,33.4,0,0,1,9.36-1.08c1.3,0,2.67,0,4.11.1s2.88.21,4.32.42l.72-2.5,19.43,3.83-6.58,23.55a32.13,32.13,0,0,0-8.33-3.8,37.54,37.54,0,0,0-8.63-1.75,8.7,8.7,0,0,0-2.63.41,3.73,3.73,0,0,0-1.9,1.23,3,3,0,0,0-.62,1.85,2.46,2.46,0,0,0,.57,1.55,3.12,3.12,0,0,0,1.49,1l10.59,3.8,3.5,1.44q13.47,7.1,13.47,20.46a25.22,25.22,0,0,1-.31,3.81A24.65,24.65,0,0,1,7559.77,1086.42Z"/><path class="cls-1" d="M7597.2,1061.85h-3.7v33.83H7572v-33.83h-7.4l5.14-20.26H7572v-7.32l21.49-5.25v12.57h8.85Z"/><path class="cls-1" d="M7618,1096.6a10.81,10.81,0,0,1-2.47.21,11,11,0,0,1-3.19-.41q-7.41-2.06-8.95-9.22l-.3-1.84a14.11,14.11,0,0,1,1-5.43,11.52,11.52,0,0,1,3.24-4.3,12,12,0,0,1,7.82-2.76h1.13a6,6,0,0,0,1.23.2,11.83,11.83,0,0,1,7.61,4.15,12.76,12.76,0,0,1,2.67,8.24,10.6,10.6,0,0,1-2.77,7.17A12,12,0,0,1,7618,1096.6Z"/><path class="cls-1" d="M7415.61,1219.07h-21.49v-29.51q0-4.32-6.38-4.32h-1.95l-1.44.21v33.62h-21.49V1162.9h-5.15l5.66-20.74h21v31l4.32-8.23h12.64a13.39,13.39,0,0,1,7.1,2,13.74,13.74,0,0,1,4.83,4.63,21,21,0,0,1,2.26,7.45l.11,1.75v17.48h5.14Z"/><path class="cls-1" d="M7476.59,1219.07h-20.67v-10.38l-5.35,10.38h-10.08a15.85,15.85,0,0,1-8.74-2.57,15.14,15.14,0,0,1-6.58-9.56,19.69,19.69,0,0,1-.72-4.32v-18.1h-5.14l5.14-19.54h20.77v26q0,7.3,6,7.3h4.73V1165h20.67v33.32h5.14Z"/><path class="cls-1" d="M7539.11,1208.79a23.8,23.8,0,0,1-14.71,9.87,27,27,0,0,1-6.58.82,15.12,15.12,0,0,1-10.69-4.11l-3,3.7h-18.71V1162.9h-5.14l5.16-20.74H7507v32.59l5.34-10.28h3.69a35.23,35.23,0,0,1,8.2.77,26.93,26.93,0,0,1,6.56,2.73,26.39,26.39,0,0,1,9.69,9.3,25.3,25.3,0,0,1,3.54,13.42,42.37,42.37,0,0,1-1,10A23.53,23.53,0,0,1,7539.11,1208.79Zm-21-22.93a11.52,11.52,0,0,0-5.21-.93h-4l-1.88.32v1.87a24.3,24.3,0,0,0,.88,7.3,7.84,7.84,0,0,0,2.82,4.12A7.25,7.25,0,0,0,7515,1200a6.3,6.3,0,0,0,5.35-2.63,8.66,8.66,0,0,0,1.95-5.19Q7522.34,1188,7518.07,1185.86Z"/><path class="cls-1" d="M7570.67,1196.45a9,9,0,0,0,3.71,3.86,19.69,19.69,0,0,0,6.89,1.8,5.87,5.87,0,0,0,1,.1h1.24a72.19,72.19,0,0,0,13.78-2l2.77-.72-4.93,18.93-4.12.61a75.84,75.84,0,0,1-9.35.62q-16.26,0-25.51-7.76a25,25,0,0,1-9.25-20.11,26,26,0,0,1,.1-2.62c.07-.65.21-1.7.41-3.14a28.46,28.46,0,0,1,3-8.74q6.38-11.71,20.25-13.16c.55,0,1.22,0,2-.1s1.56-.1,2.31-.1a25.75,25.75,0,0,1,8.74,1.33,27.54,27.54,0,0,1,13.58,9.57q5.55,7.5,5.55,18.2l.1,3.39Zm2.57-17.17a6.51,6.51,0,0,0-4,2.21,6.38,6.38,0,0,0-1.54,4.27h13.47a6.51,6.51,0,0,0-6.58-6.59A6,6,0,0,0,7573.24,1179.28Z"/><path class="cls-1" d="M7639.88,1187.14l-2.06-.31a7.22,7.22,0,0,0-4.52,1.08c-1.72.93-2.95,3-3.71,6.33l-.2,1.45v23.38h-20.88v-33.73h-5.14l5.14-20.36h20.88v5.25q3.39-4.11,10.49-5.86a23.23,23.23,0,0,1,4.62-.52h1.65Z"/><path class="cls-1" d="M7674.22,1185.24h-3.7v33.83H7649v-33.83h-7.41l5.15-20.26H7649v-7.31l21.49-5.26V1165h8.84Z"/></g><g id="Boxmeer"><path class="cls-1" d="M8307.59,1886.89a20.47,20.47,0,0,1-5.55,2.57,23.38,23.38,0,0,1-6.46.82h-37.07v-52.44h-5.13l5.13-21.6h38a18.81,18.81,0,0,1,10.16,2.88q8.42,5.36,8.42,15v1.14a17.85,17.85,0,0,1-.2,2,18.58,18.58,0,0,1-9,13.78l1.85,1.34q5.34,4.11,7.29,8.07a22.94,22.94,0,0,1,2,10.13Q8316.93,1880.72,8307.59,1886.89Zm-22.69-50.7h-4.21v8.64h5a11.58,11.58,0,0,0,2.21-.21c.72-.13,1.35-.27,1.9-.41a3.91,3.91,0,0,0,2.77-3.8,3.69,3.69,0,0,0-.93-2.37,4.33,4.33,0,0,0-2.25-1.49A19.6,19.6,0,0,0,8284.9,1836.19Zm-.62,23.45h-3.59v10H8288a3.63,3.63,0,0,0,3-1.57,4.93,4.93,0,0,0,1-3.57Q8292,1859.64,8284.28,1859.64Z"/><path class="cls-1" d="M8375.14,1877.4a28.72,28.72,0,0,1-18.79,13.5,30.62,30.62,0,0,1-6.77.72,28.89,28.89,0,0,1-24.33-13.53,31.09,31.09,0,0,1-3.5-9.4l-.41-2.88c0-.48,0-1,0-1.6s-.05-1-.05-1.18q0-9.77,7.08-18.1a27.53,27.53,0,0,1,17.35-9.15,31.36,31.36,0,0,1,4.52-.31h2.06a22.45,22.45,0,0,1,9,1.75,35.26,35.26,0,0,1,8.31,5.36,18.66,18.66,0,0,1,3.6,3.81,27.4,27.4,0,0,1,1.95,31Zm-22.89-21.57a10.51,10.51,0,0,0-2.47-.31,9.47,9.47,0,0,0-6.16,2.73,6.68,6.68,0,0,0-1.74,4.68q-.52,5.85,4.72,8a21.47,21.47,0,0,0,2.15.72,7.79,7.79,0,0,0,1.44.1,7.53,7.53,0,0,0,7.5-6,10.49,10.49,0,0,0,.3-2.47Q8358,1857.69,8352.25,1855.83Z"/><path class="cls-1" d="M8419.59,1890.28l-7.91-14.81-7.18,14.81h-25.36l17.45-28.38-16.53-25.71h25.88l5.33,12.34,6-12.34h24.23l-15.81,25.4,18.17,28.69Z"/><path class="cls-1" d="M8530,1890.28h-20.63v-29.2q0-4.85-6.78-4.84h-2.26l-1.54.42v33.62H8478v-29.1a3.81,3.81,0,0,0-.82-2.26,7.7,7.7,0,0,0-2.41-2.06,6.87,6.87,0,0,0-3.54-.92,12.37,12.37,0,0,0-2.47.3l-1.23.41v33.63h-20.74v-34.34h-5.13l5.13-19.75h20.74v10l4.24-10h13q4.23,0,8.68,3.5a18.62,18.62,0,0,1,3.93,4.52c.27.41.58.93.93,1.54a4,4,0,0,1,.41,1l4.79-10.59H8515a17.09,17.09,0,0,1,6.88,1.13,13.49,13.49,0,0,1,5,4.42,18.87,18.87,0,0,1,2.55,5.87,21.15,21.15,0,0,1,.61,4.21v17.69h5.13Z"/><path class="cls-1" d="M8559.52,1867.66a8.93,8.93,0,0,0,3.69,3.85,19.32,19.32,0,0,0,6.88,1.8,5.15,5.15,0,0,0,1,.11h1.23a71.93,71.93,0,0,0,13.76-2l2.77-.72-4.93,18.92-4.11.62a75.56,75.56,0,0,1-9.34.62q-16.22,0-25.46-7.77a25,25,0,0,1-9.24-20.1,25.4,25.4,0,0,1,.11-2.62c.06-.65.2-1.7.41-3.14a28.36,28.36,0,0,1,3-8.74q6.38-11.71,20.23-13.16c.54,0,1.21,0,2-.1s1.56-.11,2.31-.11a25.76,25.76,0,0,1,8.73,1.34,27.55,27.55,0,0,1,13.55,9.56q5.53,7.51,5.54,18.2l.1,3.4Zm2.56-17.17a6.48,6.48,0,0,0-4,2.21,6.33,6.33,0,0,0-1.54,4.26H8570a6.49,6.49,0,0,0-6.57-6.58A6,6,0,0,0,8562.08,1850.49Z"/><path class="cls-1" d="M8618,1867.66a8.89,8.89,0,0,0,3.7,3.85,19.26,19.26,0,0,0,6.88,1.8,5.05,5.05,0,0,0,1,.11h1.24a71.75,71.75,0,0,0,13.75-2l2.78-.72-4.93,18.92-4.11.62a75.56,75.56,0,0,1-9.34.62q-16.23,0-25.46-7.77a25,25,0,0,1-9.24-20.1,25.89,25.89,0,0,1,.1-2.62c.07-.65.21-1.7.41-3.14a28.63,28.63,0,0,1,3-8.74q6.36-11.71,20.22-13.16c.55,0,1.22,0,2-.1s1.55-.11,2.31-.11a25.65,25.65,0,0,1,8.72,1.34,27.51,27.51,0,0,1,13.55,9.56q5.55,7.51,5.55,18.2l.1,3.4Zm2.57-17.17a6.46,6.46,0,0,0-4,2.21,6.33,6.33,0,0,0-1.54,4.26h13.45a6.49,6.49,0,0,0-6.57-6.58A5.92,5.92,0,0,0,8620.6,1850.49Z"/><path class="cls-1" d="M8687.12,1858.34l-2.05-.31a7.3,7.3,0,0,0-4.52,1.09q-2.56,1.38-3.69,6.33l-.21,1.44v23.39h-20.84v-33.73h-5.13l5.13-20.36h20.84v5.25q3.39-4.12,10.47-5.87a23.94,23.94,0,0,1,4.63-.51h1.64Z"/></g><g id="Sint_Anthonis" data-name="Sint Anthonis"><path class="cls-1" d="M7539,1640.46a23.88,23.88,0,0,1-5.66,5.76,28,28,0,0,1-7.3,3.55,39.18,39.18,0,0,1-11.72,1.39,34.66,34.66,0,0,1-5.86-.52,77.52,77.52,0,0,1-8.49-2.16,54.36,54.36,0,0,1-10.74-4.52l5.86-21.39,3.39,1.54q5.86,2.58,9.41,3.75a18.84,18.84,0,0,0,5.19,1.19,9.57,9.57,0,0,0,1.55.1,7.77,7.77,0,0,0,3.08-.62,3,3,0,0,0,1.85-2.88,3.41,3.41,0,0,0-.56-1.74,3.31,3.31,0,0,0-1.49-1.34l-.42-.21-3.7-1.44-8.94-3.39q-7.83-3-11.37-8.18t-3.55-13.41a20.43,20.43,0,0,1,2.22-9.67,23.32,23.32,0,0,1,13.31-10.85,33.4,33.4,0,0,1,9.36-1.08c1.3,0,2.67,0,4.11.1s2.88.21,4.32.41l.72-2.49,19.44,3.83-6.58,23.55a32.42,32.42,0,0,0-8.33-3.8,37.69,37.69,0,0,0-8.64-1.75,8.64,8.64,0,0,0-2.62.41,3.7,3.7,0,0,0-1.91,1.23,3,3,0,0,0-.61,1.85,2.5,2.5,0,0,0,.56,1.55,3.08,3.08,0,0,0,1.49,1l10.6,3.81,3.49,1.44q13.47,7.1,13.47,20.46a25.22,25.22,0,0,1-.31,3.81A24.63,24.63,0,0,1,7539,1640.46Z"/><path class="cls-1" d="M7572.08,1649.72h-21.6V1616h-5.14l5.25-20.22h21.49V1629h5.14Zm.2-58.51h-21.49l4.73-18.41h21.7Z"/><path class="cls-1" d="M7633,1649.72h-20.77v-29.93a3.57,3.57,0,0,0-1.54-2.93,6.78,6.78,0,0,0-4.22-1.18,15.54,15.54,0,0,0-1.75.1,11.74,11.74,0,0,0-1.95.41l-1,.31v33.22h-20.77v-34h-5.14l5.14-20h20.77V1605l4.32-9.35h11.83a20.58,20.58,0,0,1,5.65.61,13.59,13.59,0,0,1,4.22,2.27,11.78,11.78,0,0,1,3.39,4,16.39,16.39,0,0,1,1.85,8.12v18.3h5.14Z"/><path class="cls-1" d="M7667.71,1615.88H7664v33.84h-21.5v-33.84h-7.4l5.14-20.25h2.26v-7.32l21.5-5.25v12.57h8.84Z"/><path class="cls-1" d="M7747.81,1649.72l-2.06-10.29h-20.87l-3,10.29h-23.76l14.44-54.09-5.15,0,7.26-19.93h36.72l20.88,74ZM7735.27,1598l-5.66,21.9h11.52Z"/><path class="cls-1" d="M7826.48,1649.72H7805.7v-29.93a3.57,3.57,0,0,0-1.54-2.93,6.75,6.75,0,0,0-4.21-1.18,15.41,15.41,0,0,0-1.75.1,11.84,11.84,0,0,0-2,.41l-1,.31v33.22h-20.77v-34h-5.14l5.14-20h20.77V1605l4.32-9.35h11.83a20.53,20.53,0,0,1,5.65.61,13.48,13.48,0,0,1,4.22,2.27,11.78,11.78,0,0,1,3.39,4,16.28,16.28,0,0,1,1.86,8.12v18.3h5.14Z"/><path class="cls-1" d="M7861.23,1615.88h-3.7v33.84H7836v-33.84h-7.41l5.15-20.25H7836v-7.32l21.49-5.25v12.57h8.84Z"/><path class="cls-1" d="M7921.28,1649.72h-21.49V1620.2q0-4.32-6.37-4.32h-2l-1.44.21v33.63h-21.49v-56.18h-5.14l5.66-20.74h21v31l4.32-8.22H7907a13.47,13.47,0,0,1,7.1,2,13.74,13.74,0,0,1,4.83,4.63,21.08,21.08,0,0,1,2.26,7.45l.1,1.75v17.48h5.15Z"/><path class="cls-1" d="M7981,1636.84a28.73,28.73,0,0,1-18.82,13.49,30.8,30.8,0,0,1-6.79.72,27.9,27.9,0,0,1-18-6.37,28.51,28.51,0,0,1-6.38-7.15,30.89,30.89,0,0,1-3.49-9.41l-.42-2.88c0-.48,0-1-.05-1.59s-.05-1-.05-1.18q0-9.78,7.1-18.1a27.44,27.44,0,0,1,17.38-9.15,31.16,31.16,0,0,1,4.52-.31h2.06a22.41,22.41,0,0,1,9,1.75,35,35,0,0,1,8.32,5.36,18.16,18.16,0,0,1,3.6,3.81,27.33,27.33,0,0,1,2,31Zm-22.93-21.57a10,10,0,0,0-2.47-.31,9.18,9.18,0,0,0-1.54.2,8.61,8.61,0,0,0-4.63,2.52,6.65,6.65,0,0,0-1.75,4.68q-.51,5.87,4.73,8a16.81,16.81,0,0,0,2.16.72,8.18,8.18,0,0,0,6.27-1.54,7.58,7.58,0,0,0,2.68-4.32,10.38,10.38,0,0,0,.31-2.47C7963.86,1619,7961.93,1616.5,7958.1,1615.27Z"/><path class="cls-1" d="M8042.93,1649.72h-20.77v-29.93a3.6,3.6,0,0,0-1.54-2.93,6.78,6.78,0,0,0-4.22-1.18,15.54,15.54,0,0,0-1.75.1,11.74,11.74,0,0,0-1.95.41l-1,.31v33.22H7990.9v-34h-5.14l5.14-20h20.77V1605l4.32-9.35h11.82a20.61,20.61,0,0,1,5.66.61,13.59,13.59,0,0,1,4.22,2.27,11.78,11.78,0,0,1,3.39,4,16.39,16.39,0,0,1,1.85,8.12v18.3h5.14Z"/><path class="cls-1" d="M8073.37,1649.72h-21.6V1616h-5.14l5.25-20.22h21.49V1629h5.14Zm.2-58.51h-21.49l4.73-18.41h21.7Z"/><path class="cls-1" d="M8105.45,1650.23a29.61,29.61,0,0,1-5.35.41,53.21,53.21,0,0,1-14.7-2.47l-2.27-.72-1.74-.61-1.75-.62,4.42-17.38,2.57,1.44,1.75,1,.82.41,1.24.51a25.64,25.64,0,0,0,3.24,1.08,10.7,10.7,0,0,0,2.41.47,3.85,3.85,0,0,0,2.26-.72,2.26,2.26,0,0,0,1-2,2.17,2.17,0,0,0-.72-1.54l-2.57-1.23-6.27-2q-10.08-3.07-10.08-12.95c0-1.1,0-2,.1-2.57a27.17,27.17,0,0,1,.62-3,15.89,15.89,0,0,1,3.86-7.25,19.42,19.42,0,0,1,7.56-4.57,22.64,22.64,0,0,1,7.61-1.13,36.46,36.46,0,0,1,6.11.46,39.6,39.6,0,0,1,6.38,1.75,37.46,37.46,0,0,1,7.15,3.44l-5,15.94a29.87,29.87,0,0,0-4.32-2.67,20.43,20.43,0,0,0-5.55-1.65,3.11,3.11,0,0,0-1.7.57,2,2,0,0,0-.88,1.8,2,2,0,0,0,.62,1.44l.93.51,8.43,3,2.26,1q7.6,4.32,7.61,12.24a20.17,20.17,0,0,1-.41,4.11,15.63,15.63,0,0,1-4.88,8.69Q8112.44,1648.9,8105.45,1650.23Z"/></g><g id="Boekel"><path class="cls-1" d="M7002.14,1733.39a20.47,20.47,0,0,1-5.55,2.57,23.53,23.53,0,0,1-6.48.82H6953v-52.44h-5.14l5.14-21.6h38a18.86,18.86,0,0,1,10.18,2.88q8.43,5.36,8.44,15v1.13a16.32,16.32,0,0,1-.21,2,18.59,18.59,0,0,1-9,13.78l1.85,1.34q5.36,4.11,7.3,8.07a22.94,22.94,0,0,1,2,10.13Q7011.5,1727.22,7002.14,1733.39Zm-22.73-50.7h-4.21v8.64h5a11.58,11.58,0,0,0,2.21-.21c.72-.13,1.35-.27,1.9-.41a3.91,3.91,0,0,0,2.78-3.8,3.69,3.69,0,0,0-.93-2.37,4.36,4.36,0,0,0-2.26-1.49A19.64,19.64,0,0,0,6979.41,1682.69Zm-.61,23.45h-3.6v10h7.3a3.63,3.63,0,0,0,3-1.57,4.89,4.89,0,0,0,1-3.57Q6986.51,1706.14,6978.8,1706.14Z"/><path class="cls-1" d="M7069.8,1723.9a28.78,28.78,0,0,1-18.82,13.5,30.65,30.65,0,0,1-6.78.72,27.94,27.94,0,0,1-18-6.38,28.26,28.26,0,0,1-6.37-7.14,31,31,0,0,1-3.5-9.41l-.41-2.88c0-.48,0-1-.05-1.6s-.05-1-.05-1.18q0-9.77,7.09-18.1a27.58,27.58,0,0,1,17.38-9.15,31.36,31.36,0,0,1,4.52-.31h2.06a22.51,22.51,0,0,1,9.05,1.75,35.55,35.55,0,0,1,8.33,5.36,18.66,18.66,0,0,1,3.6,3.81,27.35,27.35,0,0,1,1.95,31Zm-22.93-21.57a10.45,10.45,0,0,0-2.47-.31,9.5,9.5,0,0,0-6.17,2.73,6.69,6.69,0,0,0-1.75,4.68q-.51,5.85,4.73,8a20.69,20.69,0,0,0,2.16.72,7.79,7.79,0,0,0,1.44.1,7.53,7.53,0,0,0,7.51-6,10,10,0,0,0,.31-2.47Q7052.63,1704.19,7046.87,1702.33Z"/><path class="cls-1" d="M7100.44,1714.16a8.92,8.92,0,0,0,3.71,3.85,19.26,19.26,0,0,0,6.89,1.8,5.05,5.05,0,0,0,1,.11h1.24a72.19,72.19,0,0,0,13.78-2l2.77-.72-4.93,18.92-4.12.62a75.84,75.84,0,0,1-9.35.62q-16.26,0-25.51-7.77a25,25,0,0,1-9.25-20.1,25.89,25.89,0,0,1,.1-2.62c.07-.65.21-1.7.41-3.14a28.36,28.36,0,0,1,3-8.74q6.38-11.71,20.25-13.16c.55,0,1.22,0,2-.1s1.56-.11,2.31-.11a25.73,25.73,0,0,1,8.74,1.34,27.59,27.59,0,0,1,13.58,9.56q5.55,7.51,5.55,18.2l.1,3.4ZM7103,1697a6.51,6.51,0,0,0-4,2.21,6.38,6.38,0,0,0-1.54,4.26h13.47a6.49,6.49,0,0,0-6.58-6.58A6,6,0,0,0,7103,1697Z"/><path class="cls-1" d="M7169.44,1736.78l-9.66-21.49v21.49h-21.5v-56.17h-5.14l5.14-20.75h21.5V1699l8.12-16.35h22.62l-13,24.48,15.52,29.61Z"/><path class="cls-1" d="M7216.85,1714.16a8.89,8.89,0,0,0,3.7,3.85,19.26,19.26,0,0,0,6.89,1.8,5.07,5.07,0,0,0,1,.11h1.23a72.09,72.09,0,0,0,13.78-2l2.77-.72-4.93,18.92-4.11.62a76.12,76.12,0,0,1-9.36.62q-16.24,0-25.5-7.77a25,25,0,0,1-9.26-20.1c0-1.1,0-2,.1-2.62s.21-1.7.42-3.14a28.36,28.36,0,0,1,3-8.74q6.38-11.71,20.26-13.16c.54,0,1.21,0,2-.1s1.56-.11,2.31-.11a25.84,25.84,0,0,1,8.75,1.34,27.61,27.61,0,0,1,13.57,9.56q5.55,7.51,5.55,18.2l.1,3.4Zm2.57-17.17a6.46,6.46,0,0,0-4,2.21,6.33,6.33,0,0,0-1.55,4.26h13.47a6.49,6.49,0,0,0-6.58-6.58A5.88,5.88,0,0,0,7219.42,1697Z"/><path class="cls-1" d="M7276.18,1736.78h-21.49v-56.17h-5.15l6.69-20.75h20V1716h5.24Z"/></g><g id="Uden"><path class="cls-1" d="M6839.69,1387.51q-5.55,17.49-24.68,19.34a16.69,16.69,0,0,1-2.62.2h-2.11q-10.48,0-17.89-4.73a23.67,23.67,0,0,1-10.08-12.65,34.14,34.14,0,0,1-1.44-5.14,21.87,21.87,0,0,1-.41-3.7v-27.25h-5.14l5.14-21.9h23v46.17a5.7,5.7,0,0,0,1.85,4.32,7.05,7.05,0,0,0,5,1.75,8,8,0,0,0,5.55-2,6.84,6.84,0,0,0,2.16-5.35v-44.93H6841v47.71a25.88,25.88,0,0,1-.31,3.91A25.53,25.53,0,0,1,6839.69,1387.51Z"/><path class="cls-1" d="M6903.74,1405.72h-21.58v-9.26l-3.79,9.26h-10.26a13.45,13.45,0,0,1-4.71-1,34.94,34.94,0,0,1-6-3.19q-8.82-5.87-10.77-17.58c-.21-1.24-.34-2.13-.41-2.68a22.7,22.7,0,0,1-.1-2.57,24.08,24.08,0,0,1,.92-6.58q3.39-13.15,13.53-18.41a20.6,20.6,0,0,1,5-2,26.13,26.13,0,0,1,6.05-.62h1.74c.89.14,2.05.26,3.49.36a23.71,23.71,0,0,1,5.33,1.19v-3.19h-3.91l4.63-20.67h20.87V1385h5.15Zm-21.58-27.46q-.93-7.92-7-7.92a17.32,17.32,0,0,0-2.78.26,6.18,6.18,0,0,0-3.29,2.16,6.5,6.5,0,0,0-1.75,4.57q0,4.32,2.78,6.23c1.85,1.26,5.17,1.9,10,1.9l1.75-.11.31-2.26v-4.83Z"/><path class="cls-1" d="M6933.37,1383.09a8.92,8.92,0,0,0,3.7,3.86,19.32,19.32,0,0,0,6.89,1.8,5.14,5.14,0,0,0,1,.1h1.23a72.61,72.61,0,0,0,13.78-1.95l2.78-.72-4.94,18.92-4.11.62a75.78,75.78,0,0,1-9.36.61q-16.24,0-25.5-7.76a25,25,0,0,1-9.25-20.1,26.25,26.25,0,0,1,.1-2.63c.07-.65.2-1.69.41-3.13a28.53,28.53,0,0,1,3-8.74q6.38-11.73,20.26-13.17c.55,0,1.21,0,2-.1s1.56-.1,2.32-.1a25.78,25.78,0,0,1,8.74,1.34,27.5,27.5,0,0,1,13.57,9.56q5.55,7.5,5.55,18.2l.11,3.39Zm2.57-17.17a6.48,6.48,0,0,0-4,2.21,6.33,6.33,0,0,0-1.54,4.27h13.47a6.51,6.51,0,0,0-6.58-6.58A6.07,6.07,0,0,0,6935.94,1365.92Z"/><path class="cls-1" d="M7023.24,1405.72h-20.77v-29.93a3.57,3.57,0,0,0-1.54-2.93,6.78,6.78,0,0,0-4.22-1.18,15.54,15.54,0,0,0-1.75.1,11.74,11.74,0,0,0-1.95.41l-1,.31v33.22h-20.77v-34h-5.14l5.14-20H6992V1361l4.32-9.35h11.83a20.58,20.58,0,0,1,5.65.61,13.59,13.59,0,0,1,4.22,2.27,11.78,11.78,0,0,1,3.39,4,16.39,16.39,0,0,1,1.85,8.12v18.3h5.14Z"/></g><g id="Veghel"><path class="cls-1" d="M6429.27,1785.72h-21.08l-22.41-74h23.44l10.29,37.22,11.82-37.22H6455Z"/><path class="cls-1" d="M6477.91,1763.09a8.94,8.94,0,0,0,3.71,3.86,19.26,19.26,0,0,0,6.88,1.8,5.21,5.21,0,0,0,1,.1h1.24a72.82,72.82,0,0,0,13.78-1.95l2.77-.72-4.93,18.92-4.12.62a75.75,75.75,0,0,1-9.35.61q-16.26,0-25.51-7.76a25,25,0,0,1-9.25-20.1,26.25,26.25,0,0,1,.1-2.63c.07-.65.21-1.69.41-3.13a28.27,28.27,0,0,1,3-8.74q6.38-11.73,20.25-13.17c.55,0,1.22,0,2-.1s1.56-.1,2.31-.1a25.78,25.78,0,0,1,8.74,1.34,27.53,27.53,0,0,1,13.58,9.56q5.55,7.5,5.55,18.2l.1,3.39Zm2.57-17.17a6.51,6.51,0,0,0-4,2.21,6.38,6.38,0,0,0-1.54,4.27h13.47a6.49,6.49,0,0,0-6.58-6.58A6.13,6.13,0,0,0,6480.48,1745.92Z"/><path class="cls-1" d="M6553.13,1803.71a26.87,26.87,0,0,1-5.95.82c-2.58.14-5.68.21-9.32.21a40.44,40.44,0,0,1-10.74-1.24,44.68,44.68,0,0,1-9.82-4.21l4-16.45a40.73,40.73,0,0,0,10.13,3.3,47.07,47.07,0,0,0,7.24.71q9.46,0,9.47-6.84v-5.19l-4.09,7.91h-2.66q-8.08,0-11.66-.92a20.69,20.69,0,0,1-12.27-7.7q-4.7-6.15-4.7-15.39V1757a12,12,0,0,0,.21-1.84,27.38,27.38,0,0,1,4.52-12.63,26.21,26.21,0,0,1,14.81-10.88,28.87,28.87,0,0,1,7.3-1.12,15.35,15.35,0,0,1,4.78.72,14.49,14.49,0,0,1,4.06,2l1.44-1.64h19.75V1784q0,8.41-3.64,12.73T6553.13,1803.71Zm-5-45.55a8.57,8.57,0,0,0-1.55-5.22,4.67,4.67,0,0,0-3.9-2.08,9.4,9.4,0,0,0-6.17,1.85,6.27,6.27,0,0,0-2.27,5.14,5.44,5.44,0,0,0,2.83,5c1.89,1.09,4.95,1.64,9.2,1.64h1.86Z"/><path class="cls-1" d="M6630.51,1785.72H6609V1756.2q0-4.32-6.37-4.32h-2l-1.44.21v33.63h-21.49v-56.18h-5.14l5.65-20.74h21v31l4.32-8.22h12.65a13.44,13.44,0,0,1,7.09,2,13.69,13.69,0,0,1,4.84,4.63,21.08,21.08,0,0,1,2.26,7.45l.1,1.75v17.48h5.14Z"/><path class="cls-1" d="M6660.13,1763.09a8.92,8.92,0,0,0,3.7,3.86,19.32,19.32,0,0,0,6.89,1.8,5.07,5.07,0,0,0,1,.1H6673a72.61,72.61,0,0,0,13.78-1.95l2.78-.72-4.94,18.92-4.11.62a75.78,75.78,0,0,1-9.36.61q-16.24,0-25.5-7.76a25,25,0,0,1-9.26-20.1,25.76,25.76,0,0,1,.11-2.63c.06-.65.2-1.69.41-3.13a28.27,28.27,0,0,1,3-8.74q6.38-11.73,20.26-13.17c.54,0,1.21,0,2-.1s1.56-.1,2.32-.1a25.82,25.82,0,0,1,8.74,1.34,27.5,27.5,0,0,1,13.57,9.56q5.55,7.5,5.55,18.2l.11,3.39Zm2.57-17.17a6.48,6.48,0,0,0-4,2.21,6.34,6.34,0,0,0-1.55,4.27h13.48a6.51,6.51,0,0,0-6.59-6.58A6,6,0,0,0,6662.7,1745.92Z"/><path class="cls-1" d="M6719.46,1785.72H6698v-56.18h-5.14l6.68-20.74h19.95V1765h5.24Z"/></g><g id="Bernheze"><path class="cls-1" d="M6085.61,1186.32a20.18,20.18,0,0,1-5.55,2.57,23.52,23.52,0,0,1-6.48.83h-37.12v-52.45h-5.14l5.14-21.59h38.05a18.91,18.91,0,0,1,10.18,2.88q8.43,5.34,8.43,15v1.13a16.43,16.43,0,0,1-.21,2.06,18.62,18.62,0,0,1-9,13.78l1.85,1.33q5.34,4.13,7.3,8.08a22.9,22.9,0,0,1,1.95,10.12Q6095,1180.15,6085.61,1186.32Zm-22.72-50.69h-4.22v8.63h5a11.57,11.57,0,0,0,2.21-.2c.72-.14,1.36-.27,1.91-.41a3.91,3.91,0,0,0,2.77-3.81,3.71,3.71,0,0,0-.92-2.36,4.32,4.32,0,0,0-2.27-1.49A19.6,19.6,0,0,0,6062.89,1135.63Zm-.62,23.44h-3.6v10h7.3a3.65,3.65,0,0,0,3-1.58,4.93,4.93,0,0,0,1-3.57Q6070,1159.07,6062.27,1159.07Z"/><path class="cls-1" d="M6123.15,1167.09a8.92,8.92,0,0,0,3.7,3.86,19.26,19.26,0,0,0,6.89,1.8,5.07,5.07,0,0,0,1,.1H6136a72.71,72.71,0,0,0,13.78-1.95l2.78-.72-4.94,18.92-4.11.62a75.78,75.78,0,0,1-9.36.61q-16.24,0-25.5-7.76a25,25,0,0,1-9.26-20.1,25.76,25.76,0,0,1,.11-2.63c.06-.65.2-1.69.41-3.13a28.27,28.27,0,0,1,3-8.74q6.38-11.73,20.26-13.17c.54,0,1.21,0,2-.1s1.56-.1,2.32-.1a25.82,25.82,0,0,1,8.74,1.34,27.5,27.5,0,0,1,13.57,9.56q5.55,7.5,5.55,18.2l.11,3.39Zm2.57-17.17a6.48,6.48,0,0,0-4,2.21,6.34,6.34,0,0,0-1.55,4.27h13.47a6.49,6.49,0,0,0-6.58-6.58A6,6,0,0,0,6125.72,1149.92Z"/><path class="cls-1" d="M6192.35,1157.78l-2.06-.31a7.22,7.22,0,0,0-4.52,1.08q-2.58,1.4-3.7,6.34l-.21,1.44v23.39H6161V1156h-5.14l5.14-20.36h20.87v5.24q3.39-4.11,10.49-5.86a24,24,0,0,1,4.63-.51h1.64Z"/><path class="cls-1" d="M6252.81,1189.72H6232v-29.93a3.57,3.57,0,0,0-1.54-2.93,6.76,6.76,0,0,0-4.22-1.18,15.24,15.24,0,0,0-1.74.1,11.84,11.84,0,0,0-2,.41l-1,.31v33.22h-20.77v-34h-5.14l5.14-20h20.77V1145l4.32-9.35h11.83a20.53,20.53,0,0,1,5.65.61,13.59,13.59,0,0,1,4.22,2.27,11.78,11.78,0,0,1,3.39,4,16.28,16.28,0,0,1,1.85,8.12v18.3H6258Z"/><path class="cls-1" d="M6314.41,1189.72h-21.49V1160.2q0-4.32-6.38-4.32h-1.95l-1.44.21v33.63h-21.49v-56.18h-5.14l5.65-20.74h21v31l4.32-8.22h12.65a13.44,13.44,0,0,1,7.09,2,13.65,13.65,0,0,1,4.83,4.63,21.06,21.06,0,0,1,2.27,7.45l.1,1.75v17.48h5.14Z"/><path class="cls-1" d="M6344,1167.09a8.94,8.94,0,0,0,3.71,3.86,19.26,19.26,0,0,0,6.89,1.8,5,5,0,0,0,1,.1h1.24a72.82,72.82,0,0,0,13.78-1.95l2.77-.72-4.93,18.92-4.12.62a75.75,75.75,0,0,1-9.35.61q-16.26,0-25.51-7.76a25,25,0,0,1-9.25-20.1,26.25,26.25,0,0,1,.1-2.63c.07-.65.21-1.69.41-3.13a28.27,28.27,0,0,1,3-8.74q6.38-11.73,20.25-13.17c.55,0,1.22,0,2-.1s1.56-.1,2.31-.1a25.73,25.73,0,0,1,8.74,1.34,27.53,27.53,0,0,1,13.58,9.56q5.55,7.5,5.55,18.2l.1,3.39Zm2.57-17.17a6.51,6.51,0,0,0-4,2.21,6.38,6.38,0,0,0-1.54,4.27h13.47a6.49,6.49,0,0,0-6.58-6.58A6.13,6.13,0,0,0,6346.59,1149.92Z"/><path class="cls-1" d="M6412,1189.72h-33.83l11.4-33.73h-10l4.93-20.35h32.72l-10.9,33.31h10.92Z"/><path class="cls-1" d="M6443.87,1167.09a8.92,8.92,0,0,0,3.7,3.86,19.32,19.32,0,0,0,6.89,1.8,5.14,5.14,0,0,0,1,.1h1.23a72.61,72.61,0,0,0,13.78-1.95l2.78-.72-4.94,18.92-4.11.62a75.78,75.78,0,0,1-9.36.61q-16.24,0-25.5-7.76a25,25,0,0,1-9.25-20.1,26.25,26.25,0,0,1,.1-2.63c.07-.65.2-1.69.41-3.13a28.53,28.53,0,0,1,3-8.74q6.38-11.73,20.26-13.17c.55,0,1.21,0,2-.1s1.56-.1,2.32-.1a25.78,25.78,0,0,1,8.74,1.34,27.5,27.5,0,0,1,13.57,9.56q5.55,7.5,5.55,18.2l.11,3.39Zm2.57-17.17a6.48,6.48,0,0,0-4,2.21,6.33,6.33,0,0,0-1.54,4.27h13.47a6.51,6.51,0,0,0-6.58-6.58A6.07,6.07,0,0,0,6446.44,1149.92Z"/></g><g id="Maasdonk"><path class="cls-1" d="M5922.08,731.45V690.21l-13.16,15.94L5895,691.34v40.11h-23V680h-5.14l5.14-22.62h23.24L5908.61,673,5921,657.41h22.62v74Z"/><path class="cls-1" d="M6006.71,731.45h-21.49v-7.61l-4.63,7.61H5978q-9.26,0-15.63-3.49a27.83,27.83,0,0,1-7.61-6.37,26.34,26.34,0,0,1-6.07-16.83,36.46,36.46,0,0,1,.52-5.64,31.62,31.62,0,0,1,4-11.24,23.68,23.68,0,0,1,7.86-7.55,25.2,25.2,0,0,1,5.25-2.66,16,16,0,0,1,4.16-1c1.06-.07,1.94-.14,2.62-.21s1.37-.1,2.06-.1a20.58,20.58,0,0,1,12,3.5l.83-2.47h18.71v33.21H6012ZM5985.22,702a5,5,0,0,0-1.39-3.26,5.31,5.31,0,0,0-3-1.91,14.79,14.79,0,0,0-2.26-.32,7.68,7.68,0,0,0-3.91,1.14l-1.55,1.33a6.68,6.68,0,0,0-1.95,4.73,6.15,6.15,0,0,0,3.6,5.86q2,1,8.64,1h1.85Z"/><path class="cls-1" d="M6070.67,731.45h-21.49v-7.61l-4.63,7.61H6042q-9.25,0-15.63-3.49a27.83,27.83,0,0,1-7.61-6.37,26.34,26.34,0,0,1-6.07-16.83,36.46,36.46,0,0,1,.52-5.64,31.62,31.62,0,0,1,4-11.24,23.68,23.68,0,0,1,7.86-7.55,25.2,25.2,0,0,1,5.25-2.66,16,16,0,0,1,4.16-1c1.06-.07,1.94-.14,2.62-.21s1.37-.1,2.06-.1a20.58,20.58,0,0,1,12,3.5l.82-2.47h18.72v33.21h5.24ZM6049.18,702a5,5,0,0,0-1.39-3.26,5.31,5.31,0,0,0-3-1.91,14.79,14.79,0,0,0-2.26-.32,7.68,7.68,0,0,0-3.91,1.14L6037,699a6.68,6.68,0,0,0-1.95,4.73,6.15,6.15,0,0,0,3.6,5.86q1.95,1,8.64,1h1.85Z"/><path class="cls-1" d="M6102.85,732a29.57,29.57,0,0,1-5.34.41,53.28,53.28,0,0,1-14.71-2.47l-2.26-.72-1.75-.61L6077,728l4.43-17.38L6084,712l1.75,1,.82.41,1.23.52a30.76,30.76,0,0,0,3.24,1.08,11.18,11.18,0,0,0,2.42.46,3.87,3.87,0,0,0,2.26-.72,2.28,2.28,0,0,0,1-2,2.17,2.17,0,0,0-.72-1.54l-2.57-1.23-6.28-2q-10.08-3.08-10.07-13a16.91,16.91,0,0,1,.72-5.55,15.86,15.86,0,0,1,3.85-7.25,19.58,19.58,0,0,1,7.56-4.58,22.94,22.94,0,0,1,7.61-1.13,36.67,36.67,0,0,1,6.12.46,39.52,39.52,0,0,1,6.37,1.75,36.89,36.89,0,0,1,7.15,3.44l-5,15.94a28.82,28.82,0,0,0-4.32-2.67,20.43,20.43,0,0,0-5.55-1.65,3.14,3.14,0,0,0-1.7.57,2.15,2.15,0,0,0-.25,3.24l.92.51,8.43,3,2.27,1q7.6,4.32,7.61,12.24a19.48,19.48,0,0,1-.42,4.11,15.54,15.54,0,0,1-4.88,8.69Q6109.85,730.63,6102.85,732Z"/><path class="cls-1" d="M6120.23,706.87V692.78h28v14.09Z"/><path class="cls-1" d="M5896.77,854.84h-21.58v-9.25l-3.79,9.25h-10.26a13.23,13.23,0,0,1-4.71-1,34.14,34.14,0,0,1-6.05-3.18q-8.82-5.86-10.77-17.59c-.2-1.23-.34-2.12-.41-2.67a22.7,22.7,0,0,1-.1-2.57,24.47,24.47,0,0,1,.92-6.58q3.39-13.17,13.54-18.41a20.53,20.53,0,0,1,5-1.95,26.19,26.19,0,0,1,6.05-.62h1.74c.89.14,2.05.26,3.49.36a23.49,23.49,0,0,1,5.33,1.18v-3.19h-3.91l4.63-20.66h20.88V834.1h5.14Zm-21.58-27.45c-.61-5.28-2.95-7.92-7-7.92a17.32,17.32,0,0,0-2.78.26,6.18,6.18,0,0,0-3.29,2.16,6.54,6.54,0,0,0-1.75,4.57c0,2.88.93,5,2.78,6.22s5.18,1.91,10,1.91l1.74-.11.31-2.26v-4.83Z"/><path class="cls-1" d="M5956.53,842a28.75,28.75,0,0,1-18.82,13.5,30.74,30.74,0,0,1-6.79.72,27.87,27.87,0,0,1-18-6.38,28.51,28.51,0,0,1-6.38-7.14,31.16,31.16,0,0,1-3.49-9.41l-.41-2.88c0-.48,0-1,0-1.59s-.06-1-.06-1.19q0-9.76,7.1-18.1a27.56,27.56,0,0,1,17.38-9.15,32.75,32.75,0,0,1,4.52-.31h2.06a22.38,22.38,0,0,1,9,1.76,35.17,35.17,0,0,1,8.33,5.35,19.22,19.22,0,0,1,3.6,3.81,27.35,27.35,0,0,1,1.95,31ZM5933.6,820.4a10,10,0,0,0-2.47-.31,9.18,9.18,0,0,0-1.54.2,8.51,8.51,0,0,0-4.63,2.52,6.65,6.65,0,0,0-1.75,4.68q-.51,5.87,4.73,8a20.69,20.69,0,0,0,2.16.72,7.64,7.64,0,0,0,1.44.1,7.55,7.55,0,0,0,7.51-6,10.45,10.45,0,0,0,.31-2.47Q5939.36,822.25,5933.6,820.4Z"/><path class="cls-1" d="M6018.43,854.84h-20.77V824.92a3.56,3.56,0,0,0-1.54-2.93,6.78,6.78,0,0,0-4.22-1.18,15.54,15.54,0,0,0-1.75.1,10.8,10.8,0,0,0-1.95.41l-1,.31v33.21H5966.4v-34h-5.14l5.14-20.06h20.77v9.36l4.32-9.36h11.83a20.52,20.52,0,0,1,5.65.62,13.54,13.54,0,0,1,4.22,2.26,12,12,0,0,1,3.39,4,16.35,16.35,0,0,1,1.85,8.13v18.3h5.14Z"/><path class="cls-1" d="M6058.43,854.84l-9.66-21.49v21.49h-21.5V798.67h-5.14l5.14-20.74h21.5V817.1l8.12-16.35h22.62l-12.95,24.48,15.52,29.61Z"/></g><g id="Den_Bosch" data-name="Den Bosch"><path class="cls-1" d="M5243.18,850.53A37.1,37.1,0,0,1,5232,866.26a34.13,34.13,0,0,1-11.42,6.53,45.9,45.9,0,0,1-14.39,2h-21.7V822.87h-5.14l5.14-22.11h26.33a35.15,35.15,0,0,1,32.49,22.32,30.85,30.85,0,0,1,1.7,7,78.89,78.89,0,0,1,.46,9.41,25.08,25.08,0,0,1-.57,5.24A41.19,41.19,0,0,1,5243.18,850.53Zm-28.49-26a15.83,15.83,0,0,0-7.19-1.55v28.49h2.05a13.43,13.43,0,0,0,9-4.27,13.65,13.65,0,0,0,3.45-9.61,19.7,19.7,0,0,0-.31-3.3A13.65,13.65,0,0,0,5214.69,824.52Z"/><path class="cls-1" d="M5272.17,852.18a8.92,8.92,0,0,0,3.71,3.85,19.26,19.26,0,0,0,6.89,1.8,5.05,5.05,0,0,0,1,.11H5285a73,73,0,0,0,13.78-2l2.77-.72-4.93,18.92-4.12.62a75.84,75.84,0,0,1-9.35.62q-16.26,0-25.51-7.77a25,25,0,0,1-9.25-20.1,25.89,25.89,0,0,1,.1-2.62c.07-.65.21-1.7.41-3.14a28.36,28.36,0,0,1,3-8.74q6.38-11.71,20.25-13.16c.55,0,1.22,0,2-.1s1.56-.11,2.31-.11a25.73,25.73,0,0,1,8.74,1.34,27.59,27.59,0,0,1,13.58,9.56q5.55,7.51,5.55,18.2l.1,3.4Zm2.57-17.18a6.57,6.57,0,0,0-4,2.22,6.38,6.38,0,0,0-1.54,4.26h13.47a6.49,6.49,0,0,0-6.58-6.58A6.84,6.84,0,0,0,5274.74,835Z"/><path class="cls-1" d="M5362.05,874.8h-20.77V844.88a3.55,3.55,0,0,0-1.55-2.93,6.75,6.75,0,0,0-4.21-1.19,15.65,15.65,0,0,0-1.75.11,10.63,10.63,0,0,0-2,.41l-1,.31V874.8H5310v-34h-5.15l5.15-20h20.77v9.36l4.32-9.36h11.82a20.6,20.6,0,0,1,5.66.62,13.3,13.3,0,0,1,4.21,2.26,12,12,0,0,1,3.4,4,16.42,16.42,0,0,1,1.85,8.12V854h5.14Z"/><path class="cls-1" d="M5449.86,871.41a20.47,20.47,0,0,1-5.55,2.57,23.53,23.53,0,0,1-6.48.82h-37.12V822.36h-5.14l5.14-21.6h38.05a18.91,18.91,0,0,1,10.18,2.88q8.43,5.36,8.43,15v1.14a16.32,16.32,0,0,1-.21,2.05,18.57,18.57,0,0,1-9.05,13.78L5450,837q5.34,4.11,7.3,8.07a22.94,22.94,0,0,1,1.95,10.13Q5459.22,865.24,5449.86,871.41Zm-22.72-50.7h-4.22v8.64h5a11.58,11.58,0,0,0,2.21-.21c.72-.13,1.35-.27,1.9-.41a3.91,3.91,0,0,0,2.78-3.8,3.69,3.69,0,0,0-.93-2.37,4.32,4.32,0,0,0-2.26-1.49A19.6,19.6,0,0,0,5427.14,820.71Zm-.62,23.45h-3.6v10h7.3a3.64,3.64,0,0,0,3-1.57,4.93,4.93,0,0,0,1-3.57Q5434.23,844.16,5426.52,844.16Z"/><path class="cls-1" d="M5517.52,861.92a28.76,28.76,0,0,1-18.81,13.5,30.8,30.8,0,0,1-6.79.72,27.94,27.94,0,0,1-18-6.38,28.32,28.32,0,0,1-6.37-7.15,30.83,30.83,0,0,1-3.5-9.4l-.41-2.88c0-.48,0-1-.05-1.6s-.05-1-.05-1.18q0-9.76,7.09-18.1A27.58,27.58,0,0,1,5488,820.3a31.4,31.4,0,0,1,4.53-.31h2.05a22.51,22.51,0,0,1,9.05,1.75,35.35,35.35,0,0,1,8.33,5.36,18.66,18.66,0,0,1,3.6,3.81,27.35,27.35,0,0,1,2,31Zm-22.93-21.57a10.38,10.38,0,0,0-2.47-.31,9.5,9.5,0,0,0-6.17,2.73,6.68,6.68,0,0,0-1.74,4.68q-.53,5.85,4.73,8a20.69,20.69,0,0,0,2.16.72,7.64,7.64,0,0,0,1.44.1,7.53,7.53,0,0,0,7.5-6,10,10,0,0,0,.31-2.47Q5500.35,842.21,5494.59,840.35Z"/><path class="cls-1" d="M5550.63,875.31a28.59,28.59,0,0,1-5.34.42,53.6,53.6,0,0,1-14.71-2.47l-2.26-.72-1.75-.62-1.75-.62,4.43-17.37,2.57,1.43,1.74,1,.83.41,1.23.52a30.76,30.76,0,0,0,3.24,1.08,10.58,10.58,0,0,0,2.42.46,3.87,3.87,0,0,0,2.26-.72,2.28,2.28,0,0,0,1-1.95,2.15,2.15,0,0,0-.72-1.54l-2.57-1.24-6.28-1.95q-10.08-3.09-10.07-13a16.91,16.91,0,0,1,.72-5.55,15.86,15.86,0,0,1,3.85-7.25,19.58,19.58,0,0,1,7.56-4.58,22.9,22.9,0,0,1,7.61-1.13,37.77,37.77,0,0,1,6.12.46,40.59,40.59,0,0,1,6.37,1.75,36.94,36.94,0,0,1,7.15,3.45l-5,15.94a28.2,28.2,0,0,0-4.32-2.68,20.65,20.65,0,0,0-5.55-1.64,3.2,3.2,0,0,0-1.7.56,2.15,2.15,0,0,0-.25,3.24l.92.52,8.43,3,2.27,1q7.61,4.32,7.61,12.23a19.64,19.64,0,0,1-.42,4.12,15.61,15.61,0,0,1-4.88,8.69Q5557.63,874,5550.63,875.31Z"/><path class="cls-1" d="M5603.69,841.59a8.17,8.17,0,0,0-4.32-1.34,8.73,8.73,0,0,0-6.47,2.26,9.1,9.1,0,0,0-2.57,6.17,6.66,6.66,0,0,0,2.41,5.4,9.89,9.89,0,0,0,6.53,2,9.48,9.48,0,0,0,3-.51h1.24l4,19.13-3.4.61a35.14,35.14,0,0,1-5.65.42,31.63,31.63,0,0,1-10.95-1.86,25.94,25.94,0,0,1-8.8-5.24q-7.81-7.3-8.94-16.45a23.93,23.93,0,0,1-.31-2.73c-.07-1.06-.1-2-.1-2.72a22.69,22.69,0,0,1,1.08-7.36,30.34,30.34,0,0,1,3.85-7.14,15.19,15.19,0,0,1,1.6-2.11c.58-.65,1.32-1.39,2.21-2.21q7.6-6.88,16.24-8a29.24,29.24,0,0,1,4.22-.31,24.91,24.91,0,0,1,10.28,2.16Z"/><path class="cls-1" d="M5666.73,874.8h-21.49V845.29q0-4.32-6.38-4.32h-1.95l-1.44.2V874.8H5614V818.63h-5.15l5.66-20.75h21v31.06l4.32-8.23h12.64a13.39,13.39,0,0,1,7.1,2,13.72,13.72,0,0,1,4.83,4.62,21.14,21.14,0,0,1,2.26,7.46l.11,1.75V854h5.14Z"/></g></g></svg>