<?xml version="1.0" encoding="utf-8"?>
<!-- Generator: Adobe Illustrator 22.1.0, SVG Export Plug-In . SVG Version: 6.00 Build 0)  -->
<svg id="Noord-Brabant" xmlns="http://www.w3.org/2000/svg" viewBox="0 0 8793.31 4636.18" height="95vh">
<style>
			.st0{
				fill:#fff;
			}
			.st1{
				fill:#fff;
				stroke:#000;
				stroke-miterlimit:10;
				stroke-width:2px;
			}
			svg g {
				cursor: pointer;
			}
			.st2{
				fill:#fff;
				stroke:#000;
				stroke-miterlimit:10;
				stroke-width:5px;
				transition: .2s;
			}
			.st2:hover {
				fill:#e74c3c;
			}
			svg g:hover .st2 {
				fill:#e74c3c;
			}
		</style>
<path id="Noord-Brabant_Base" class="st0" d="M4166.2,41.2l4.7,0.8l1.7,1.3c0,0,5.2-0.6,6.9-1.6s2.4-1.4,2.4-1.4l2.6,2.7h0.3v-0.7
	l1.1,0l-0.1-0.5l-0.5-0.6l0-3.1l-1.4-1.7l-0.2-3.2l-0.3-0.7l-2.6-2.6c0,0-2.4-1.1-2.8-2c-0.4-0.9-0.4-5.4-0.4-5.4s-0.5-0.9-0.6-2.5
	c-0.2-1.6-0.2-1.4-0.8-1.8s-0.8-0.5-1.4-0.6s-2.1,0-2.6-0.2c-0.5-0.2-2.2-1.1-2.2-1.5c0-0.4-0.2-3.2-0.5-3.6
	c-0.3-0.4-0.7-1.1-1.7-1.2c-1.1-0.1-6.8,0.8-6.8,0.8c-1.7,0.2-3.4,0.2-4.6-1c-0.5-0.5-1-2.1-1.6-2.2c-0.6-0.1-1.6,0-2-0.2
	c-1-0.6-1.1-2.5-2.2-2.5c-2.2,0-2.1-0.3-2.5-0.9c-0.3-0.5-1.4-3.4-2-3.4c-1.1,0-1,0-1.8,0c-0.3,0-1.5-1.5-2.5-1.5
	c-1,0-2.9,0-3.6,0.3c-0.4,0.2-1,1.7-1.6,1.8c-0.4,0-1.6-0.3-1.9-0.4c-0.3-0.1-0.8-0.7-1.2-1c-0.4-0.4-0.5-0.6-1.6-0.8
	c-0.7-0.1-1.1,0.7-1.2,0.9s0,1.4-0.9,1.6c-0.7,0.2-1.8,0.7-2.5,0.6c-0.7,0-1.9-0.2-2.2-0.7c-0.3-0.4-0.4-1.2-0.9-1.3
	c-0.6,0-0.9-0.1-1.1,0.1c-0.1,0.2-3,5.1-3,5.1l-1,1.7c0,0,0.4,2.2-0.1,2.9c-0.3,0.4-3.5,2-3.9,2.2c-0.3,0.2-2,1.3-2.3,1.4
	c-0.5,0-0.9-0.6-1.5-0.6c-0.7,0-0.8-0.1-1.3,0.1s-1.2,0.9-1.7,0.8c-0.5,0-1.4-1.4-2.2-1.3c-0.7,0-1.5,0-1.8,0.2
	c-0.4,0.2-1.8,0.2-2.4-0.1s-1.9,0-2.4,0.1c-0.5,0.1-3.1,0.7-3.1,0.7c0,0,0-0.8,0.1-1s1.5-1.3,1.6-1.5c0.1-0.2-0.5-0.7-0.6-0.9
	s0.1-0.9,0.2-1.2s0.1-0.9,0.1-1s-1.5-0.4-1.9-0.7c-0.4-0.3-1.2-1.3-1.4-1.4c-0.2-0.1-1.2-0.2-1.3-0.1c-0.1,0.1-1.1,1.3-1.6,1.2
	c-0.5,0-1.4-0.8-1.6-1.8s-2-1.8-2.4-1.9s-1.6-0.7-2-1.2c-0.4-0.5,0-1.2-0.4-1.4c-0.4-0.2-6.4-1.5-7-1.5c-0.5,0-1,0-1.4,0.1
	c-0.3,0-2.4,0.8-3.5,1.7c-1.1,0.9-3.2,2.9-3.9,2.9c-0.7,0.1-2.9-0.3-3.6-0.3c-0.7,0-2.3,0.4-3.4,1.2c-1,0.7-1.4,1.1-1.9,2.1
	s-1,3-1.5,3.4c-0.5,0.4-3.4,3.3-4,3.5c-0.5,0.3-1.1,0.5-1.4,0.7c-0.3,0.2-0.8,0.8-1.1,0.9s-2.2,0.7-3,0.8c-0.8,0.1-1.8,0.6-2.5,0.8
	c-0.7,0.3-2.8,1.6-3.3,1.7c-0.5,0.1-3.1,1-3.6,1c-0.5,0.1-2.3,0.3-3.1,0.3c-0.8-0.1-3.4-0.6-4.6-1.3c-1.1-0.7-3.5-1.6-4-1.4
	c-0.5,0.2-4.3,3.7-4.5,4.1c-0.2,0.4-0.6,2.8-1.7,3.1c-1.1,0.3-3.1,1.7-4.1,1.8c-1,0-3.3,1.1-4.1,1.1c-0.8,0-2.7-0.4-2.9-0.3
	c-0.2,0.1-1.1,2-1.4,2.1c-0.3,0.1-1.9,0.5-2.6,1.1c-0.7,0.5-1.2,1.5-1.5,2.3c-0.3,0.8-0.2,1.7-0.1,2.1c0,0.4,2.2,3.5,2.7,4
	c0.5,0.5,1.5,2.6,1.5,3.3s-1,3.9-1.2,4.3s-0.6,1.5-0.7,2.3c0,0.8,4.7,10.5,4.8,10.8c0.1,0.3,1,1.8,0.8,2.2c-0.3,0.4-1.3,1.2-1.3,1.7
	c0,0.5,0.5,1.6,0.4,1.9c-0.1,0.3,0.1,2-0.1,2.3s0.1,0.6,0.2,0.7c0.1,0.1,0.3,1.1,0.5,1.1c0.2,0.1,5.7-0.3,5.8-0.1s0.5,2.9,0.6,3
	c0.2,0.1,1.8-0.1,2,0c0.2,0.1,1.9,0.6,2.2,0.6c0.3,0,3.3-1.6,3.7-1.6c0.4,0,0.7,0.1,0.7-0.1c0-0.1-0.3-0.7-0.3-0.8
	c0-0.1,0.5-0.5,0.5-0.6c0-0.1-0.1-0.7-0.4-0.9c-0.2-0.2-3.1-3.8-3.3-4.2c-0.2-0.4-0.8-1.7-0.8-2c0-0.3,1.2-1.1,1.2-1.4
	c0-0.3,0.1-2.6-0.1-2.7c-0.2,0-1.2,0-1.3-0.1c-0.1-0.1-0.1-0.3,0.2-0.4s5.5-2.9,6-3c0.5-0.1,1.6,0,1.9-0.2s0.6-1.1,1.1-1.1
	c0.5,0,5.9-0.7,6.1-0.5c0.2,0.1,0.9,1,0.8,1.2c0,0.2-1.7,3.2-1.7,3.6s0.1,4.3,0.4,4.3s3.6-1.4,4-1.4c0.4,0,5.2,0.8,5.4,1
	c0.2,0.1,0.5,0.8,0.8,0.8c0.3,0,0.8-0.8,1.1-0.9s1.7,0.4,1.9,0.3c0.1-0.2-0.1-2.9,0-3c0.1-0.2,2.1-0.9,2.4-1.1
	c0.2-0.2,1-2.1,1.2-2.3s0.8,0,1-0.2c0.1-0.2,1.3-2.2,1.5-2.3c0.1-0.1,1.7-0.8,1.8-1.1c0.2-0.3,0.2-1.1,0.2-1.2s0.8-0.6,0.9-0.7
	c0.1,0,1.3-0.4,1.5-0.3s0.5,0.8,0.9,0.9s0.8-0.1,1.1,0c0.3,0.1,1.7,0.5,1.8,0.8c0.1,0.3,0.2,1.8,0.5,1.8c0.3,0,1.8,0.1,1.8,0.2
	s-0.4,1.9-0.4,2.2s0.3,0.9,0.4,1.1s-0.7,0.5-1,0.8c-0.3,0.2-0.4,0.6-0.4,0.8c0,0.2,0.5,4,0.3,4.1c-0.2,0.1-1.7-0.6-2.1-0.9
	c-0.4-0.3-1,0-1.3-0.1c-0.3-0.1-0.6-0.7-0.9-0.7s-1.5,0.1-1.5,0.3s0.2,2.8,0.4,2.9s1.4,0.8,1.7,0.7s4.3-0.9,4.5-0.8s2.1,0.2,2.2,0.3
	c0.1,0.1,0.4,0.5,0.6,0.5c0.2,0,0.1-0.7,0.1-0.8c0.1-0.1,0.3,0.1,0.4,0.1s0.4-0.1,0.5-0.2c0.1-0.2,0-0.3,0.2-0.3
	c0.2,0,0.4,0.3,0.4,0.3c0.1,0,0.2-0.1,0.3-0.2c0,0,0.1-0.1,0.2-0.1c0.1,0,0.2,0.1,0.2,0.2s0.5,0.3,0.7,0.3c0.2,0,0.4-0.1,0.5-0.2
	c0.1-0.1,0.2-0.1,0.3,0c0.1,0.1,0.9,2.1,1,2.3c0.1,0.2,1.3,0.5,1.6,0.5c0.3,0,4-4.6,4.3-4.9c0.2-0.2,3.1-2.2,3.2-2.5
	c0.1-0.3-0.1-0.9,0-1.1c0.1-0.1,0.6-0.2,0.6-0.4s-0.3-1.4-0.3-1.7c0-0.4,1.4-2.5,1.6-2.7c0.2-0.2,0.7-0.7,1.1-0.7
	c0.3,0,0.2,1.3,0.4,1.5c0.1,0.2,0.5,1.1,0.9,1c0.4-0.1,2.8-0.2,3,0c0.2,0.2,2.6,6.4,2.4,6.5c-0.2,0.2-3.3,5.3-3.3,5.5s4.5,5,4.5,5.3
	s1.4,1.6,1.4,2c0,0.4-0.1,4.7,0.2,4.9c0.3,0.3,2.4,0.7,2.6,0.7c0.2,0,1.1-0.9,1.4-1c0.3-0.1,2.2-0.8,2.4-0.7
	c0.2,0.1,4.1,2.5,4.1,2.7c0,0.2-1.5,5.6-1.5,5.7c0,0.1,0.5,1.2,1,1.2c0.5,0,2-0.9,2.4-0.8c0.4,0,2.8,0.7,3.2,0.7
	c0.4,0,4.1,0.3,4.4-0.2c0.3-0.4,0.3-2,0.7-1.9c0.3,0.1,6.5,1.9,6.7,1.9c0.2,0,1.7-2.1,1.7-2.1c0.1,0,0.7-0.1,0.8-0.3
	c0.1-0.2-0.1-0.7,0.2-0.7c0.3,0,2,0,2.3-0.3c0.3-0.3,1.1-1.7,1.1-1.8c0.1-0.1,0.5-0.5,0.7-0.5c0.1,0,2.7,0.4,2.9,0.7
	c0.2,0.2,1.2,2,1.9,2.6s2,1.8,2.2,2c0.1,0.2,0.2,6.6,0.3,6.8c0.2,0.2,1.7,0,2-0.2c0.3-0.1,1.7-0.4,2-0.4s1.6-0.2,1.7-0.4
	s0.4-6.8,0.5-7.2s4.3-6.2,4.6-6.3c0.3-0.2,19-5.6,19.5-5.9s5.8-4.4,5.8-5c0-0.6-5.7-9.7-5.8-10.3c-0.1-0.6-1-6.3-1.2-7
	c-0.2-0.6-0.5-1.1-0.7-1.5C4167.5,50.3,4166.2,41.2,4166.2,41.2z"/>
<g id="Boxmeer_1_" onclick="openGemeente('Boxmeer')">
	<path id="Boxmeer" class="st1" d="M4167.8,25c0,0,1.3-1.1,2-1.1c0.7,0,1.9-0.8,1.9-1.2c0-0.4-0.5-0.3-0.4-0.6c0.1-0.3,2.4-3,2.5-3
		c0.1,0,1.2-0.6,1.3-1.4c0,0,1.1,0.1,1.9,0.9c0.3,0.4,0.2,1.5,0.4,2.2c0.2,0.9,0.6,1.8,0.6,2.3c0,1,0.1,4.2,0.1,4.2s0.6,1.7,2.5,2.3
		c0.9,0.3,1.4,1.2,1.9,1.8c0.6,0.6,1.4,1.1,1.4,1.8c0,1.5,0.2,3.2,0.2,3.2l1.4,1.7c0,0,0,1.7,0,2.1c0,0.3,0,0.8,0,1l0.5,0.6l0.1,0.5
		l-1.1,0V43h-0.3l-2.6-2.7c0,0-2.1,1.3-3.4,1.8c-1.3,0.5-5.2,1.1-5.2,1.1l-0.7,0.1l-1.7-1.3l-1.8-0.3V40l0.6-0.4v-0.4l1.4-0.7v-0.3
		l0.7-0.5l0.2,0.1l0.2,0.1l0.2,0l2.6-1.4l0-0.6h0.3l0-0.4l1.4-0.7c0,0-1.3-1-1.8-2.2c-0.5-1.1-0.5-1.7-0.6-1.8s-2.7-1.8-2.7-1.8
		s-0.4,0.1-0.5,0s-0.5-0.2-0.6-0.2c-0.2,0-0.7,0.4-1,0.3c-0.3,0-0.3-0.1-0.3-0.1s-0.1-0.4-0.1-0.4s0-0.5,0-0.5l0.1-0.2l0.2-0.2
		l0-0.1l-1.7-1.2"/>
	<path class="st2" d="M4176.1,38.7c0,0-0.1,0-0.1,0.1c0,0-0.1,0-0.1,0h-0.8v-1.1h-0.1l0.1-0.4h0.8c0.1,0,0.1,0,0.2,0.1
		c0.1,0.1,0.2,0.2,0.2,0.3v0c0,0,0,0,0,0c0,0.1-0.1,0.2-0.2,0.3l0,0c0.1,0.1,0.1,0.1,0.1,0.2c0,0.1,0,0.1,0,0.2
		C4176.3,38.5,4176.3,38.6,4176.1,38.7z M4175.7,37.6L4175.7,37.6l-0.1,0.2h0.1c0,0,0,0,0,0c0,0,0,0,0,0c0,0,0.1,0,0.1-0.1
		c0,0,0,0,0,0C4175.8,37.6,4175.8,37.6,4175.7,37.6C4175.7,37.6,4175.7,37.6,4175.7,37.6L4175.7,37.6z M4175.7,38.1L4175.7,38.1
		l-0.1,0.2h0.1c0,0,0,0,0.1,0c0,0,0,0,0-0.1C4175.8,38.1,4175.8,38.1,4175.7,38.1L4175.7,38.1z"/>
	<path class="st2" d="M4177.5,38.5c-0.1,0.1-0.2,0.2-0.4,0.3c0,0-0.1,0-0.1,0c-0.2,0-0.4-0.1-0.5-0.3c0-0.1-0.1-0.1-0.1-0.2l0-0.1
		c0,0,0,0,0,0c0,0,0,0,0,0c0-0.1,0-0.3,0.1-0.4c0.1-0.1,0.2-0.2,0.4-0.2c0,0,0.1,0,0.1,0h0c0.1,0,0.1,0,0.2,0c0.1,0,0.1,0.1,0.2,0.1
		c0,0,0.1,0,0.1,0.1C4177.6,38,4177.6,38.3,4177.5,38.5L4177.5,38.5z M4177.1,38C4177,38,4177,38,4177.1,38c-0.1,0-0.1,0-0.2,0
		c0,0,0,0.1,0,0.1c0,0.1,0,0.1,0.1,0.2c0,0,0,0,0,0c0,0,0,0,0,0c0.1,0,0.1-0.1,0.2-0.1c0,0,0,0,0-0.1
		C4177.2,38.1,4177.1,38.1,4177.1,38z"/>
	<path class="st2" d="M4178.4,38.7l-0.2-0.3l-0.1,0.3h-0.5l0.4-0.6l-0.3-0.5h0.5l0.1,0.3l0.1-0.3h0.5l-0.3,0.5l0.4,0.6H4178.4z"/>
	<path class="st2" d="M4180.7,38.7h-0.4v-0.6c0-0.1,0-0.1-0.1-0.1h0l0,0v0.7h-0.4v-0.6c0,0,0,0,0,0c0,0,0,0,0,0c0,0,0,0-0.1,0
		c0,0,0,0-0.1,0l0,0v0.7h-0.4V38h-0.1l0.1-0.4h0.4v0.2l0.1-0.2h0.3c0.1,0,0.1,0,0.2,0.1c0,0,0.1,0.1,0.1,0.1c0,0,0,0,0,0
		c0,0,0,0,0,0l0.1-0.2h0.2c0,0,0.1,0,0.1,0c0,0,0.1,0.1,0.1,0.1c0,0,0,0.1,0.1,0.1c0,0,0,0.1,0,0.1v0.4h0.1L4180.7,38.7z"/>
	<path class="st2" d="M4181.3,38.3C4181.3,38.3,4181.3,38.3,4181.3,38.3c0.1,0.1,0.2,0.1,0.2,0.1c0,0,0,0,0,0h0c0.1,0,0.2,0,0.3,0
		l0.1,0l-0.1,0.4l-0.1,0c-0.1,0-0.1,0-0.2,0c-0.2,0-0.4-0.1-0.5-0.2c-0.1-0.1-0.2-0.3-0.2-0.4c0,0,0,0,0-0.1c0,0,0,0,0-0.1
		c0-0.1,0-0.1,0.1-0.2c0.1-0.2,0.2-0.2,0.4-0.3c0,0,0,0,0,0s0,0,0,0c0.1,0,0.1,0,0.2,0c0.1,0,0.2,0.1,0.3,0.2
		c0.1,0.1,0.1,0.2,0.1,0.4l0,0.1L4181.3,38.3z M4181.4,37.9C4181.3,37.9,4181.3,37.9,4181.4,37.9c-0.1,0.1-0.1,0.1-0.1,0.1h0.3
		C4181.5,38,4181.5,37.9,4181.4,37.9C4181.4,37.9,4181.4,37.9,4181.4,37.9C4181.4,37.9,4181.4,37.9,4181.4,37.9L4181.4,37.9z"/>
	<path class="st2" d="M4182.5,38.3C4182.5,38.3,4182.5,38.3,4182.5,38.3c0.1,0.1,0.2,0.1,0.2,0.1c0,0,0,0,0,0h0c0.1,0,0.2,0,0.3,0
		l0.1,0l-0.1,0.4l-0.1,0c-0.1,0-0.1,0-0.2,0c-0.2,0-0.4-0.1-0.5-0.2c-0.1-0.1-0.2-0.3-0.2-0.4c0,0,0,0,0-0.1c0,0,0,0,0-0.1
		c0-0.1,0-0.1,0.1-0.2c0.1-0.2,0.2-0.2,0.4-0.3c0,0,0,0,0,0c0,0,0,0,0,0c0.1,0,0.1,0,0.2,0c0.1,0,0.2,0.1,0.3,0.2
		c0.1,0.1,0.1,0.2,0.1,0.4l0,0.1L4182.5,38.3z M4182.6,37.9C4182.5,37.9,4182.5,37.9,4182.6,37.9c-0.1,0.1-0.1,0.1-0.1,0.1h0.3
		C4182.7,38,4182.7,37.9,4182.6,37.9C4182.6,37.9,4182.6,37.9,4182.6,37.9C4182.6,37.9,4182.6,37.9,4182.6,37.9L4182.6,37.9z"/>
	<path class="st2" d="M4183.9,38.1L4183.9,38.1c-0.1,0-0.1,0-0.1,0c0,0-0.1,0.1-0.1,0.1l0,0v0.5h-0.4V38h-0.1l0.1-0.4h0.4v0.1
		c0-0.1,0.1-0.1,0.2-0.1c0,0,0.1,0,0.1,0h0L4183.9,38.1z"/>
</g>
<g id="Sint_Anthonis_1_" onclick="openGemeente('Sint Anthonis')">
	<path id="Sint_Anthonis" class="st1" d="M4169.1,41.7V40l0.6-0.4v-0.4l1.4-0.7v-0.3l0.7-0.5l0.6,0.2l2.6-1.4l0-0.6h0.3l0-0.4
		l1.4-0.7c0,0-2.2-1.8-2.4-3.9l-2.7-1.8c0,0-0.3,0.1-0.4,0c-0.1,0-0.5-0.3-0.8-0.2c-0.3,0.1-0.7,0.5-1.1,0.3
		c-0.3-0.2-0.3-1.2-0.1-1.3c0.2-0.1,0.3-0.2,0-0.4l-1.5-1.1l0.2-1.4l-1.5-1.4l-2.5,2.1l-0.6,0.1l-0.3,0.6l-0.9,0.2l-0.9,1.7l-4,2.6
		l0.9,6.1l2.7-0.7l1.6,3.2l1.9,1.5L4169.1,41.7z"/>
	<path class="st2" d="M4160.4,33.6c0,0-0.1,0.1-0.1,0.1c0,0-0.1,0.1-0.1,0.1c-0.1,0-0.2,0-0.2,0c0,0-0.1,0-0.1,0c-0.1,0-0.1,0-0.2,0
		c-0.1,0-0.2-0.1-0.2-0.1l0.1-0.4l0.1,0c0.1,0,0.1,0.1,0.2,0.1c0,0,0.1,0,0.1,0c0,0,0,0,0,0c0,0,0,0,0.1,0c0,0,0,0,0-0.1
		c0,0,0,0,0,0c0,0,0,0,0,0l0,0l-0.1,0l-0.2-0.1c-0.1,0-0.2-0.1-0.2-0.2s-0.1-0.2-0.1-0.3c0-0.1,0-0.1,0-0.2c0.1-0.1,0.2-0.2,0.3-0.2
		c0.1,0,0.1,0,0.2,0c0,0,0.1,0,0.1,0c0,0,0.1,0,0.1,0l0-0.1l0.4,0.1l-0.1,0.5c-0.1,0-0.1-0.1-0.2-0.1c-0.1,0-0.1,0-0.2,0
		c0,0,0,0-0.1,0c0,0,0,0,0,0c0,0,0,0,0,0c0,0,0,0,0,0c0,0,0,0,0,0l0.2,0.1l0.1,0c0.2,0.1,0.3,0.2,0.3,0.4c0,0,0,0.1,0,0.1
		C4160.5,33.5,4160.4,33.6,4160.4,33.6z"/>
	<path class="st2" d="M4161.1,33.8h-0.4v-0.7h-0.1l0.1-0.4h0.4v0.7h0.1L4161.1,33.8z M4161.1,32.6h-0.4l0.1-0.4h0.4L4161.1,32.6z"/>
	<path class="st2" d="M4162.3,33.8h-0.4v-0.6c0,0,0,0,0-0.1c0,0-0.1,0-0.1,0c0,0,0,0,0,0c0,0,0,0,0,0l0,0v0.7h-0.4v-0.7h-0.1
		l0.1-0.4h0.4v0.2l0.1-0.2h0.2c0,0,0.1,0,0.1,0c0,0,0.1,0,0.1,0c0,0,0.1,0,0.1,0.1c0,0.1,0,0.1,0,0.2v0.4h0.1L4162.3,33.8z"/>
	<path class="st2" d="M4163,33.1L4163,33.1l-0.1,0.7h-0.4v-0.7h-0.2l0.1-0.4h0v-0.1l0.4-0.1v0.3h0.2L4163,33.1z"/>
	<path class="st2" d="M4164.7,33.8l0-0.2h-0.4l-0.1,0.2h-0.5l0.3-1.1h-0.1l0.1-0.4h0.8l0.4,1.5L4164.7,33.8z M4164.4,32.7l-0.1,0.4
		h0.2L4164.4,32.7z"/>
	<path class="st2" d="M4166.3,33.8h-0.4v-0.6c0,0,0,0,0-0.1c0,0-0.1,0-0.1,0c0,0,0,0,0,0c0,0,0,0,0,0l0,0v0.7h-0.4v-0.7h-0.1
		l0.1-0.4h0.4v0.2l0.1-0.2h0.2c0,0,0.1,0,0.1,0c0,0,0.1,0,0.1,0c0,0,0.1,0,0.1,0.1c0,0.1,0,0.1,0,0.2v0.4h0.1L4166.3,33.8z"/>
	<path class="st2" d="M4167,33.1L4167,33.1l-0.1,0.7h-0.4v-0.7h-0.2l0.1-0.4h0v-0.1l0.4-0.1v0.3h0.2L4167,33.1z"/>
	<path class="st2" d="M4168.2,33.8h-0.4v-0.6c0-0.1,0-0.1-0.1-0.1h0l0,0v0.7h-0.4v-1.2h-0.1l0.1-0.4h0.4v0.6l0.1-0.2h0.3
		c0.1,0,0.1,0,0.1,0c0,0,0.1,0.1,0.1,0.1c0,0,0,0.1,0,0.2l0,0v0.4h0.1L4168.2,33.8z"/>
	<path class="st2" d="M4169.4,33.5c-0.1,0.1-0.2,0.2-0.4,0.3c0,0-0.1,0-0.1,0c-0.1,0-0.3,0-0.4-0.1c-0.1,0-0.1-0.1-0.1-0.1
		c0-0.1-0.1-0.1-0.1-0.2l0-0.1c0,0,0,0,0,0s0,0,0,0c0-0.1,0-0.3,0.1-0.4c0.1-0.1,0.2-0.2,0.4-0.2c0,0,0.1,0,0.1,0h0
		c0.1,0,0.1,0,0.2,0c0.1,0,0.1,0.1,0.2,0.1c0,0,0.1,0,0.1,0.1C4169.5,33.1,4169.6,33.3,4169.4,33.5L4169.4,33.5z M4169,33.1
		C4169,33.1,4168.9,33.1,4169,33.1C4168.9,33.1,4168.9,33.1,4169,33.1c-0.1,0-0.2,0-0.2,0c0,0,0,0.1,0,0.1c0,0.1,0,0.1,0.1,0.2
		c0,0,0,0,0,0c0,0,0.1,0,0.1,0c0,0,0-0.1,0.1-0.1c0,0,0,0,0-0.1C4169.1,33.2,4169.1,33.1,4169,33.1L4169,33.1z"/>
	<path class="st2" d="M4170.7,33.8h-0.4v-0.6c0,0,0,0,0-0.1c0,0-0.1,0-0.1,0c0,0,0,0,0,0c0,0,0,0,0,0l0,0v0.7h-0.4v-0.7h-0.1
		l0.1-0.4h0.4v0.2l0.1-0.2h0.2c0,0,0.1,0,0.1,0c0,0,0.1,0,0.1,0c0,0,0.1,0,0.1,0.1c0,0.1,0,0.1,0,0.2v0.4h0.1L4170.7,33.8z"/>
	<path class="st2" d="M4171.3,33.8h-0.4v-0.7h-0.1l0.1-0.4h0.4v0.7h0.1L4171.3,33.8z M4171.3,32.6h-0.4l0.1-0.4h0.4L4171.3,32.6z"/>
	<path class="st2" d="M4172,33.8c0,0-0.1,0-0.1,0c-0.1,0-0.2,0-0.3-0.1l0,0l0,0l0,0l0.1-0.4l0.1,0l0,0l0,0l0,0c0,0,0,0,0.1,0
		c0,0,0,0,0,0c0,0,0,0,0,0c0,0,0,0,0,0c0,0,0,0,0,0l-0.1,0l-0.1,0c-0.1,0-0.2-0.1-0.2-0.3c0,0,0,0,0-0.1c0,0,0,0,0-0.1
		c0-0.1,0-0.1,0.1-0.1c0,0,0.1-0.1,0.2-0.1c0.1,0,0.1,0,0.2,0c0,0,0.1,0,0.1,0c0,0,0.1,0,0.1,0c0.1,0,0.1,0,0.1,0.1l-0.1,0.3
		c0,0-0.1,0-0.1-0.1c0,0-0.1,0-0.1,0c0,0,0,0,0,0c0,0,0,0,0,0c0,0,0,0,0,0l0,0l0.2,0.1l0,0c0.1,0.1,0.2,0.1,0.2,0.3c0,0,0,0.1,0,0.1
		c0,0.1,0,0.1-0.1,0.2C4172.2,33.8,4172.1,33.8,4172,33.8z"/>
</g>
<g id="Cuijk_1_" onclick="openGemeente('Cuijk')">
	<path id="Cuijk" class="st1" d="M4175.1,17.6c0,0-0.2,1.1-1.2,1.4c-0.9,0.3-2.7,3.1-2.6,3.2s0.5,0.2,0.4,0.4
		c-0.1,0.2-1.1,1.1-1.6,1.2c-0.5,0-1.7,0.8-2.1,1.1c-0.4,0.3-1.7-1.5-1.7-1.5l-2.2-3.2l-1.5,0l-0.5-0.4v-0.5L4161,19l0.3-0.3
		l0.1-1.5c0,0,0.5,0,0.5-0.1c-0.1-0.1,0-0.5,0-0.5l-0.1-0.5h-0.2l0.1-0.6h0.2l0.1-0.8h-0.4l0.1-0.9l-1-0.6l0.5-0.7l0.1-0.7
		c0,0,4.5-0.8,6.4-0.8c1.4,0,1.8,0.9,2.1,1.3c0.3,0.4,0.2,3.4,0.8,3.8c0.5,0.5,1.5,1.2,2.5,1.2C4174,17.6,4175.1,17.6,4175.1,17.6z"
		/>
	<path class="st2" d="M4165.7,17.4L4165.7,17.4c-0.2-0.1-0.2-0.1-0.3-0.1c0,0-0.1,0-0.1,0c0,0-0.1,0-0.1,0.1
		c-0.1,0.1-0.1,0.1-0.1,0.2c0,0,0,0.1,0,0.1c0,0.1,0.1,0.2,0.2,0.2c0,0,0.1,0,0.1,0c0.1,0,0.2,0,0.3-0.1l0,0l0.2,0.4
		c-0.1,0.1-0.1,0.1-0.2,0.1c-0.1,0-0.2,0.1-0.3,0.1c0,0,0,0,0,0c0,0,0,0,0,0c-0.1,0-0.2,0-0.3-0.1c-0.1,0-0.1,0-0.2-0.1
		c0,0-0.1-0.1-0.1-0.1c-0.1-0.1-0.1-0.1-0.1-0.2c0-0.1-0.1-0.1-0.1-0.2c0,0,0-0.1,0-0.1c0,0,0-0.1,0-0.1c0,0,0-0.1,0-0.1
		c0,0,0-0.1,0-0.1c0-0.1,0-0.1,0.1-0.2c0.1-0.1,0.1-0.2,0.3-0.3c0,0,0,0,0.1,0c0,0,0,0,0.1,0c0.1,0,0.2-0.1,0.3-0.1c0,0,0.1,0,0.1,0
		l0.1,0l0-0.1l0.4,0.1L4165.7,17.4z"/>
	<path class="st2" d="M4167.1,18.4h-0.4v-0.2l-0.1,0.2h-0.2c-0.1,0-0.1,0-0.2-0.1c-0.1,0-0.1-0.1-0.1-0.2c0,0,0-0.1,0-0.1v-0.4h-0.1
		l0.1-0.4h0.4v0.5c0,0.1,0,0.1,0.1,0.1h0.1v-0.7h0.4V18h0.1L4167.1,18.4z"/>
	<path class="st2" d="M4167.8,18.4h-0.4v-0.7h-0.1l0.1-0.4h0.4V18h0.1L4167.8,18.4z M4167.8,17.2h-0.4l0.1-0.4h0.4L4167.8,17.2z"/>
	<path class="st2" d="M4168.4,18.5c0,0.1-0.1,0.2-0.3,0.2l-0.1,0h-0.3l0.1-0.3h0c0,0,0.1,0,0.1,0s0,0,0-0.1v-0.6h-0.1l0.1-0.4h0.4
		v1.1C4168.4,18.5,4168.4,18.5,4168.4,18.5z M4168.4,17.2h-0.4l0.1-0.4h0.4L4168.4,17.2z"/>
	<path class="st2" d="M4169.2,18.4l-0.2-0.4v0.4h-0.4v-1.2h-0.1l0.1-0.4h0.4v0.8l0.2-0.3h0.5l-0.3,0.5l0.3,0.6H4169.2z"/>
</g>
<g id="Mill_en_St._hubert" onclick="openGemeente('Mill en St. hubert')">
	<polygon id="Mill_en_St._Hubert" class="st1" points="4157.1,30.7 4161.2,28.1 4162,26.4 4162.9,26.2 4163.2,25.6 4163.8,25.5 
		4166.3,23.5 4164.1,20.2 4162.6,20.2 4162.1,19.8 4162.1,19.3 4161,19 4161.3,18.7 4161.4,17.2 4160.8,17.3 4160.5,17.6 
		4159.2,16.7 4157.4,16.9 4157,17.5 4156.4,17 4155.6,16.8 4155.1,17.3 4153.6,16.3 4153.4,16.3 4152.8,17.3 4152.4,18.5 
		4155.8,23.9 4156.2,26.3 4155.3,26.7 4155.7,27.1 4155.9,28 4156.6,28.1 	"/>
	<path class="st2" d="M4157.8,19.9v-0.8l-0.3,0.3l-0.3-0.3v0.8h-0.5v-1.1h-0.1l0.1-0.5h0.5l0.3,0.3l0.3-0.3h0.5v1.5L4157.8,19.9z"/>
	<path class="st2" d="M4158.9,19.9h-0.4v-0.7h-0.1l0.1-0.4h0.4v0.7h0.1L4158.9,19.9z M4158.9,18.7h-0.4l0.1-0.4h0.4L4158.9,18.7z"/>
	<path class="st2" d="M4159.5,19.9h-0.4v-1.2h-0.1l0.1-0.4h0.4v1.2h0.1L4159.5,19.9z"/>
	<path class="st2" d="M4160.1,19.9h-0.4v-1.2h-0.1l0.1-0.4h0.4v1.2h0.1L4160.1,19.9z"/>
	<path class="st2" d="M4157.2,22C4157.2,22,4157.2,22,4157.2,22c0.1,0.1,0.2,0.1,0.2,0.1c0,0,0,0,0,0h0c0.1,0,0.2,0,0.3,0l0.1,0
		l-0.1,0.4l-0.1,0c-0.1,0-0.1,0-0.2,0c-0.2,0-0.4-0.1-0.5-0.2c-0.1-0.1-0.2-0.3-0.2-0.4c0,0,0,0,0-0.1c0,0,0,0,0-0.1
		c0-0.1,0-0.1,0.1-0.2c0.1-0.2,0.2-0.3,0.4-0.3c0,0,0,0,0,0c0,0,0,0,0,0c0.1,0,0.1,0,0.2,0c0.1,0,0.2,0.1,0.3,0.2
		c0.1,0.1,0.1,0.2,0.1,0.4l0,0.1L4157.2,22z M4157.3,21.6C4157.2,21.6,4157.2,21.7,4157.3,21.6c-0.1,0.1-0.1,0.1-0.1,0.1h0.3
		C4157.4,21.7,4157.4,21.6,4157.3,21.6C4157.3,21.6,4157.3,21.6,4157.3,21.6C4157.3,21.6,4157.3,21.6,4157.3,21.6L4157.3,21.6z"/>
	<path class="st2" d="M4159,22.5h-0.4v-0.6c0,0,0,0,0-0.1c0,0-0.1,0-0.1,0c0,0,0,0,0,0c0,0,0,0,0,0l0,0v0.7h-0.4v-0.7h-0.1l0.1-0.4
		h0.4v0.2l0.1-0.2h0.2c0,0,0.1,0,0.1,0c0,0,0.1,0,0.1,0c0,0,0.1,0,0.1,0.1c0,0.1,0,0.1,0,0.2V22h0.1L4159,22.5z"/>
	<path class="st2" d="M4160.8,22.3c0,0-0.1,0.1-0.1,0.1c0,0-0.1,0.1-0.1,0.1c-0.1,0-0.2,0-0.2,0c0,0-0.1,0-0.1,0c-0.1,0-0.1,0-0.2,0
		c-0.1,0-0.2-0.1-0.2-0.1l0.1-0.4l0.1,0c0.1,0,0.1,0.1,0.2,0.1c0,0,0.1,0,0.1,0c0,0,0,0,0,0c0,0,0,0,0.1,0c0,0,0,0,0-0.1
		c0,0,0,0,0,0c0,0,0,0,0,0l0,0l-0.1,0l-0.2-0.1c-0.1,0-0.2-0.1-0.2-0.2c0-0.1-0.1-0.2-0.1-0.3c0-0.1,0-0.1,0-0.2
		c0.1-0.1,0.2-0.2,0.3-0.2c0.1,0,0.1,0,0.2,0c0,0,0.1,0,0.1,0c0,0,0.1,0,0.1,0l0-0.1l0.4,0.1l-0.1,0.5c-0.1,0-0.1-0.1-0.2-0.1
		c-0.1,0-0.1,0-0.2,0c0,0,0,0-0.1,0c0,0,0,0,0,0c0,0,0,0,0,0c0,0,0,0,0,0c0,0,0,0,0,0l0.2,0.1l0.1,0c0.2,0.1,0.3,0.2,0.3,0.4
		c0,0,0,0.1,0,0.1C4160.9,22.1,4160.9,22.2,4160.8,22.3z"/>
	<path class="st2" d="M4161.6,21.8L4161.6,21.8l-0.1,0.7h-0.4v-0.7h-0.2l0.1-0.4h0v-0.1l0.4-0.1v0.3h0.2L4161.6,21.8z"/>
	<path class="st2" d="M4162,22.5C4162,22.5,4162,22.5,4162,22.5c-0.1,0-0.1,0-0.1,0c-0.1,0-0.2-0.1-0.2-0.2l0,0c0,0,0-0.1,0-0.1
		c0,0,0-0.1,0.1-0.1c0,0,0.1-0.1,0.2-0.1h0c0,0,0,0,0,0c0.1,0,0.1,0,0.2,0.1c0,0,0.1,0.1,0.1,0.2c0,0.1,0,0.1-0.1,0.1
		C4162.1,22.4,4162.1,22.5,4162,22.5z"/>
	<path class="st2" d="M4157.9,25h-0.4v-0.6c0-0.1,0-0.1-0.1-0.1h0l0,0V25h-0.4v-1.2h-0.1l0.1-0.4h0.4V24l0.1-0.2h0.3
		c0.1,0,0.1,0,0.1,0c0,0,0.1,0.1,0.1,0.1c0,0,0,0.1,0,0.2l0,0v0.4h0.1L4157.9,25z"/>
	<path class="st2" d="M4159.1,25h-0.4v-0.2l-0.1,0.2h-0.2c-0.1,0-0.1,0-0.2-0.1c-0.1,0-0.1-0.1-0.1-0.2c0,0,0-0.1,0-0.1v-0.4h-0.1
		l0.1-0.4h0.4v0.5c0,0.1,0,0.1,0.1,0.1h0.1v-0.7h0.4v0.7h0.1L4159.1,25z"/>
	<path class="st2" d="M4160.4,24.8c-0.1,0.1-0.2,0.2-0.3,0.2c0,0-0.1,0-0.1,0c-0.1,0-0.2,0-0.2-0.1l-0.1,0.1h-0.4v-1.2h-0.1l0.1-0.4
		h0.4v0.7l0.1-0.2h0.1c0.1,0,0.1,0,0.2,0c0,0,0.1,0,0.1,0.1c0.1,0,0.1,0.1,0.2,0.2c0,0.1,0.1,0.2,0.1,0.3c0,0.1,0,0.1,0,0.2
		C4160.5,24.7,4160.4,24.7,4160.4,24.8z M4160,24.3c0,0-0.1,0-0.1,0h-0.1l0,0v0c0,0.1,0,0.1,0,0.1c0,0,0,0.1,0.1,0.1
		c0,0,0.1,0,0.1,0c0,0,0.1,0,0.1-0.1c0,0,0-0.1,0-0.1C4160,24.4,4160,24.3,4160,24.3L4160,24.3z"/>
	<path class="st2" d="M4161,24.5C4161.1,24.5,4161.1,24.6,4161,24.5c0.1,0.1,0.2,0.1,0.2,0.1c0,0,0,0,0,0h0c0.1,0,0.2,0,0.3,0l0.1,0
		l-0.1,0.4l-0.1,0c-0.1,0-0.1,0-0.2,0c-0.2,0-0.4-0.1-0.5-0.2c-0.1-0.1-0.2-0.3-0.2-0.4c0,0,0,0,0-0.1c0,0,0,0,0-0.1
		c0-0.1,0-0.1,0.1-0.2c0.1-0.2,0.2-0.2,0.4-0.3c0,0,0,0,0,0s0,0,0,0c0.1,0,0.1,0,0.2,0c0.1,0,0.2,0.1,0.3,0.2
		c0.1,0.1,0.1,0.2,0.1,0.4l0,0.1L4161,24.5z M4161.1,24.2C4161.1,24.2,4161,24.2,4161.1,24.2c-0.1,0.1-0.1,0.1-0.1,0.1h0.3
		C4161.3,24.2,4161.2,24.2,4161.1,24.2C4161.1,24.2,4161.1,24.2,4161.1,24.2C4161.1,24.2,4161.1,24.2,4161.1,24.2L4161.1,24.2z"/>
	<path class="st2" d="M4162.5,24.3L4162.5,24.3c-0.1,0-0.1,0-0.1,0c0,0-0.1,0.1-0.1,0.1l0,0V25h-0.4v-0.7h-0.1l0.1-0.4h0.4V24
		c0-0.1,0.1-0.1,0.2-0.1c0,0,0.1,0,0.1,0h0L4162.5,24.3z"/>
	<path class="st2" d="M4163.2,24.3L4163.2,24.3l-0.1,0.7h-0.4v-0.7h-0.2l0.1-0.4h0v-0.1l0.4-0.1v0.3h0.2L4163.2,24.3z"/>
</g>
<g id="Grave_1_" onclick="openGemeente('Grave')">
	<path id="Grave" class="st1" d="M4161.2,12l-0.1,0.7l-0.5,0.7l1,0.6l-0.1,0.8h0.4l-0.1,0.8h-0.2l-0.1,0.6h0.2l0.1,1l-1,0.1
		l-0.2,0.3l-1.4-0.9l-1.8,0.2l-0.4,0.6l-0.5-0.5l-0.9-0.2l-0.5,0.5l-1.5-1l-0.2-0.3v-0.2h0.5l0.3-0.3l0-0.2l-0.6,0l0,0.2l-0.6,0
		l0-0.8l-0.8-0.3l0.3-0.7l0-1.1l-0.2-0.1l0.2-0.6l-0.8-0.2l-0.3-0.5l0.6-0.5l0.3-0.9l1.1-1.2l1.7,0.1c0,0,0.8,0.5,1,1.1
		c0.2,0.8,1.5,2,2.8,2.2c0.8,0.1,1.8,0.1,1.8,0.1S4161.2,12,4161.2,12z"/>
	<path class="st2" d="M4155.5,13.4c0,0.1,0,0.2-0.1,0.3c0,0.1-0.1,0.1-0.1,0.2c0,0-0.1,0.1-0.1,0.1c-0.1,0-0.1,0.1-0.2,0.1
		c-0.1,0-0.1,0-0.2,0c0,0-0.1,0-0.1,0c-0.2,0-0.3-0.1-0.4-0.2c0,0-0.1-0.1-0.1-0.1c-0.1-0.1-0.1-0.2-0.1-0.2c0-0.1,0-0.2,0-0.3
		c0-0.1,0-0.3,0.1-0.4c0,0,0.1-0.1,0.1-0.1c0,0,0.1-0.1,0.1-0.1c0,0,0.1-0.1,0.1-0.1c0,0,0.1,0,0.2,0c0,0,0.1,0,0.1,0
		c0.1,0,0.2,0,0.2,0.1l0,0l0.3,0.2l-0.3,0.4l0,0l0,0c0,0-0.1,0-0.1,0c0,0-0.1,0-0.1,0c-0.1,0-0.2,0.1-0.3,0.2c0,0,0,0,0,0
		c0,0,0,0,0,0.1c0,0,0,0,0,0c0,0.1,0,0.2,0.1,0.2c0,0,0.1,0.1,0.1,0.1c0,0,0.1,0,0.1,0c0.1,0,0.1,0,0.1,0c0,0,0,0,0,0c0,0,0,0,0,0
		h-0.2l0.1-0.4h0.7l0,0l0,0C4155.5,13.3,4155.5,13.4,4155.5,13.4z"/>
	<path class="st2" d="M4156.2,13.5L4156.2,13.5c-0.1,0-0.1,0-0.1,0c0,0-0.1,0.1-0.1,0.1l0,0v0.5h-0.4v-0.7h-0.1l0.1-0.4h0.4v0.1
		c0-0.1,0.1-0.1,0.2-0.1c0,0,0.1,0,0.1,0h0L4156.2,13.5z"/>
	<path class="st2" d="M4157.5,14.1h-0.4V14l-0.1,0.2h-0.1c-0.1,0-0.2,0-0.3-0.1c-0.1,0-0.1-0.1-0.2-0.1c-0.1-0.1-0.1-0.2-0.1-0.3
		c0,0,0-0.1,0-0.1c0-0.1,0-0.2,0.1-0.2c0-0.1,0.1-0.1,0.2-0.2c0,0,0.1,0,0.1-0.1c0,0,0.1,0,0.1,0c0,0,0,0,0.1,0c0,0,0,0,0,0
		c0.1,0,0.2,0,0.2,0.1l0-0.1h0.4v0.7h0.1L4157.5,14.1z M4157.1,13.5C4157.1,13.5,4157.1,13.5,4157.1,13.5c0-0.1-0.1-0.1-0.1-0.1
		c0,0,0,0,0,0c0,0-0.1,0-0.1,0l0,0c0,0,0,0.1,0,0.1c0,0.1,0,0.1,0.1,0.1c0,0,0.1,0,0.2,0h0V13.5z"/>
	<path class="st2" d="M4158.4,14.1h-0.5l-0.3-1.1h0.5l0.1,0.6l0.1-0.6h0.5L4158.4,14.1z"/>
	<path class="st2" d="M4159.2,13.7C4159.2,13.7,4159.3,13.7,4159.2,13.7c0.1,0.1,0.2,0.1,0.2,0.1c0,0,0,0,0,0h0c0.1,0,0.2,0,0.3,0
		l0.1,0l-0.1,0.4l-0.1,0c-0.1,0-0.1,0-0.2,0c-0.2,0-0.4-0.1-0.5-0.2c-0.1-0.1-0.2-0.3-0.2-0.4c0,0,0,0,0-0.1c0,0,0,0,0-0.1
		c0-0.1,0-0.1,0.1-0.2c0.1-0.2,0.2-0.2,0.4-0.3c0,0,0,0,0,0c0,0,0,0,0,0c0.1,0,0.1,0,0.2,0c0.1,0,0.2,0.1,0.3,0.2
		c0.1,0.1,0.1,0.2,0.1,0.4l0,0.1L4159.2,13.7z M4159.3,13.3C4159.2,13.3,4159.2,13.3,4159.3,13.3c-0.1,0.1-0.1,0.1-0.1,0.1h0.3
		C4159.4,13.4,4159.4,13.3,4159.3,13.3C4159.3,13.3,4159.3,13.3,4159.3,13.3C4159.3,13.3,4159.3,13.3,4159.3,13.3L4159.3,13.3z"/>
</g>
<g id="Oss_1_" onclick="openGemeente('Oss')">
	<path id="Oss" class="st1" d="M4153.4,8.7c0,0-0.4-0.1-0.7-0.5c-0.3-0.3-0.8-2.1-1.8-2.2s-1.8-0.1-1.9-0.2c-0.2-0.1-0.4,0.2-1.7-3
		c-0.3-0.7-0.6-1-0.8-1.1s-1.6,0-1.8,0c-0.2-0.1-1.6-1.5-2.5-1.5c-0.4,0-1.1,0-1.1,0l-1.3,0.1c0,0-1,0.1-1.2,0.2
		c-0.2,0.1-1.1,1.8-1.6,1.8l-0.5,0l0,0.8l-0.4,0.1v0.5l-0.4,0l-0.2,0.5l-0.9,0.8l-0.1,0.5l-2,1.3l-0.5,0.1c0,0-1.4,1.1-1.4,1.2
		c0,0.1-1.4,1.2-1.4,1.2l0.4,0.4l0,0.6l0.4,0.4h0.5l0.3,0.8l0.8,0.5l1.3,1.4l-0.5,0.5l0,0.8l0.6,0.2l3.1-0.7h0.6l2.4,1.3l1,0.1h0.9
		l-0.1-0.3l-0.3-0.2v-1.7l1.9-0.4l0.1-0.4l1.6-0.8l2-0.3l0-0.6l1.4-0.4l1.7,1.8l0.7-2.4l0.7,1.1l0.9,0.3l0.6-0.5l0.3-0.9L4153.4,8.7
		z"/>
	<path class="st2" d="M4140.8,8.2c0,0.1-0.1,0.1-0.1,0.2c0,0.1-0.1,0.1-0.2,0.1c0,0-0.1,0-0.1,0.1c0,0-0.1,0-0.1,0.1
		c0,0-0.1,0-0.1,0c-0.1,0-0.1,0-0.2,0l-0.1,0c-0.1,0-0.2,0-0.2-0.1c-0.1,0-0.1-0.1-0.2-0.1c-0.1-0.1-0.1-0.1-0.2-0.2
		c0-0.1-0.1-0.2-0.1-0.2c0,0,0,0,0-0.1c0,0,0-0.1,0-0.1c0,0,0-0.1,0-0.1c0,0,0-0.1,0-0.1c0-0.1,0.1-0.2,0.2-0.3
		c0.1-0.1,0.1-0.1,0.2-0.1c0.1,0,0.2-0.1,0.3-0.1h0.1c0.1,0,0.1,0,0.2,0c0.1,0,0.1,0.1,0.2,0.1c0.1,0,0.1,0.1,0.2,0.2
		c0,0,0,0.1,0.1,0.1c0,0,0.1,0.1,0.1,0.2c0,0.1,0,0.1,0,0.2c0,0,0,0,0,0.1c0,0,0,0,0,0.1C4140.8,8,4140.8,8.1,4140.8,8.2z
		 M4140.1,7.6c-0.1,0-0.1,0-0.2,0c0,0-0.1,0-0.1,0.1c-0.1,0.1-0.1,0.1-0.1,0.2c0,0,0,0,0,0c0,0.1,0,0.1,0.1,0.2c0,0,0.1,0.1,0.2,0.1
		c0,0,0,0,0.1,0c0,0,0,0,0.1,0c0.1,0,0.2-0.1,0.2-0.2c0,0,0,0,0-0.1c0,0,0,0,0,0c0-0.1,0-0.2-0.1-0.2
		C4140.2,7.7,4140.1,7.6,4140.1,7.6z"/>
	<path class="st2" d="M4141.4,8.7c0,0-0.1,0-0.1,0c-0.1,0-0.2,0-0.3-0.1l0,0l0,0l0,0l0.1-0.4l0.1,0l0,0l0,0l0,0c0,0,0,0,0.1,0
		c0,0,0,0,0,0c0,0,0,0,0,0c0,0,0,0,0,0c0,0,0,0,0,0l-0.1,0l-0.1,0c-0.1,0-0.2-0.1-0.2-0.3c0,0,0-0.1,0-0.1c0-0.1,0-0.1,0.1-0.1
		c0,0,0.1-0.1,0.2-0.1c0.1,0,0.1,0,0.2,0c0,0,0.1,0,0.1,0c0,0,0.1,0,0.1,0c0.1,0,0.1,0,0.1,0.1l-0.1,0.3c0,0-0.1,0-0.1-0.1
		c0,0-0.1,0-0.1,0c0,0,0,0,0,0c0,0,0,0,0,0c0,0,0,0,0,0l0,0l0.2,0.1l0,0c0.1,0.1,0.2,0.1,0.2,0.3c0,0,0,0.1,0,0.1
		c0,0.1,0,0.1-0.1,0.2C4141.6,8.6,4141.5,8.7,4141.4,8.7z"/>
	<path class="st2" d="M4142.3,8.7c0,0-0.1,0-0.1,0c-0.1,0-0.2,0-0.3-0.1l0,0l0,0l0,0l0.1-0.4l0.1,0l0,0l0,0l0,0c0,0,0,0,0.1,0
		c0,0,0,0,0,0c0,0,0,0,0,0c0,0,0,0,0,0c0,0,0,0,0,0l-0.1,0l-0.1,0c-0.1,0-0.2-0.1-0.2-0.3c0,0,0,0,0-0.1c0,0,0,0,0-0.1
		c0-0.1,0-0.1,0.1-0.1c0,0,0.1-0.1,0.2-0.1c0,0,0.1,0,0.2,0c0,0,0.1,0,0.1,0c0,0,0.1,0,0.1,0c0.1,0,0.1,0,0.1,0.1l-0.1,0.3
		c0,0-0.1,0-0.1-0.1c0,0-0.1,0-0.1,0c0,0,0,0,0,0c0,0,0,0,0,0.1c0,0,0,0,0,0l0,0l0.2,0.1l0,0c0.1,0.1,0.2,0.1,0.2,0.3
		c0,0,0,0.1,0,0.1c0,0.1,0,0.1-0.1,0.2C4142.5,8.6,4142.4,8.7,4142.3,8.7z"/>
</g>
<g id="Den_Bosch_1_" onclick="openGemeente('Den Bosch')">
	<path id="Den_Bosch" class="st1" d="M4104.7,13.9c0,0,0.8-0.1,1-0.1c0.2,0,1-0.1,1.2,0.1c0.5,0.3,1.5,1.2,1.8,1.2
		c0.2,0,1.6-0.9,1.9-0.9s1.3,0,1.5,0c0.1,0.1,1,0.6,1.3,0.5c0.3,0,2-1.3,2.3-1.4s3.1-1.7,3.1-1.7s0.3,0.9,0.8,0.9
		c0.2,0,1.4-0.3,2.9-1.4c0,0,2-0.4,2-0.3c0,0.1,0.2,1.5,0.4,1.6c0.2,0.1,1,1.4,0.8,1.5s-1.7,0.4-1.8,0.6s0.4,1.4,0.3,1.6
		c0,0.2-0.1,1,0,1.2c0.1,0.1,0.5,0.8,0.6,0.8c0.1,0,0.5-0.1,0.6,0c0.1,0.1,0.3,0.5,0.3,0.6c0,0.1-0.6,0.5-0.6,0.6s0.9,0.7,1,0.8
		c0.1,0.1-1.9,0.4-2.2,0.4c-0.3,0-1.4,0-1.8-0.3s-1.6,0.6-1.7,0.6c-0.2,0-0.6-0.5-0.8-0.3c-0.2,0.1-0.6,0.3-0.5,0.4
		c0.1,0.1,0.5,0.1,0.5,0.4c0,0.3,0.8,2,0.7,2c-0.1,0-1.4-0.1-1.5,0c-0.1,0.1-0.2,0.6-0.1,0.8c0.1,0.1,0.5,0.4,0.4,0.5
		c-0.2,0.1-1.3,1.5-1.5,1.4c-0.2,0-1.2-1.3-1.3-1.3s-2.1,0.8-2.2,0.8c-0.1,0-0.5,0-0.7-0.2s-1.2-1.9-1.5-2c-0.3,0-1.2-0.5-1.4-0.5
		s-1.9,0.2-2.3,0.1c-0.4-0.1-1.3-0.8-1.4-0.9s1.7-0.6,1.9-0.7c0.1-0.1,0.4-0.8,0.3-0.9s-0.2-0.4-0.4-0.3c-0.2,0.1-0.3,0.2-0.5,0.1
		c-0.2-0.1-0.6-0.6-0.6-0.7s0.7-1.3,0.5-1.2s-1,0.6-1,0.5c0-0.1,0.2-2.2,0-2.3c-0.1-0.1-2-1.3-2-1.4S4104.7,13.9,4104.7,13.9z"/>
	<path class="st2" d="M4113.3,17.4c0,0.1-0.1,0.2-0.2,0.3c-0.1,0.1-0.1,0.1-0.2,0.1c-0.1,0-0.2,0-0.3,0h-0.4v-1.1h-0.1l0.1-0.5h0.5
		c0.3,0,0.6,0.2,0.7,0.5c0,0,0,0.1,0,0.1c0,0.1,0,0.1,0,0.2c0,0,0,0.1,0,0.1C4113.4,17.3,4113.4,17.4,4113.3,17.4z M4112.8,16.9
		c0,0-0.1,0-0.1,0v0.6h0c0.1,0,0.1,0,0.2-0.1c0-0.1,0.1-0.1,0.1-0.2c0,0,0,0,0-0.1C4112.9,17,4112.8,16.9,4112.8,16.9L4112.8,16.9z"
		/>
	<path class="st2" d="M4113.9,17.5C4114,17.5,4114,17.5,4113.9,17.5c0.1,0.1,0.2,0.1,0.2,0.1c0,0,0,0,0,0h0c0.1,0,0.2,0,0.3,0l0.1,0
		l-0.1,0.4l-0.1,0c-0.1,0-0.1,0-0.2,0c-0.2,0-0.4-0.1-0.5-0.2c-0.1-0.1-0.2-0.3-0.2-0.4c0,0,0,0,0-0.1c0,0,0,0,0-0.1
		c0-0.1,0-0.1,0.1-0.2c0.1-0.2,0.2-0.2,0.4-0.3c0,0,0,0,0,0c0,0,0,0,0,0c0.1,0,0.1,0,0.2,0c0.1,0,0.2,0.1,0.3,0.2
		c0.1,0.1,0.1,0.2,0.1,0.4l0,0.1L4113.9,17.5z M4114,17.1C4114,17.1,4113.9,17.1,4114,17.1c-0.1,0.1-0.1,0.1-0.1,0.1h0.3
		C4114.2,17.2,4114.1,17.1,4114,17.1C4114,17.1,4114,17.1,4114,17.1C4114,17.1,4114,17.1,4114,17.1L4114,17.1z"/>
	<path class="st2" d="M4115.8,17.9h-0.4v-0.6c0,0,0,0,0-0.1c0,0-0.1,0-0.1,0c0,0,0,0,0,0c0,0,0,0,0,0l0,0v0.7h-0.4v-0.7h-0.1
		l0.1-0.4h0.4V17l0.1-0.2h0.2c0,0,0.1,0,0.1,0c0,0,0.1,0,0.1,0c0,0,0.1,0,0.1,0.1c0,0.1,0,0.1,0,0.2v0.4h0.1L4115.8,17.9z"/>
	<path class="st2" d="M4117.6,17.9c0,0-0.1,0-0.1,0.1c0,0-0.1,0-0.1,0h-0.8v-1.1h-0.1l0.1-0.4h0.8c0.1,0,0.1,0,0.2,0.1
		c0.1,0.1,0.2,0.2,0.2,0.3v0c0,0,0,0,0,0c0,0.1-0.1,0.2-0.2,0.3l0,0c0.1,0.1,0.1,0.1,0.1,0.2c0,0.1,0,0.1,0,0.2
		C4117.8,17.7,4117.7,17.8,4117.6,17.9z M4117.1,16.8L4117.1,16.8L4117,17h0.1c0,0,0,0,0,0c0,0,0,0,0,0c0,0,0.1,0,0.1-0.1
		c0,0,0,0,0,0C4117.2,16.8,4117.2,16.8,4117.1,16.8C4117.2,16.8,4117.1,16.8,4117.1,16.8L4117.1,16.8z M4117.1,17.3L4117.1,17.3
		l-0.1,0.2h0.1c0,0,0,0,0.1,0c0,0,0,0,0-0.1C4117.3,17.3,4117.2,17.3,4117.1,17.3L4117.1,17.3z"/>
	<path class="st2" d="M4119,17.7c-0.1,0.1-0.2,0.2-0.4,0.3c0,0-0.1,0-0.1,0c-0.1,0-0.3,0-0.4-0.1c-0.1,0-0.1-0.1-0.1-0.1
		c0-0.1-0.1-0.1-0.1-0.2l0-0.1c0,0,0,0,0,0c0,0,0,0,0,0c0-0.1,0-0.3,0.1-0.4c0.1-0.1,0.2-0.2,0.4-0.2c0,0,0.1,0,0.1,0h0
		c0.1,0,0.1,0,0.2,0c0.1,0,0.1,0.1,0.2,0.1c0,0,0.1,0,0.1,0.1C4119.1,17.2,4119.1,17.5,4119,17.7L4119,17.7z M4118.5,17.2
		C4118.5,17.2,4118.5,17.2,4118.5,17.2c-0.1,0-0.1,0-0.2,0c0,0,0,0.1,0,0.1c0,0.1,0,0.1,0.1,0.2c0,0,0,0,0,0c0,0,0,0,0,0
		c0.1,0,0.1-0.1,0.2-0.1c0,0,0,0,0-0.1C4118.6,17.3,4118.6,17.2,4118.5,17.2z"/>
	<path class="st2" d="M4119.6,17.9c0,0-0.1,0-0.1,0c-0.1,0-0.2,0-0.3-0.1l0,0l0,0l0,0l0.1-0.4l0.1,0l0,0l0,0l0,0c0,0,0,0,0.1,0
		c0,0,0,0,0,0c0,0,0,0,0,0c0,0,0,0,0,0c0,0,0,0,0,0l-0.1,0l-0.1,0c-0.1,0-0.2-0.1-0.2-0.3c0,0,0-0.1,0-0.1c0-0.1,0-0.1,0.1-0.1
		c0,0,0.1-0.1,0.2-0.1c0.1,0,0.1,0,0.2,0c0,0,0.1,0,0.1,0c0,0,0.1,0,0.1,0c0.1,0,0.1,0,0.1,0.1l-0.1,0.3c0,0-0.1,0-0.1-0.1
		c0,0-0.1,0-0.1,0c0,0,0,0,0,0c0,0,0,0,0,0.1c0,0,0,0,0,0l0,0l0.2,0.1l0,0c0.1,0.1,0.2,0.1,0.2,0.3c0,0,0,0.1,0,0.1
		c0,0.1,0,0.1-0.1,0.2C4119.8,17.9,4119.7,17.9,4119.6,17.9z"/>
	<path class="st2" d="M4120.7,17.2C4120.7,17.2,4120.7,17.2,4120.7,17.2c-0.1,0-0.2,0-0.2,0c0,0-0.1,0.1-0.1,0.1c0,0,0,0.1,0,0.1
		c0,0,0.1,0,0.1,0c0,0,0,0,0.1,0h0l0.1,0.4l-0.1,0c0,0-0.1,0-0.1,0c-0.1,0-0.2,0-0.2,0c-0.1,0-0.1-0.1-0.2-0.1
		c-0.1-0.1-0.2-0.2-0.2-0.3c0,0,0,0,0-0.1c0,0,0,0,0-0.1c0-0.1,0-0.1,0-0.2c0-0.1,0-0.1,0.1-0.1c0,0,0,0,0,0c0,0,0,0,0,0
		c0.1-0.1,0.2-0.1,0.3-0.2c0,0,0.1,0,0.1,0c0.1,0,0.1,0,0.2,0L4120.7,17.2z"/>
	<path class="st2" d="M4122,17.9h-0.4v-0.6c0-0.1,0-0.1-0.1-0.1h0l0,0v0.7h-0.4v-1.2h-0.1l0.1-0.4h0.4V17l0.1-0.2h0.3
		c0.1,0,0.1,0,0.1,0c0,0,0.1,0.1,0.1,0.1c0,0,0,0.1,0,0.2l0,0v0.4h0.1L4122,17.9z"/>
</g>
<g id="Lith_1_" onclick="openGemeente('Lith')">
	<path id="Lith" class="st1" d="M4136.5,2.3l0,0.8l-0.4,0.1v0.5l-0.4,0l-0.2,0.5l-0.9,0.8l-0.1,0.5l-2,1.3l-0.5,0.1l-1.4,1.2
		l-1.4,1.2c0,0-0.9,1.1-0.9,1.1s-3.7,0.3-3.7,0.3l-2,0.3c0,0-2.3,1.5-2.9,1.4c-0.6-0.1-0.8-0.9-0.8-0.9s0.4-0.2,0.7-0.5
		c0.4-0.3,0.1-2.8,0.1-2.9s3.3-5.6,3.3-5.6s0.7-1.1,0.8-1.2c0.1-0.1,1,0,1.2,0c0.3,0.1,0.6,1.3,1,1.4c2.1,0.9,3.4,0.1,4.7-0.3
		c0.7-0.3,0.6-1.3,0.8-1.8c0.2-0.3,0.5-0.6,0.9-0.6c0.3,0,1.1,0.2,1.3,0.5c0.3,0.2,1.3,1.4,1.6,1.4C4135.7,2,4136.5,2.3,4136.5,2.3z
		"/>
	<path class="st2" d="M4124.7,7.5h-0.7V6.4h-0.1l0.1-0.5h0.5v1h0.3L4124.7,7.5z"/>
	<path class="st2" d="M4125.3,7.5h-0.4V6.8h-0.1l0.1-0.4h0.4v0.7h0.1L4125.3,7.5z M4125.4,6.3h-0.4l0.1-0.4h0.4L4125.4,6.3z"/>
	<path class="st2" d="M4126.1,6.8L4126.1,6.8l-0.1,0.7h-0.4V6.8h-0.2l0.1-0.4h0V6.2l0.4-0.1v0.3h0.2L4126.1,6.8z"/>
	<path class="st2" d="M4127.3,7.5h-0.4V6.9c0-0.1,0-0.1-0.1-0.1h0l0,0v0.7h-0.4V6.3h-0.1l0.1-0.4h0.4v0.6l0.1-0.2h0.3
		c0.1,0,0.1,0,0.1,0c0,0,0.1,0.1,0.1,0.1c0,0,0,0.1,0,0.2l0,0v0.4h0.1L4127.3,7.5z"/>
</g>
<g id="Maasdonk_1_" onclick="openGemeente('Maasdonk')">
	<path id="Maasdonk" class="st1" d="M4132.4,13.9l0,0.8l0.6,0.2l-2.4,1.1c0,0,0.5,0.6,0.5,0.6c0,0,0.9,2,0.9,2l0.9,0l0.2,0.6
		l-0.6,0.3l-1,0.7l-0.5,0.1l-0.9,1.9l-0.7-0.1l-0.2-0.3l-0.3,0.6h-0.9l-0.1-0.6l0.2-0.2l0-0.4l-0.4,0l0-0.5l-0.5-0.4l-0.8-0.1
		l-1-0.8l0.6-0.6l-0.3-0.6h-0.6l-0.6-0.9l0-1.2l-0.3-1.6l1.8-0.6l-0.8-1.5l-0.4-1.6l3.7-0.3l0.9-1.1l0.4,0.4l0,0.6l0.4,0.4h0.5
		l0.3,0.8l0.8,0.5l1.3,1.4L4132.4,13.9z"/>
	<path class="st2" d="M4127.3,15v-0.8l-0.3,0.3l-0.3-0.3V15h-0.5v-1.1h-0.1l0.1-0.5h0.5l0.3,0.3l0.3-0.3h0.5V15L4127.3,15z"/>
	<path class="st2" d="M4129,15h-0.4v-0.2l-0.1,0.2h-0.1c-0.1,0-0.2,0-0.3-0.1c-0.1,0-0.1-0.1-0.2-0.1c-0.1-0.1-0.1-0.2-0.1-0.3
		c0,0,0-0.1,0-0.1c0-0.1,0-0.2,0.1-0.2c0-0.1,0.1-0.1,0.2-0.2c0,0,0.1,0,0.1-0.1c0,0,0.1,0,0.1,0c0,0,0,0,0.1,0c0,0,0,0,0,0
		c0.1,0,0.2,0,0.2,0.1l0-0.1h0.4v0.7h0.1L4129,15z M4128.6,14.4C4128.6,14.4,4128.5,14.3,4128.6,14.4c0-0.1-0.1-0.1-0.1-0.1
		c0,0,0,0,0,0c0,0-0.1,0-0.1,0l0,0c0,0,0,0.1,0,0.1c0,0.1,0,0.1,0.1,0.1c0,0,0.1,0,0.2,0h0L4128.6,14.4z"/>
	<path class="st2" d="M4130.3,15h-0.4v-0.2l-0.1,0.2h-0.1c-0.1,0-0.2,0-0.3-0.1c-0.1,0-0.1-0.1-0.2-0.1c-0.1-0.1-0.1-0.2-0.1-0.3
		c0,0,0-0.1,0-0.1c0-0.1,0-0.2,0.1-0.2c0-0.1,0.1-0.1,0.2-0.2c0,0,0.1,0,0.1-0.1c0,0,0.1,0,0.1,0c0,0,0,0,0.1,0c0,0,0,0,0,0
		c0.1,0,0.2,0,0.2,0.1l0-0.1h0.4v0.7h0.1L4130.3,15z M4129.9,14.4C4129.9,14.4,4129.9,14.3,4129.9,14.4c0-0.1-0.1-0.1-0.1-0.1
		c0,0,0,0,0,0c0,0-0.1,0-0.1,0l0,0c0,0,0,0.1,0,0.1c0,0.1,0,0.1,0.1,0.1c0,0,0.1,0,0.2,0h0L4129.9,14.4z"/>
	<path class="st2" d="M4131,15c0,0-0.1,0-0.1,0c-0.1,0-0.2,0-0.3-0.1l0,0l0,0l0,0l0.1-0.4l0.1,0l0,0l0,0l0,0c0,0,0,0,0.1,0
		c0,0,0,0,0,0c0,0,0,0,0,0c0,0,0,0,0,0c0,0,0,0,0,0l-0.1,0l-0.1,0c-0.1,0-0.2-0.1-0.2-0.3c0,0,0-0.1,0-0.1c0-0.1,0-0.1,0.1-0.1
		c0,0,0.1-0.1,0.2-0.1c0.1,0,0.1,0,0.2,0c0,0,0.1,0,0.1,0c0,0,0.1,0,0.1,0c0.1,0,0.1,0,0.1,0.1l-0.1,0.3c0,0-0.1,0-0.1-0.1
		c0,0-0.1,0-0.1,0c0,0,0,0,0,0c0,0,0,0,0,0.1c0,0,0,0,0,0l0,0l0.2,0.1l0,0c0.1,0.1,0.2,0.1,0.2,0.3c0,0,0,0.1,0,0.1
		c0,0.1,0,0.1-0.1,0.2C4131.1,14.9,4131.1,15,4131,15z"/>
	<path class="st2" d="M4131.3,14.5v-0.3h0.6v0.3L4131.3,14.5z"/>
	<path class="st2" d="M4126.7,17.5h-0.4v-0.2l-0.1,0.2h-0.2c0,0-0.1,0-0.1,0c0,0-0.1,0-0.1-0.1c-0.1-0.1-0.2-0.2-0.2-0.4
		c0,0,0,0,0-0.1c0,0,0,0,0-0.1c0,0,0-0.1,0-0.1c0-0.2,0.1-0.3,0.3-0.4c0,0,0.1,0,0.1,0c0,0,0.1,0,0.1,0h0c0,0,0,0,0.1,0
		c0,0,0.1,0,0.1,0v-0.1h-0.1l0.1-0.4h0.4v1.2h0.1L4126.7,17.5z M4126.3,17c0-0.1-0.1-0.2-0.1-0.2c0,0,0,0-0.1,0c0,0-0.1,0-0.1,0
		c0,0,0,0.1,0,0.1c0,0.1,0,0.1,0.1,0.1c0,0,0.1,0,0.2,0l0,0L4126.3,17L4126.3,17L4126.3,17z"/>
	<path class="st2" d="M4128,17.3c-0.1,0.1-0.2,0.2-0.4,0.3c0,0-0.1,0-0.1,0c-0.1,0-0.3,0-0.4-0.1c-0.1,0-0.1-0.1-0.1-0.1
		c0-0.1-0.1-0.1-0.1-0.2l0-0.1c0,0,0,0,0,0c0,0,0,0,0,0c0-0.1,0-0.3,0.1-0.4c0.1-0.1,0.2-0.2,0.4-0.2c0,0,0.1,0,0.1,0h0
		c0.1,0,0.1,0,0.2,0c0.1,0,0.1,0.1,0.2,0.1c0,0,0.1,0,0.1,0.1C4128.1,16.8,4128.1,17.1,4128,17.3L4128,17.3z M4127.5,16.8
		C4127.5,16.8,4127.5,16.8,4127.5,16.8C4127.4,16.8,4127.4,16.8,4127.5,16.8c-0.1,0-0.2,0-0.2,0c0,0,0,0.1,0,0.1
		c0,0.1,0,0.1,0.1,0.2c0,0,0,0,0,0c0,0,0,0,0,0c0.1,0,0.1-0.1,0.2-0.1c0,0,0,0,0-0.1C4127.6,16.9,4127.6,16.8,4127.5,16.8z"/>
	<path class="st2" d="M4129.2,17.5h-0.4v-0.6c0,0,0,0,0-0.1c0,0-0.1,0-0.1,0c0,0,0,0,0,0c0,0,0,0,0,0l0,0v0.7h-0.4v-0.7h-0.1
		l0.1-0.4h0.4v0.2l0.1-0.2h0.2c0,0,0.1,0,0.1,0c0,0,0.1,0,0.1,0c0,0,0.1,0,0.1,0.1c0,0.1,0,0.1,0,0.2v0.4h0.1L4129.2,17.5z"/>
	<path class="st2" d="M4130.1,17.5l-0.2-0.4v0.4h-0.4v-1.2h-0.1l0.1-0.4h0.4v0.8l0.2-0.3h0.5l-0.3,0.5l0.3,0.6H4130.1z"/>
</g>
<g id="Bernheze_1_" onclick="openGemeente('Bernheze')">
	<path id="Bernheze" class="st1" d="M4140.9,15.6l1.8,3.5l-0.4,0.3l0.2,0.8l0.3,0.8l-0.3,0.4l-0.1,0.7l-1.4,1.5l-0.7,0.2l-1.1,2.4
		v0.5l0.7,0.7l-0.1,0.8l-2.7,1.8v0.8l-0.7,0.1l-1,0.6l-1.8-0.9l-0.7,1.4l-2.8-2.3c0,0-4.7-1.8-4.6-1.8c0,0,0.7-0.5,0.7-0.5l0.3-1.2
		h1.2l1.1-3.6l0.3-0.6l0.2,0.3l0.7,0.1l0.9-1.9l2.1-1.1l-0.2-0.6l-0.9,0l-0.9-2l-0.5-0.6l2.4-1.1l3.1-0.7h0.6l2.4,1.3L4140.9,15.6z"
		/>
	<path class="st2" d="M4130.6,24.3c0,0-0.1,0-0.1,0.1c0,0-0.1,0-0.1,0h-0.8v-1.1h-0.1l0.1-0.4h0.8c0.1,0,0.1,0,0.2,0.1
		c0.1,0.1,0.2,0.2,0.2,0.3v0c0,0,0,0,0,0c0,0.1-0.1,0.2-0.2,0.3l0,0c0.1,0.1,0.1,0.1,0.1,0.2c0,0.1,0,0.1,0,0.2
		C4130.8,24.1,4130.7,24.2,4130.6,24.3z M4130.1,23.3L4130.1,23.3l-0.1,0.2h0.1c0,0,0,0,0,0c0,0,0,0,0,0c0,0,0.1,0,0.1-0.1
		c0,0,0,0,0,0C4130.3,23.3,4130.3,23.3,4130.1,23.3C4130.2,23.3,4130.2,23.3,4130.1,23.3L4130.1,23.3z M4130.1,23.8L4130.1,23.8
		l-0.1,0.2h0.1c0,0,0,0,0.1,0c0,0,0,0,0-0.1C4130.3,23.8,4130.2,23.8,4130.1,23.8L4130.1,23.8z"/>
	<path class="st2" d="M4131.4,23.9C4131.4,23.9,4131.4,24,4131.4,23.9c0.1,0.1,0.2,0.1,0.2,0.1c0,0,0,0,0,0h0c0.1,0,0.2,0,0.3,0
		l0.1,0l-0.1,0.4l-0.1,0c-0.1,0-0.1,0-0.2,0c-0.2,0-0.4-0.1-0.5-0.2c-0.1-0.1-0.2-0.3-0.2-0.4c0,0,0,0,0-0.1c0,0,0,0,0-0.1
		c0-0.1,0-0.1,0.1-0.2c0.1-0.2,0.2-0.3,0.4-0.3c0,0,0,0,0,0s0,0,0,0c0.1,0,0.1,0,0.2,0c0.1,0,0.2,0.1,0.3,0.2
		c0.1,0.1,0.1,0.2,0.1,0.4l0,0.1L4131.4,23.9z M4131.4,23.6C4131.4,23.6,4131.4,23.6,4131.4,23.6c-0.1,0.1-0.1,0.1-0.1,0.1h0.3
		C4131.6,23.6,4131.5,23.6,4131.4,23.6C4131.5,23.6,4131.5,23.6,4131.4,23.6C4131.4,23.6,4131.4,23.6,4131.4,23.6L4131.4,23.6z"/>
	<path class="st2" d="M4132.8,23.7L4132.8,23.7c-0.1,0-0.1,0-0.1,0c0,0-0.1,0.1-0.1,0.1l0,0v0.5h-0.4v-0.7h-0.1l0.1-0.4h0.4v0.1
		c0-0.1,0.1-0.1,0.2-0.1c0,0,0.1,0,0.1,0h0L4132.8,23.7z"/>
	<path class="st2" d="M4134,24.4h-0.4v-0.6c0,0,0,0,0-0.1c0,0-0.1,0-0.1,0c0,0,0,0,0,0c0,0,0,0,0,0l0,0v0.7h-0.4v-0.7h-0.1l0.1-0.4
		h0.4v0.2l0.1-0.2h0.2c0,0,0.1,0,0.1,0c0,0,0.1,0,0.1,0c0,0,0.1,0,0.1,0.1c0,0.1,0,0.1,0,0.2V24h0.1L4134,24.4z"/>
	<path class="st2" d="M4135.3,24.4h-0.4v-0.6c0-0.1,0-0.1-0.1-0.1h0l0,0v0.7h-0.4v-1.2h-0.1l0.1-0.4h0.4v0.6l0.1-0.2h0.3
		c0.1,0,0.1,0,0.1,0c0,0,0.1,0.1,0.1,0.1c0,0,0,0.1,0,0.2l0,0V24h0.1L4135.3,24.4z"/>
	<path class="st2" d="M4135.9,23.9C4135.9,23.9,4135.9,24,4135.9,23.9c0.1,0.1,0.2,0.1,0.2,0.1c0,0,0,0,0,0h0c0.1,0,0.2,0,0.3,0
		l0.1,0l-0.1,0.4l-0.1,0c-0.1,0-0.1,0-0.2,0c-0.2,0-0.4-0.1-0.5-0.2c-0.1-0.1-0.2-0.3-0.2-0.4c0,0,0,0,0-0.1c0,0,0,0,0-0.1
		c0-0.1,0-0.1,0.1-0.2c0.1-0.2,0.2-0.3,0.4-0.3c0,0,0,0,0,0s0,0,0,0c0.1,0,0.1,0,0.2,0c0.1,0,0.2,0.1,0.3,0.2
		c0.1,0.1,0.1,0.2,0.1,0.4l0,0.1L4135.9,23.9z M4136,23.6C4135.9,23.6,4135.9,23.6,4136,23.6c-0.1,0.1-0.1,0.1-0.1,0.1h0.3
		C4136.1,23.6,4136.1,23.6,4136,23.6C4136,23.6,4136,23.6,4136,23.6C4136,23.6,4136,23.6,4136,23.6L4136,23.6z"/>
	<path class="st2" d="M4137.3,24.4h-0.7l0.2-0.7h-0.2l0.1-0.4h0.7l-0.2,0.7h0.2L4137.3,24.4z"/>
	<path class="st2" d="M4137.9,23.9C4138,23.9,4138,24,4137.9,23.9c0.1,0.1,0.2,0.1,0.2,0.1c0,0,0,0,0,0h0c0.1,0,0.2,0,0.3,0l0.1,0
		l-0.1,0.4l-0.1,0c-0.1,0-0.1,0-0.2,0c-0.2,0-0.4-0.1-0.5-0.2c-0.1-0.1-0.2-0.3-0.2-0.4c0,0,0,0,0-0.1c0,0,0,0,0-0.1
		c0-0.1,0-0.1,0.1-0.2c0.1-0.2,0.2-0.3,0.4-0.3c0,0,0,0,0,0s0,0,0,0c0.1,0,0.1,0,0.2,0c0.1,0,0.2,0.1,0.3,0.2
		c0.1,0.1,0.1,0.2,0.1,0.4l0,0.1L4137.9,23.9z M4138,23.6C4138,23.6,4137.9,23.6,4138,23.6c-0.1,0.1-0.1,0.1-0.1,0.1h0.3
		C4138.2,23.6,4138.1,23.6,4138,23.6C4138,23.6,4138,23.6,4138,23.6C4138,23.6,4138,23.6,4138,23.6z"/>
</g>
<g id="Veghel_1_" onclick="openGemeente('Veghel')">
	<path id="Veghel" class="st1" d="M4139.8,28l1.7,1.3l0.3,1.2l0.6,0.3l0.6,0.6l0.5-0.6l1.9,1.5l1.5,2.8l0.8,3.7l0.5,1.2l-0.3,0.9
		l-0.6,0.2l-2.4,2.2L4144,43l-0.6-0.6l-2.1-0.5l-3.2,0.7c0,0-0.8,0-0.8,0c0,0,0.1-0.8,0.1-0.8l0.5-0.7l-1-0.3l-0.2-0.6l-0.7-0.5
		l-0.5-1.1l-1.8-0.5l-1.5-0.1l-0.6-3.5l0.8,0l0.6-0.9l0.2-1.2l-0.3-0.6l0.7-1.4l1.8,0.9l1-0.6l0.7-0.1v-0.8L4139.8,28z"/>
	<path class="st2" d="M4137.7,36.6h-0.4l-0.5-1.5h0.5l0.2,0.8l0.2-0.8h0.5L4137.7,36.6z"/>
	<path class="st2" d="M4138.6,36.1C4138.7,36.2,4138.7,36.2,4138.6,36.1c0.1,0.1,0.2,0.1,0.2,0.1c0,0,0,0,0,0h0c0.1,0,0.2,0,0.3,0
		l0.1,0l-0.1,0.4l-0.1,0c-0.1,0-0.1,0-0.2,0c-0.2,0-0.4-0.1-0.5-0.2c-0.1-0.1-0.2-0.3-0.2-0.4c0,0,0,0,0-0.1c0,0,0,0,0-0.1
		c0-0.1,0-0.1,0.1-0.2c0.1-0.2,0.2-0.3,0.4-0.3c0,0,0,0,0,0c0,0,0,0,0,0c0.1,0,0.1,0,0.2,0c0.1,0,0.2,0.1,0.3,0.2
		c0.1,0.1,0.1,0.2,0.1,0.4l0,0.1H4138.6z M4138.7,35.8C4138.7,35.8,4138.6,35.8,4138.7,35.8c-0.1,0.1-0.1,0.1-0.1,0.1h0.3
		C4138.9,35.8,4138.8,35.8,4138.7,35.8C4138.7,35.8,4138.7,35.8,4138.7,35.8C4138.7,35.8,4138.7,35.8,4138.7,35.8z"/>
	<path class="st2" d="M4140.2,37c0,0-0.1,0-0.1,0c-0.1,0-0.1,0-0.2,0c-0.1,0-0.1,0-0.2,0c-0.1,0-0.1,0-0.2-0.1l0.1-0.3
		c0.1,0,0.1,0.1,0.2,0.1c0,0,0.1,0,0.1,0c0.1,0,0.2,0,0.2-0.1v-0.1l-0.1,0.2h-0.1c-0.1,0-0.2,0-0.2,0c-0.1,0-0.2-0.1-0.3-0.2
		c-0.1-0.1-0.1-0.2-0.1-0.3v0c0,0,0,0,0,0c0-0.1,0-0.2,0.1-0.3c0.1-0.1,0.2-0.2,0.3-0.2c0,0,0.1,0,0.1,0c0,0,0.1,0,0.1,0
		c0,0,0.1,0,0.1,0l0,0h0.4v1.1c0,0.1,0,0.2-0.1,0.3C4140.4,36.9,4140.3,36.9,4140.2,37z M4140.1,36c0,0,0-0.1,0-0.1c0,0,0,0-0.1,0
		c0,0-0.1,0-0.1,0c0,0,0,0.1,0,0.1c0,0,0,0.1,0.1,0.1c0,0,0.1,0,0.2,0h0V36z"/>
	<path class="st2" d="M4141.8,36.6h-0.4V36c0-0.1,0-0.1-0.1-0.1h0l0,0v0.7h-0.4v-1.2h-0.1l0.1-0.4h0.4v0.6l0.1-0.2h0.3
		c0.1,0,0.1,0,0.1,0c0,0,0.1,0.1,0.1,0.1c0,0,0,0.1,0,0.2l0,0v0.4h0.1L4141.8,36.6z"/>
	<path class="st2" d="M4142.4,36.1C4142.4,36.2,4142.4,36.2,4142.4,36.1c0.1,0.1,0.2,0.1,0.2,0.1c0,0,0,0,0,0h0c0.1,0,0.2,0,0.3,0
		l0.1,0l-0.1,0.4l-0.1,0c-0.1,0-0.1,0-0.2,0c-0.2,0-0.4-0.1-0.5-0.2c-0.1-0.1-0.2-0.3-0.2-0.4c0,0,0,0,0-0.1c0,0,0,0,0-0.1
		c0-0.1,0-0.1,0.1-0.2c0.1-0.2,0.2-0.3,0.4-0.3c0,0,0,0,0,0s0,0,0,0c0.1,0,0.1,0,0.2,0c0.1,0,0.2,0.1,0.3,0.2
		c0.1,0.1,0.1,0.2,0.1,0.4l0,0.1H4142.4z M4142.4,35.8C4142.4,35.8,4142.4,35.8,4142.4,35.8c-0.1,0.1-0.1,0.1-0.1,0.1h0.3
		C4142.6,35.8,4142.5,35.8,4142.4,35.8C4142.5,35.8,4142.5,35.8,4142.4,35.8C4142.5,35.8,4142.4,35.8,4142.4,35.8L4142.4,35.8z"/>
	<path class="st2" d="M4143.6,36.6h-0.4v-1.2h-0.1l0.1-0.4h0.4v1.2h0.1L4143.6,36.6z"/>
</g>
<g id="Landerd_1_" onclick="openGemeente('Landerd')">
	<path id="Landerd" class="st1" d="M4149.8,9.7l0.7,1.1l0.9,0.3l0.3,0.5l0.8,0.2l-0.2,0.6l0.2,0.1l0,1.1l-0.3,0.7l0.8,0.3l0,0.8
		l0.6,0l0-0.2l0.6,0l0,0.2l-0.3,0.3h-0.5v0.2l0.2,0.3l-0.3,0.1l-0.6,1l-0.4,1.2l3.4,5.4l0.2,0.9c0,0-0.5-0.4-0.5-0.4
		c0,0-5,1.4-5,1.4l-0.4-0.1l-5.1-5.2v-0.7l-2,0.1l-0.5,0.1l-0.2-0.8l0.4-0.3l-1.9-3.8l-0.3-0.2v-1.7l1.9-0.4l0.1-0.4l1.6-0.8l2-0.3
		l0-0.6l1.4-0.4l1.7,1.8L4149.8,9.7z"/>
	<path class="st2" d="M4144.3,17.5h-0.7v-1.1h-0.1l0.1-0.5h0.5v1h0.3L4144.3,17.5z"/>
	<path class="st2" d="M4145.6,17.5h-0.4v-0.2l-0.1,0.2h-0.1c-0.1,0-0.2,0-0.3-0.1c-0.1,0-0.1-0.1-0.2-0.1c-0.1-0.1-0.1-0.2-0.1-0.3
		c0,0,0-0.1,0-0.1c0-0.1,0-0.2,0.1-0.2c0-0.1,0.1-0.1,0.2-0.2c0,0,0.1,0,0.1-0.1c0,0,0.1,0,0.1,0c0,0,0,0,0.1,0c0,0,0,0,0,0
		c0.1,0,0.2,0,0.2,0.1l0-0.1h0.4v0.7h0.1L4145.6,17.5z M4145.2,16.9C4145.2,16.9,4145.2,16.9,4145.2,16.9c0-0.1-0.1-0.1-0.1-0.1
		c0,0,0,0,0,0c0,0-0.1,0-0.1,0l0,0c0,0,0,0.1,0,0.1c0,0.1,0,0.1,0.1,0.1c0,0,0.1,0,0.2,0h0L4145.2,16.9z"/>
	<path class="st2" d="M4146.9,17.5h-0.4v-0.6c0,0,0,0,0-0.1c0,0-0.1,0-0.1,0c0,0,0,0,0,0c0,0,0,0,0,0l0,0v0.7h-0.4v-0.7h-0.1
		l0.1-0.4h0.4v0.2l0.1-0.2h0.2c0,0,0.1,0,0.1,0c0,0,0.1,0,0.1,0c0,0,0.1,0,0.1,0.1c0,0.1,0,0.1,0,0.2v0.4h0.1L4146.9,17.5z"/>
	<path class="st2" d="M4148.2,17.5h-0.4v-0.2l-0.1,0.2h-0.2c0,0-0.1,0-0.1,0c0,0-0.1,0-0.1-0.1c-0.1-0.1-0.2-0.2-0.2-0.4
		c0,0,0,0,0-0.1c0,0,0,0,0-0.1c0,0,0-0.1,0-0.1c0-0.2,0.1-0.3,0.3-0.4c0,0,0.1,0,0.1,0c0,0,0.1,0,0.1,0h0c0,0,0,0,0.1,0
		c0,0,0.1,0,0.1,0v-0.1h-0.1l0.1-0.4h0.4v1.2h0.1L4148.2,17.5z M4147.7,17c0-0.1-0.1-0.2-0.1-0.2c0,0,0,0-0.1,0c0,0-0.1,0-0.1,0
		c0,0,0,0.1,0,0.1c0,0.1,0,0.1,0.1,0.1s0.1,0,0.2,0l0,0L4147.7,17L4147.7,17L4147.7,17z"/>
	<path class="st2" d="M4148.8,17.1C4148.8,17.1,4148.8,17.1,4148.8,17.1c0.1,0.1,0.2,0.1,0.2,0.1c0,0,0,0,0,0h0c0.1,0,0.2,0,0.3,0
		l0.1,0l-0.1,0.4l-0.1,0c-0.1,0-0.1,0-0.2,0c-0.2,0-0.4-0.1-0.5-0.2c-0.1-0.1-0.2-0.3-0.2-0.4c0,0,0,0,0-0.1c0,0,0,0,0-0.1
		c0-0.1,0-0.1,0.1-0.2c0.1-0.2,0.2-0.3,0.4-0.3c0,0,0,0,0,0s0,0,0,0c0.1,0,0.1,0,0.2,0c0.1,0,0.2,0.1,0.3,0.2
		c0.1,0.1,0.1,0.2,0.1,0.4l0,0.1L4148.8,17.1z M4148.8,16.7C4148.8,16.7,4148.8,16.7,4148.8,16.7c-0.1,0.1-0.1,0.1-0.1,0.1h0.3
		C4149,16.8,4148.9,16.7,4148.8,16.7C4148.9,16.7,4148.9,16.7,4148.8,16.7C4148.8,16.7,4148.8,16.7,4148.8,16.7z"/>
	<path class="st2" d="M4150.2,16.9L4150.2,16.9c-0.1,0-0.1,0-0.1,0c0,0-0.1,0.1-0.1,0.1l0,0v0.5h-0.4v-0.7h-0.1l0.1-0.4h0.4v0.1
		c0-0.1,0.1-0.1,0.2-0.1c0,0,0.1,0,0.1,0h0L4150.2,16.9z"/>
	<path class="st2" d="M4151.5,17.5h-0.4v-0.2l-0.1,0.2h-0.2c0,0-0.1,0-0.1,0c0,0-0.1,0-0.1-0.1c-0.1-0.1-0.2-0.2-0.2-0.4
		c0,0,0,0,0-0.1c0,0,0,0,0-0.1c0,0,0-0.1,0-0.1c0-0.2,0.1-0.3,0.3-0.4c0,0,0.1,0,0.1,0c0,0,0.1,0,0.1,0h0c0,0,0,0,0.1,0
		c0,0,0.1,0,0.1,0v-0.1h-0.1l0.1-0.4h0.4v1.2h0.1L4151.5,17.5z M4151,17c0-0.1-0.1-0.2-0.1-0.2c0,0,0,0-0.1,0c0,0-0.1,0-0.1,0
		c0,0,0,0.1,0,0.1c0,0.1,0,0.1,0.1,0.1c0,0,0.1,0,0.2,0l0,0L4151,17L4151,17L4151,17z"/>
</g>
<g id="Uden_1_" onclick="openGemeente('Uden')">
	<polygon id="Uden" class="st1" points="4139.9,27.2 4139.2,26.5 4139.2,26 4140.3,23.6 4141,23.4 4142.4,21.9 4142.5,21.2 
		4142.8,20.9 4142.5,20.1 4143,20 4144.9,19.9 4144.9,20.7 4150,25.8 4150.4,25.9 4155.4,24.5 4155.9,24.9 4156.2,26.3 4155.3,26.7 
		4155.7,27.1 4155.9,28 4156.6,28.1 4157.1,30.7 4157.4,32.4 4156.3,32.4 4151.1,31.7 4148.8,31.6 4147.7,31.9 4146.1,32.1 
		4145.4,32.3 4143.5,30.8 4143,31.4 4142.4,30.8 4141.8,30.5 4141.5,29.3 4139.8,28 	"/>
	<path class="st2" d="M4146.1,28.4c-0.1,0.2-0.2,0.4-0.5,0.4c0,0,0,0-0.1,0h0c-0.1,0-0.3,0-0.4-0.1c-0.1-0.1-0.2-0.2-0.2-0.3
		c0,0,0-0.1,0-0.1c0,0,0-0.1,0-0.1v-0.6h-0.1l0.1-0.4h0.5v0.9c0,0,0,0.1,0,0.1c0,0,0.1,0,0.1,0c0,0,0.1,0,0.1,0c0,0,0-0.1,0-0.1
		v-0.9h0.5v1C4146.1,28.3,4146.1,28.3,4146.1,28.4C4146.1,28.4,4146.1,28.4,4146.1,28.4z"/>
	<path class="st2" d="M4147.4,28.8h-0.4v-0.2l-0.1,0.2h-0.2c0,0-0.1,0-0.1,0c0,0-0.1,0-0.1-0.1c-0.1-0.1-0.2-0.2-0.2-0.4
		c0,0,0,0,0-0.1c0,0,0,0,0-0.1c0,0,0-0.1,0-0.1c0-0.2,0.1-0.3,0.3-0.4c0,0,0.1,0,0.1,0c0,0,0.1,0,0.1,0h0c0,0,0,0,0.1,0
		c0,0,0.1,0,0.1,0v-0.1h-0.1l0.1-0.4h0.4v1.2h0.1L4147.4,28.8z M4146.9,28.2c0-0.1-0.1-0.2-0.1-0.2c0,0,0,0-0.1,0c0,0-0.1,0-0.1,0
		c0,0,0,0.1,0,0.1c0,0.1,0,0.1,0.1,0.1c0,0,0.1,0,0.2,0l0,0L4146.9,28.2L4146.9,28.2L4146.9,28.2z"/>
	<path class="st2" d="M4148,28.3C4148,28.4,4148,28.4,4148,28.3c0.1,0.1,0.2,0.1,0.2,0.1c0,0,0,0,0,0h0c0.1,0,0.2,0,0.3,0l0.1,0
		l-0.1,0.4l-0.1,0c-0.1,0-0.1,0-0.2,0c-0.2,0-0.4-0.1-0.5-0.2c-0.1-0.1-0.2-0.3-0.2-0.4c0,0,0,0,0-0.1c0,0,0,0,0-0.1
		c0-0.1,0-0.1,0.1-0.2c0.1-0.2,0.2-0.3,0.4-0.3c0,0,0,0,0,0c0,0,0,0,0,0c0.1,0,0.1,0,0.2,0c0.1,0,0.2,0.1,0.3,0.2
		c0.1,0.1,0.1,0.2,0.1,0.4l0,0.1L4148,28.3z M4148,28C4148,28,4148,28,4148,28c-0.1,0.1-0.1,0.1-0.1,0.1h0.3
		C4148.2,28,4148.1,28,4148,28C4148.1,28,4148.1,28,4148,28C4148.1,28,4148,28,4148,28z"/>
	<path class="st2" d="M4149.8,28.8h-0.4v-0.6c0,0,0,0,0-0.1c0,0-0.1,0-0.1,0c0,0,0,0,0,0c0,0,0,0,0,0l0,0v0.7h-0.4v-0.7h-0.1
		l0.1-0.4h0.4v0.2l0.1-0.2h0.2c0,0,0.1,0,0.1,0c0,0,0.1,0,0.1,0c0,0,0.1,0,0.1,0.1c0,0.1,0,0.1,0,0.2v0.4h0.1L4149.8,28.8z"/>
</g>
<g id="Boekel_1_" onclick="openGemeente('Boekel')">
	<polygon id="Boekel" class="st1" points="4145.4,32.3 4147.7,31.9 4148.8,31.6 4151.1,31.7 4156.3,32.4 4157.4,32.4 4158,36.9 
		4153.4,38.2 4153,38 4152.4,38.5 4147.8,38.7 4146.9,35.1 	"/>
	<path class="st2" d="M4149.4,35.5c0,0-0.1,0-0.1,0.1c0,0-0.1,0-0.1,0h-0.8v-1.1h-0.1l0.1-0.4h0.8c0.1,0,0.1,0,0.2,0.1
		c0.1,0.1,0.2,0.2,0.2,0.3v0c0,0,0,0,0,0c0,0.1-0.1,0.2-0.2,0.3l0,0c0.1,0.1,0.1,0.1,0.1,0.2c0,0.1,0,0.1,0,0.2
		C4149.6,35.3,4149.5,35.4,4149.4,35.5z M4148.9,34.5L4148.9,34.5l-0.1,0.2h0.1c0,0,0,0,0,0c0,0,0,0,0,0c0,0,0.1,0,0.1-0.1
		c0,0,0,0,0,0C4149,34.5,4149,34.5,4148.9,34.5C4149,34.5,4149,34.5,4148.9,34.5z M4148.9,35L4148.9,35l-0.1,0.2h0.1c0,0,0,0,0.1,0
		c0,0,0,0,0-0.1C4149.1,35,4149,35,4148.9,35L4148.9,35z"/>
	<path class="st2" d="M4150.8,35.3c-0.1,0.1-0.2,0.2-0.4,0.3c0,0-0.1,0-0.1,0c-0.1,0-0.3,0-0.4-0.1c-0.1,0-0.1-0.1-0.1-0.1
		c0-0.1-0.1-0.1-0.1-0.2l0-0.1c0,0,0,0,0,0c0,0,0,0,0,0c0-0.1,0-0.3,0.1-0.4c0.1-0.1,0.2-0.2,0.4-0.2c0,0,0.1,0,0.1,0h0
		c0.1,0,0.1,0,0.2,0c0.1,0,0.1,0.1,0.2,0.1c0,0,0.1,0,0.1,0.1C4150.9,34.9,4150.9,35.1,4150.8,35.3L4150.8,35.3z M4150.3,34.9
		C4150.3,34.9,4150.3,34.9,4150.3,34.9c-0.1,0-0.1,0-0.2,0c0,0,0,0.1,0,0.1c0,0.1,0,0.1,0.1,0.2c0,0,0,0,0,0c0,0,0,0,0,0
		c0.1,0,0.1-0.1,0.2-0.1c0,0,0,0,0-0.1C4150.4,35,4150.4,34.9,4150.3,34.9L4150.3,34.9z"/>
	<path class="st2" d="M4151.4,35.1C4151.4,35.2,4151.4,35.2,4151.4,35.1c0.1,0.1,0.2,0.1,0.2,0.1c0,0,0,0,0,0h0c0.1,0,0.2,0,0.3,0
		l0.1,0l-0.1,0.4l-0.1,0c-0.1,0-0.1,0-0.2,0c-0.2,0-0.4-0.1-0.5-0.2c-0.1-0.1-0.2-0.3-0.2-0.4c0,0,0,0,0-0.1c0,0,0,0,0-0.1
		c0-0.1,0-0.1,0.1-0.2c0.1-0.2,0.2-0.2,0.4-0.3c0,0,0,0,0,0c0,0,0,0,0,0c0.1,0,0.1,0,0.2,0c0.1,0,0.2,0.1,0.3,0.2
		c0.1,0.1,0.1,0.2,0.1,0.4l0,0.1L4151.4,35.1z M4151.5,34.8C4151.4,34.8,4151.4,34.8,4151.5,34.8c-0.1,0.1-0.1,0.1-0.1,0.1h0.3
		C4151.6,34.8,4151.6,34.8,4151.5,34.8C4151.5,34.8,4151.5,34.8,4151.5,34.8C4151.5,34.8,4151.5,34.8,4151.5,34.8z"/>
	<path class="st2" d="M4152.8,35.6l-0.2-0.4v0.4h-0.4v-1.2h-0.1l0.1-0.4h0.4v0.8l0.2-0.3h0.5L4153,35l0.3,0.6L4152.8,35.6z"/>
	<path class="st2" d="M4153.8,35.1C4153.8,35.2,4153.8,35.2,4153.8,35.1c0.1,0.1,0.2,0.1,0.2,0.1c0,0,0,0,0,0h0c0.1,0,0.2,0,0.3,0
		l0.1,0l-0.1,0.4l-0.1,0c-0.1,0-0.1,0-0.2,0c-0.2,0-0.4-0.1-0.5-0.2c-0.1-0.1-0.2-0.3-0.2-0.4c0,0,0,0,0-0.1c0,0,0,0,0-0.1
		c0-0.1,0-0.1,0.1-0.2c0.1-0.2,0.2-0.2,0.4-0.3c0,0,0,0,0,0s0,0,0,0c0.1,0,0.1,0,0.2,0c0.1,0,0.2,0.1,0.3,0.2
		c0.1,0.1,0.1,0.2,0.1,0.4l0,0.1L4153.8,35.1z M4153.8,34.8C4153.8,34.8,4153.8,34.8,4153.8,34.8c-0.1,0.1-0.1,0.1-0.1,0.1h0.3
		C4154,34.8,4153.9,34.8,4153.8,34.8C4153.9,34.8,4153.9,34.8,4153.8,34.8C4153.9,34.8,4153.9,34.8,4153.8,34.8L4153.8,34.8z"/>
	<path class="st2" d="M4155,35.6h-0.4v-1.2h-0.1l0.1-0.4h0.4v1.2h0.1L4155,35.6z"/>
</g>
</svg>
